%TF.GenerationSoftware,KiCad,Pcbnew,7.0.10*%
%TF.CreationDate,2024-01-21T20:38:52+01:00*%
%TF.ProjectId,Nemesis-MixSigPCB,4e656d65-7369-4732-9d4d-697853696750,1*%
%TF.SameCoordinates,Original*%
%TF.FileFunction,Copper,L4,Bot*%
%TF.FilePolarity,Positive*%
%FSLAX46Y46*%
G04 Gerber Fmt 4.6, Leading zero omitted, Abs format (unit mm)*
G04 Created by KiCad (PCBNEW 7.0.10) date 2024-01-21 20:38:52*
%MOMM*%
%LPD*%
G01*
G04 APERTURE LIST*
%TA.AperFunction,ComponentPad*%
%ADD10C,1.900000*%
%TD*%
%TA.AperFunction,ComponentPad*%
%ADD11C,3.000000*%
%TD*%
%TA.AperFunction,ComponentPad*%
%ADD12C,5.700000*%
%TD*%
%TA.AperFunction,ComponentPad*%
%ADD13O,1.000000X2.100000*%
%TD*%
%TA.AperFunction,ComponentPad*%
%ADD14O,1.000000X1.600000*%
%TD*%
%TA.AperFunction,ViaPad*%
%ADD15C,0.700000*%
%TD*%
%TA.AperFunction,Conductor*%
%ADD16C,0.500000*%
%TD*%
%TA.AperFunction,Conductor*%
%ADD17C,0.300000*%
%TD*%
%TA.AperFunction,Conductor*%
%ADD18C,0.200000*%
%TD*%
G04 APERTURE END LIST*
D10*
%TO.P,J300,1,In*%
%TO.N,/ADC/IN*%
X136000000Y-117000000D03*
D11*
%TO.P,J300,2,Ext*%
%TO.N,GND*%
X141080000Y-122080000D03*
D10*
X138540000Y-117000000D03*
D11*
X130920000Y-122080000D03*
%TD*%
D12*
%TO.P,H2,1,1*%
%TO.N,Earth_Protective*%
X124000000Y-126000000D03*
%TD*%
D10*
%TO.P,J400,1,In*%
%TO.N,/DAC/OUT*%
X159000000Y-117000000D03*
D11*
%TO.P,J400,2,Ext*%
%TO.N,GND*%
X164080000Y-122080000D03*
D10*
X161540000Y-117000000D03*
D11*
X153920000Y-122080000D03*
%TD*%
D13*
%TO.P,J200,S1,SHIELD*%
%TO.N,Earth_Protective*%
X151820000Y-55630000D03*
D14*
X151820000Y-51450000D03*
D13*
X143180000Y-55630000D03*
D14*
X143180000Y-51450000D03*
%TD*%
D12*
%TO.P,H4,1,1*%
%TO.N,Earth_Protective*%
X124000000Y-54000000D03*
%TD*%
%TO.P,H3,1,1*%
%TO.N,Earth_Protective*%
X171000000Y-126000000D03*
%TD*%
%TO.P,H1,1,1*%
%TO.N,Earth_Protective*%
X171000000Y-54000000D03*
%TD*%
D15*
%TO.N,GND*%
X133000000Y-62250000D03*
X134250000Y-61750000D03*
X144950000Y-83325000D03*
X129000000Y-77000000D03*
X164950000Y-118325000D03*
X134250000Y-63750000D03*
X129950000Y-128325000D03*
X158750000Y-81250000D03*
X169950000Y-63325000D03*
X149500000Y-108500000D03*
X144950000Y-98325000D03*
X132250000Y-90250000D03*
X144950000Y-68325000D03*
X152500000Y-57000000D03*
X160500000Y-97750000D03*
X159000000Y-88750000D03*
X134791639Y-97909481D03*
X151000000Y-58500000D03*
X164000000Y-93250000D03*
X133500000Y-57750000D03*
X139950000Y-103325000D03*
X156750000Y-75750000D03*
X164000000Y-105250000D03*
X159500000Y-57000000D03*
X133750000Y-110500000D03*
X158000000Y-64500000D03*
X153500000Y-78750000D03*
X153500000Y-90500000D03*
X144950000Y-63325000D03*
X154129304Y-63390666D03*
X124950000Y-93325000D03*
X149950000Y-113325000D03*
X169950000Y-83325000D03*
X139950000Y-113325000D03*
X134950000Y-53325000D03*
X124950000Y-108325000D03*
X124950000Y-73325000D03*
X166000000Y-103750000D03*
X165784606Y-97853817D03*
X135000000Y-57750000D03*
X163671611Y-109105309D03*
X161250000Y-80250000D03*
X169950000Y-118325000D03*
X158000000Y-67500000D03*
X148000000Y-83500000D03*
X124950000Y-63325000D03*
X144950000Y-88325000D03*
X141500000Y-57500000D03*
X134250000Y-87750000D03*
X132000000Y-88250000D03*
X169950000Y-73325000D03*
X152000000Y-61500000D03*
X141250000Y-99750000D03*
X139950000Y-63325000D03*
X161500000Y-55500000D03*
X137250000Y-77250000D03*
X169950000Y-103325000D03*
X169950000Y-88325000D03*
X169950000Y-113325000D03*
X160500000Y-112500000D03*
X137000000Y-98000000D03*
X163000000Y-58250000D03*
X145000000Y-96750000D03*
X129000000Y-93250000D03*
X142250000Y-93750000D03*
X134950000Y-128325000D03*
X159950000Y-128325000D03*
X149950000Y-128325000D03*
X149950000Y-118325000D03*
X132250000Y-53000000D03*
X142500000Y-58470000D03*
X124950000Y-118325000D03*
X132760010Y-101506250D03*
X131500000Y-87000000D03*
X164950000Y-113325000D03*
X133750000Y-95000000D03*
X155750000Y-83250000D03*
X151750000Y-57750000D03*
X160000000Y-81500000D03*
X124950000Y-98325000D03*
X153250000Y-77750000D03*
X160000000Y-100000000D03*
X163750000Y-100250000D03*
X159750000Y-92000000D03*
X145000000Y-76750000D03*
X134950000Y-123325000D03*
X164950000Y-128325000D03*
X159950000Y-123325000D03*
X124950000Y-103325000D03*
X129950000Y-118325000D03*
X137250000Y-83250000D03*
X143250000Y-57750000D03*
X140250000Y-56250000D03*
X164250000Y-58250000D03*
X149950000Y-73325000D03*
X145000000Y-61000000D03*
X166250000Y-72500000D03*
X156500000Y-84250000D03*
X154950000Y-113325000D03*
X129000000Y-91000000D03*
X133500000Y-90250000D03*
X169950000Y-98325000D03*
X130000000Y-102000000D03*
X154750000Y-98325000D03*
X124950000Y-78325000D03*
X139950000Y-128325000D03*
X131000000Y-74500000D03*
X169950000Y-108325000D03*
X156250000Y-79750000D03*
X142500000Y-57000000D03*
X160450000Y-89500000D03*
X124950000Y-88325000D03*
X161500000Y-67500000D03*
X132999591Y-79480444D03*
X165130000Y-80462110D03*
X130750000Y-79000000D03*
X151750000Y-77750000D03*
X163750000Y-73250000D03*
X150000000Y-65250000D03*
X158500000Y-55500000D03*
X131000000Y-73500000D03*
X152250000Y-74500000D03*
X146250000Y-105250000D03*
X133500000Y-56500000D03*
X156250000Y-63000000D03*
X130000000Y-105700000D03*
X157750000Y-80500000D03*
X155000000Y-93250000D03*
X169950000Y-78325000D03*
X144950000Y-118325000D03*
X148000000Y-81080707D03*
X162230000Y-105250000D03*
X154950000Y-103325000D03*
X124950000Y-113325000D03*
X144950000Y-113325000D03*
X154950000Y-118325000D03*
X144000000Y-58470000D03*
X162750000Y-111750000D03*
X144950000Y-123325000D03*
X160500000Y-58250000D03*
X124950000Y-68325000D03*
X163000000Y-56500000D03*
X153250000Y-71750000D03*
X169950000Y-93325000D03*
X154950000Y-108325000D03*
X133000000Y-94250000D03*
X145000000Y-77750000D03*
X154950000Y-128325000D03*
X152500000Y-58500000D03*
X136750000Y-107000000D03*
X148000000Y-82500000D03*
X147500000Y-58250000D03*
X136750000Y-69750000D03*
X169950000Y-68325000D03*
X149950000Y-123325000D03*
X163646767Y-86223238D03*
X165250000Y-67500000D03*
X162044974Y-72444977D03*
X129950000Y-113325000D03*
X149950000Y-98325000D03*
X132185560Y-106578381D03*
X129000000Y-75000000D03*
X124950000Y-83325000D03*
X137000000Y-112500000D03*
X144950000Y-128325000D03*
X134250000Y-62750000D03*
%TO.N,+3.3VA*%
X130750000Y-108500000D03*
X133750000Y-76500000D03*
X164950000Y-111280000D03*
X132000000Y-75750000D03*
X132500000Y-108500000D03*
X134750000Y-77250000D03*
X136250000Y-89750000D03*
X132500000Y-99500000D03*
X136750000Y-90750000D03*
X134750000Y-75750000D03*
X131000000Y-81500000D03*
X130750000Y-100000000D03*
%TO.N,+3V3*%
X136750000Y-95250000D03*
X165500000Y-61750000D03*
X165750000Y-58250000D03*
X148750000Y-85750000D03*
X162250000Y-87250000D03*
X152000000Y-80470000D03*
X139750000Y-67000000D03*
X134250000Y-65000000D03*
X139750000Y-66000000D03*
X134250000Y-67000000D03*
X133000000Y-66500000D03*
X165750000Y-55000000D03*
X134250000Y-66000000D03*
X162250000Y-88500000D03*
X165250000Y-79500000D03*
X135500000Y-92000000D03*
X136750000Y-96250000D03*
X130750000Y-66500000D03*
X155300000Y-75750000D03*
X139750000Y-65000000D03*
%TO.N,/MCU/NRST*%
X153250000Y-74500000D03*
X154000000Y-72250000D03*
%TO.N,/ADC/ADC_IN+*%
X134516662Y-92204838D03*
X136000000Y-98000000D03*
%TO.N,/ADC/ADC_IN-*%
X134463810Y-93103288D03*
X133500000Y-97500000D03*
%TO.N,SPI2_NSS*%
X165500000Y-97000000D03*
X162747165Y-86250085D03*
%TO.N,SPI1_NSS*%
X144500000Y-96000000D03*
X153500000Y-89500000D03*
%TO.N,/MCU/TIM4_CH3*%
X157000000Y-62500000D03*
X157250000Y-79750000D03*
%TO.N,/MCU/TIM4_CH1*%
X159250000Y-79750000D03*
X154000000Y-62500000D03*
%TO.N,/MCU/TIM4_CH2*%
X155500000Y-62500000D03*
X158250000Y-79750000D03*
%TO.N,/MCU/SWDIO*%
X161000000Y-81500000D03*
X165250000Y-72250000D03*
%TO.N,/MCU/SWCLK*%
X160500000Y-80750000D03*
X163750000Y-72250000D03*
%TO.N,/MCU/SWO*%
X162000000Y-71500000D03*
X159534606Y-80603817D03*
%TO.N,SPI1_MISO*%
X157250000Y-85000000D03*
X141750000Y-94500000D03*
%TO.N,DAC_NCLR*%
X165000000Y-103750000D03*
X158250000Y-88250000D03*
%TO.N,DAC_NLDAC*%
X164554987Y-100652493D03*
X159750000Y-91000000D03*
%TO.N,Earth_Protective*%
X172450000Y-95825000D03*
X129000000Y-51000000D03*
X138000000Y-51000000D03*
X132000000Y-51000000D03*
X150000000Y-51000000D03*
X172450000Y-108325000D03*
X122450000Y-118325000D03*
X122450000Y-80825000D03*
X172450000Y-120825000D03*
X172450000Y-78325000D03*
X172450000Y-118325000D03*
X122450000Y-110825000D03*
X122450000Y-98325000D03*
X172450000Y-85825000D03*
X172450000Y-58325000D03*
X135000000Y-51000000D03*
X122450000Y-73325000D03*
X122450000Y-115825000D03*
X166000000Y-51000000D03*
X122450000Y-88325000D03*
X169950000Y-120825000D03*
X122450000Y-85825000D03*
X122450000Y-65825000D03*
X172450000Y-80825000D03*
X172450000Y-93325000D03*
X122450000Y-113325000D03*
X167500000Y-123400000D03*
X172450000Y-75825000D03*
X141000000Y-51000000D03*
X122450000Y-105825000D03*
X172450000Y-60825000D03*
X172450000Y-113325000D03*
X127500000Y-56500000D03*
X172450000Y-73325000D03*
X172450000Y-110825000D03*
X167500000Y-128300000D03*
X124950000Y-58325000D03*
X122450000Y-83325000D03*
X122450000Y-70825000D03*
X122450000Y-90825000D03*
X122450000Y-95825000D03*
X172450000Y-63325000D03*
X172450000Y-103325000D03*
X122450000Y-58325000D03*
X122450000Y-75825000D03*
X169950000Y-58325000D03*
X157000000Y-51000000D03*
X122450000Y-108325000D03*
X160000000Y-51000000D03*
X172450000Y-90825000D03*
X122450000Y-103325000D03*
X122450000Y-120825000D03*
X172450000Y-65825000D03*
X172450000Y-88325000D03*
X172450000Y-83325000D03*
X172450000Y-68325000D03*
X124950000Y-120825000D03*
X122450000Y-93325000D03*
X127450000Y-123325000D03*
X122450000Y-60825000D03*
X172450000Y-115825000D03*
X145000000Y-51000000D03*
X172450000Y-105825000D03*
X172450000Y-70825000D03*
X172450000Y-100825000D03*
X127450000Y-128325000D03*
X167500000Y-56500000D03*
X122450000Y-78325000D03*
X122450000Y-63325000D03*
X172450000Y-98325000D03*
X122450000Y-68325000D03*
X163000000Y-51000000D03*
X154000000Y-51000000D03*
X122450000Y-100825000D03*
%TD*%
D16*
%TO.N,+3.3VA*%
X149450000Y-110950000D02*
X147000000Y-108500000D01*
X164950000Y-111280000D02*
X164620000Y-110950000D01*
X147000000Y-108500000D02*
X132500000Y-108500000D01*
X164620000Y-110950000D02*
X149450000Y-110950000D01*
%TO.N,+3V3*%
X165250000Y-79500000D02*
X164960739Y-79500000D01*
X164960739Y-79500000D02*
X161460739Y-83000000D01*
X158250000Y-83000000D02*
X155720000Y-80470000D01*
X161460739Y-83000000D02*
X158250000Y-83000000D01*
X155720000Y-80470000D02*
X152000000Y-80470000D01*
D17*
%TO.N,/MCU/NRST*%
X153250000Y-74500000D02*
X153250000Y-73000000D01*
X153250000Y-73000000D02*
X154000000Y-72250000D01*
D18*
%TO.N,/ADC/ADC_IN+*%
X134535599Y-92204838D02*
X136000000Y-93669239D01*
X134516662Y-92204838D02*
X134535599Y-92204838D01*
X136000000Y-93669239D02*
X136000000Y-98000000D01*
%TO.N,/ADC/ADC_IN-*%
X134463810Y-93103288D02*
X134500000Y-93139478D01*
X134500000Y-93139478D02*
X134500000Y-96500000D01*
X134500000Y-96500000D02*
X133500000Y-97500000D01*
D17*
%TO.N,SPI2_NSS*%
X163000000Y-94500000D02*
X165500000Y-97000000D01*
X163000000Y-86502920D02*
X163000000Y-94500000D01*
X162747165Y-86250085D02*
X163000000Y-86502920D01*
%TO.N,SPI1_NSS*%
X144500000Y-96000000D02*
X147000000Y-96000000D01*
X147000000Y-96000000D02*
X153500000Y-89500000D01*
%TO.N,/MCU/TIM4_CH3*%
X152250000Y-64750000D02*
X156000000Y-68500000D01*
X156000000Y-68500000D02*
X156000000Y-78500000D01*
X153500000Y-61250000D02*
X152250000Y-62500000D01*
X157000000Y-62500000D02*
X155750000Y-61250000D01*
X152250000Y-62500000D02*
X152250000Y-64750000D01*
X155750000Y-61250000D02*
X153500000Y-61250000D01*
X156000000Y-78500000D02*
X157250000Y-79750000D01*
%TO.N,/MCU/TIM4_CH1*%
X154000000Y-62500000D02*
X154500000Y-62500000D01*
X159000000Y-79500000D02*
X159250000Y-79750000D01*
X159000000Y-67000000D02*
X159000000Y-79500000D01*
X154500000Y-62500000D02*
X159000000Y-67000000D01*
%TO.N,/MCU/TIM4_CH2*%
X155500000Y-62500000D02*
X154800000Y-61800000D01*
X157500000Y-68000000D02*
X157500000Y-79000000D01*
X153710050Y-61800000D02*
X153250000Y-62260050D01*
X153250000Y-62260050D02*
X153250000Y-63750000D01*
X153250000Y-63750000D02*
X157500000Y-68000000D01*
X154800000Y-61800000D02*
X153710050Y-61800000D01*
X157500000Y-79000000D02*
X158250000Y-79750000D01*
%TO.N,/MCU/SWDIO*%
X165250000Y-72250000D02*
X165250000Y-77250000D01*
X165250000Y-77250000D02*
X161000000Y-81500000D01*
%TO.N,/MCU/SWCLK*%
X160750000Y-79250000D02*
X160750000Y-79760050D01*
X163000000Y-77000000D02*
X160750000Y-79250000D01*
X160750000Y-79760050D02*
X160500000Y-80010050D01*
X163750000Y-72250000D02*
X163000000Y-73000000D01*
X160500000Y-80010050D02*
X160500000Y-80750000D01*
X160750000Y-79250000D02*
X160750000Y-79500000D01*
X163000000Y-73000000D02*
X163000000Y-77000000D01*
%TO.N,/MCU/SWO*%
X159950000Y-80188423D02*
X159534606Y-80603817D01*
X159950000Y-77050000D02*
X159950000Y-80188423D01*
X161000000Y-76000000D02*
X159950000Y-77050000D01*
X162000000Y-71500000D02*
X161000000Y-72500000D01*
X161000000Y-72500000D02*
X161000000Y-76000000D01*
%TO.N,SPI1_MISO*%
X154750000Y-85000000D02*
X157250000Y-85000000D01*
X141750000Y-94500000D02*
X145250000Y-94500000D01*
X145250000Y-94500000D02*
X154750000Y-85000000D01*
%TO.N,DAC_NCLR*%
X158250000Y-97000000D02*
X165000000Y-103750000D01*
X158250000Y-88250000D02*
X158250000Y-97000000D01*
%TO.N,DAC_NLDAC*%
X164554987Y-100652493D02*
X164554987Y-99304987D01*
X160500000Y-95250000D02*
X160500000Y-91750000D01*
X164554987Y-99304987D02*
X160500000Y-95250000D01*
X160500000Y-91750000D02*
X159750000Y-91000000D01*
%TD*%
%TA.AperFunction,Conductor*%
%TO.N,Earth_Protective*%
G36*
X141500000Y-52000000D02*
G01*
X128000000Y-52000000D01*
X128000000Y-50250500D01*
X141500000Y-50250500D01*
X141500000Y-52000000D01*
G37*
%TD.AperFunction*%
%TA.AperFunction,Conductor*%
G36*
X167000000Y-52000000D02*
G01*
X153500000Y-52000000D01*
X153500000Y-50250500D01*
X167000000Y-50250500D01*
X167000000Y-52000000D01*
G37*
%TD.AperFunction*%
%TD*%
%TA.AperFunction,Conductor*%
%TO.N,Earth_Protective*%
G36*
X171003032Y-50250648D02*
G01*
X171361433Y-50268256D01*
X171373541Y-50269448D01*
X171725475Y-50321653D01*
X171737389Y-50324023D01*
X172082520Y-50410473D01*
X172094147Y-50414000D01*
X172429151Y-50533867D01*
X172440363Y-50538511D01*
X172762012Y-50690639D01*
X172772720Y-50696363D01*
X173077881Y-50879270D01*
X173087999Y-50886030D01*
X173373769Y-51097971D01*
X173383175Y-51105691D01*
X173646790Y-51344618D01*
X173655381Y-51353209D01*
X173857883Y-51576635D01*
X173894308Y-51616824D01*
X173902028Y-51626230D01*
X174113969Y-51912000D01*
X174120729Y-51922118D01*
X174303629Y-52227267D01*
X174309366Y-52237999D01*
X174461485Y-52559629D01*
X174466136Y-52570858D01*
X174585994Y-52905837D01*
X174589526Y-52917481D01*
X174675973Y-53262597D01*
X174678347Y-53274532D01*
X174730550Y-53626457D01*
X174731743Y-53638567D01*
X174749351Y-53996966D01*
X174749500Y-54003051D01*
X174749500Y-125996948D01*
X174749351Y-126003033D01*
X174731743Y-126361432D01*
X174730550Y-126373542D01*
X174678347Y-126725467D01*
X174675973Y-126737402D01*
X174589526Y-127082518D01*
X174585994Y-127094162D01*
X174466142Y-127429127D01*
X174461485Y-127440370D01*
X174309366Y-127762000D01*
X174303629Y-127772732D01*
X174120729Y-128077881D01*
X174113969Y-128087999D01*
X173902028Y-128373769D01*
X173894308Y-128383175D01*
X173655388Y-128646783D01*
X173646783Y-128655388D01*
X173383175Y-128894308D01*
X173373769Y-128902028D01*
X173087999Y-129113969D01*
X173077881Y-129120729D01*
X172772732Y-129303629D01*
X172762000Y-129309366D01*
X172440370Y-129461485D01*
X172429134Y-129466139D01*
X172305442Y-129510397D01*
X172094162Y-129585994D01*
X172082518Y-129589526D01*
X171737402Y-129675973D01*
X171725467Y-129678347D01*
X171373542Y-129730550D01*
X171361432Y-129731743D01*
X171023927Y-129748324D01*
X171003031Y-129749351D01*
X170996949Y-129749500D01*
X167124000Y-129749500D01*
X167056961Y-129729815D01*
X167011206Y-129677011D01*
X167000000Y-129625500D01*
X167000000Y-123051362D01*
X167019685Y-122984323D01*
X167036319Y-122963681D01*
X171000000Y-119000000D01*
X171000000Y-61000000D01*
X167041819Y-57041819D01*
X167008334Y-56980496D01*
X167005500Y-56954138D01*
X167005500Y-55051359D01*
X167004906Y-55040294D01*
X167002603Y-54997322D01*
X167000711Y-54979725D01*
X167000000Y-54966467D01*
X167000000Y-52000000D01*
X167000000Y-50250500D01*
X170955830Y-50250500D01*
X170996949Y-50250500D01*
X171003032Y-50250648D01*
G37*
%TD.AperFunction*%
%TD*%
%TA.AperFunction,Conductor*%
%TO.N,Earth_Protective*%
G36*
X128000000Y-52000000D02*
G01*
X128000000Y-56948638D01*
X127980315Y-57015677D01*
X127963681Y-57036319D01*
X124000000Y-60999999D01*
X124000000Y-119000000D01*
X127963681Y-122963681D01*
X127997166Y-123025004D01*
X128000000Y-123051362D01*
X128000000Y-129625500D01*
X127980315Y-129692539D01*
X127927511Y-129738294D01*
X127876000Y-129749500D01*
X124003051Y-129749500D01*
X123996968Y-129749351D01*
X123974856Y-129748264D01*
X123638567Y-129731743D01*
X123626457Y-129730550D01*
X123274532Y-129678347D01*
X123262597Y-129675973D01*
X122917481Y-129589526D01*
X122905837Y-129585994D01*
X122570858Y-129466136D01*
X122559629Y-129461485D01*
X122237999Y-129309366D01*
X122227272Y-129303631D01*
X121922118Y-129120729D01*
X121912000Y-129113969D01*
X121626230Y-128902028D01*
X121616824Y-128894308D01*
X121422650Y-128718319D01*
X121353209Y-128655381D01*
X121344618Y-128646790D01*
X121105691Y-128383175D01*
X121097971Y-128373769D01*
X120886030Y-128087999D01*
X120879270Y-128077881D01*
X120874859Y-128070522D01*
X120696363Y-127772720D01*
X120690639Y-127762012D01*
X120538511Y-127440363D01*
X120533867Y-127429151D01*
X120414000Y-127094147D01*
X120410473Y-127082518D01*
X120324023Y-126737389D01*
X120321652Y-126725467D01*
X120269449Y-126373542D01*
X120268256Y-126361431D01*
X120250649Y-126003032D01*
X120250500Y-125996948D01*
X120250500Y-54003051D01*
X120250649Y-53996967D01*
X120268256Y-53638568D01*
X120269449Y-53626457D01*
X120301240Y-53412139D01*
X120321654Y-53274520D01*
X120324022Y-53262613D01*
X120410475Y-52917473D01*
X120413998Y-52905858D01*
X120533869Y-52570840D01*
X120538508Y-52559643D01*
X120690643Y-52237979D01*
X120696358Y-52227287D01*
X120879278Y-51922105D01*
X120886021Y-51912012D01*
X121097979Y-51626219D01*
X121105682Y-51616834D01*
X121344628Y-51353198D01*
X121353198Y-51344628D01*
X121616834Y-51105682D01*
X121626219Y-51097979D01*
X121912012Y-50886021D01*
X121922105Y-50879278D01*
X122227287Y-50696358D01*
X122237979Y-50690643D01*
X122559643Y-50538508D01*
X122570840Y-50533869D01*
X122905858Y-50413998D01*
X122917473Y-50410475D01*
X123262613Y-50324022D01*
X123274520Y-50321654D01*
X123626460Y-50269448D01*
X123638564Y-50268256D01*
X123996967Y-50250648D01*
X124003051Y-50250500D01*
X128000000Y-50250500D01*
X128000000Y-52000000D01*
G37*
%TD.AperFunction*%
%TD*%
%TA.AperFunction,Conductor*%
%TO.N,Earth_Protective*%
G36*
X142431436Y-50270185D02*
G01*
X142477191Y-50322989D01*
X142487135Y-50392147D01*
X142458110Y-50455703D01*
X142449829Y-50464375D01*
X142417328Y-50495268D01*
X142301143Y-50662195D01*
X142220940Y-50849092D01*
X142180000Y-51048309D01*
X142180000Y-51200000D01*
X142880000Y-51200000D01*
X142880000Y-51700000D01*
X142180000Y-51700000D01*
X142180000Y-51800713D01*
X142195418Y-51952338D01*
X142256299Y-52146381D01*
X142256304Y-52146391D01*
X142355005Y-52324215D01*
X142355005Y-52324216D01*
X142487478Y-52478530D01*
X142487479Y-52478531D01*
X142648304Y-52603018D01*
X142830907Y-52692589D01*
X142930000Y-52718244D01*
X142930000Y-51916110D01*
X142954457Y-51955610D01*
X143043962Y-52023201D01*
X143151840Y-52053895D01*
X143263521Y-52043546D01*
X143363922Y-51993552D01*
X143430000Y-51921069D01*
X143430000Y-52723365D01*
X143431944Y-52723069D01*
X143431945Y-52723069D01*
X143622660Y-52652436D01*
X143622664Y-52652434D01*
X143795267Y-52544850D01*
X143942668Y-52404735D01*
X143942669Y-52404733D01*
X144058856Y-52237804D01*
X144139059Y-52050907D01*
X144180000Y-51851690D01*
X144180000Y-51700000D01*
X143480000Y-51700000D01*
X143480000Y-51200000D01*
X144180000Y-51200000D01*
X144180000Y-51099286D01*
X144164581Y-50947661D01*
X144103700Y-50753618D01*
X144103695Y-50753608D01*
X144004996Y-50575787D01*
X143901537Y-50455270D01*
X143872806Y-50391581D01*
X143883068Y-50322469D01*
X143929066Y-50269876D01*
X143995624Y-50250500D01*
X151004397Y-50250500D01*
X151071436Y-50270185D01*
X151117191Y-50322989D01*
X151127135Y-50392147D01*
X151098110Y-50455703D01*
X151089829Y-50464375D01*
X151057328Y-50495268D01*
X150941143Y-50662195D01*
X150860940Y-50849092D01*
X150820000Y-51048309D01*
X150820000Y-51200000D01*
X151520000Y-51200000D01*
X151520000Y-51700000D01*
X150820000Y-51700000D01*
X150820000Y-51800713D01*
X150835418Y-51952338D01*
X150896299Y-52146381D01*
X150896304Y-52146391D01*
X150995005Y-52324215D01*
X150995005Y-52324216D01*
X151127478Y-52478530D01*
X151127479Y-52478531D01*
X151288304Y-52603018D01*
X151470907Y-52692589D01*
X151570000Y-52718244D01*
X151570000Y-51916110D01*
X151594457Y-51955610D01*
X151683962Y-52023201D01*
X151791840Y-52053895D01*
X151903521Y-52043546D01*
X152003922Y-51993552D01*
X152070000Y-51921069D01*
X152070000Y-52723366D01*
X152071944Y-52723069D01*
X152071945Y-52723069D01*
X152262660Y-52652436D01*
X152262664Y-52652434D01*
X152435267Y-52544850D01*
X152582668Y-52404735D01*
X152582669Y-52404733D01*
X152698856Y-52237804D01*
X152779059Y-52050907D01*
X152820000Y-51851690D01*
X152820000Y-51700000D01*
X152120000Y-51700000D01*
X152120000Y-51200000D01*
X152820000Y-51200000D01*
X152820000Y-51099286D01*
X152804581Y-50947661D01*
X152743700Y-50753618D01*
X152743695Y-50753608D01*
X152644996Y-50575787D01*
X152541537Y-50455270D01*
X152512806Y-50391581D01*
X152523068Y-50322469D01*
X152569066Y-50269876D01*
X152635624Y-50250500D01*
X153500000Y-50250500D01*
X153500000Y-52000000D01*
X153500000Y-56448637D01*
X153480315Y-56515676D01*
X153463681Y-56536318D01*
X153419890Y-56580109D01*
X153358567Y-56613594D01*
X153288875Y-56608610D01*
X153232942Y-56566738D01*
X153224822Y-56554428D01*
X153202448Y-56515676D01*
X153191859Y-56497335D01*
X153145003Y-56445296D01*
X153072235Y-56364478D01*
X153072232Y-56364476D01*
X153072231Y-56364475D01*
X153072230Y-56364474D01*
X152927593Y-56259388D01*
X152927591Y-56259387D01*
X152893562Y-56244236D01*
X152840326Y-56198984D01*
X152820006Y-56132135D01*
X152820000Y-56130957D01*
X152820000Y-55880000D01*
X152120000Y-55880000D01*
X152120000Y-55380000D01*
X152820000Y-55380000D01*
X152820000Y-55029286D01*
X152804581Y-54877661D01*
X152743700Y-54683618D01*
X152743695Y-54683608D01*
X152644994Y-54505784D01*
X152644994Y-54505783D01*
X152512521Y-54351469D01*
X152512520Y-54351468D01*
X152351695Y-54226981D01*
X152169093Y-54137411D01*
X152070000Y-54111753D01*
X152070000Y-54913889D01*
X152045543Y-54874390D01*
X151956038Y-54806799D01*
X151848160Y-54776105D01*
X151736479Y-54786454D01*
X151636078Y-54836448D01*
X151570000Y-54908930D01*
X151570000Y-54106633D01*
X151568053Y-54106931D01*
X151568047Y-54106933D01*
X151377342Y-54177562D01*
X151377335Y-54177565D01*
X151204732Y-54285149D01*
X151057331Y-54425264D01*
X151057328Y-54425268D01*
X150952733Y-54575543D01*
X150898279Y-54619321D01*
X150828801Y-54626709D01*
X150766358Y-54595362D01*
X150766322Y-54595328D01*
X150760582Y-54589938D01*
X150760579Y-54589936D01*
X150760577Y-54589934D01*
X150622095Y-54513804D01*
X150622087Y-54513801D01*
X150469021Y-54474500D01*
X150469019Y-54474500D01*
X150350650Y-54474500D01*
X150350640Y-54474500D01*
X150233208Y-54489336D01*
X150233206Y-54489336D01*
X150086269Y-54547513D01*
X150086260Y-54547518D01*
X149958416Y-54640402D01*
X149958415Y-54640403D01*
X149857674Y-54762178D01*
X149790387Y-54905171D01*
X149790385Y-54905174D01*
X149775757Y-54981862D01*
X149760773Y-55060412D01*
X149760773Y-55060414D01*
X149760773Y-55060415D01*
X149770696Y-55218137D01*
X149770696Y-55218140D01*
X149795614Y-55294828D01*
X149819533Y-55368441D01*
X149904214Y-55501877D01*
X150019418Y-55610062D01*
X150019420Y-55610063D01*
X150019422Y-55610065D01*
X150157904Y-55686195D01*
X150157908Y-55686197D01*
X150310981Y-55725500D01*
X150310984Y-55725500D01*
X150429348Y-55725500D01*
X150429350Y-55725500D01*
X150429355Y-55725499D01*
X150429359Y-55725499D01*
X150442088Y-55723890D01*
X150546792Y-55710664D01*
X150650353Y-55669660D01*
X150719930Y-55663284D01*
X150781910Y-55695536D01*
X150816615Y-55756177D01*
X150820000Y-55784953D01*
X150820000Y-56230713D01*
X150835418Y-56382338D01*
X150896299Y-56576381D01*
X150896304Y-56576391D01*
X150995005Y-56754215D01*
X150995005Y-56754216D01*
X151127476Y-56908527D01*
X151160759Y-56934290D01*
X151201723Y-56990892D01*
X151205584Y-57060655D01*
X151177008Y-57115319D01*
X151058140Y-57247336D01*
X150968750Y-57402164D01*
X150968747Y-57402170D01*
X150913503Y-57572196D01*
X150913172Y-57573754D01*
X150912732Y-57574567D01*
X150911495Y-57578377D01*
X150910798Y-57578150D01*
X150879975Y-57635234D01*
X150818810Y-57669006D01*
X150817665Y-57669255D01*
X150735732Y-57686670D01*
X150617571Y-57739280D01*
X150567136Y-57750000D01*
X148249467Y-57750000D01*
X148182428Y-57730315D01*
X148157317Y-57708972D01*
X148072235Y-57614478D01*
X148072232Y-57614476D01*
X148072231Y-57614475D01*
X148072230Y-57614474D01*
X147927593Y-57509388D01*
X147764267Y-57436671D01*
X147764265Y-57436670D01*
X147636594Y-57409533D01*
X147589391Y-57399500D01*
X147410609Y-57399500D01*
X147379954Y-57406015D01*
X147235733Y-57436670D01*
X147235728Y-57436672D01*
X147072408Y-57509387D01*
X146927768Y-57614475D01*
X146878669Y-57669006D01*
X146842682Y-57708972D01*
X146783198Y-57745621D01*
X146750534Y-57750000D01*
X144496253Y-57750000D01*
X144433784Y-57731656D01*
X144433219Y-57732636D01*
X144427593Y-57729387D01*
X144264267Y-57656671D01*
X144172818Y-57637232D01*
X144111336Y-57604039D01*
X144080669Y-57554260D01*
X144031252Y-57402171D01*
X144031251Y-57402170D01*
X144031250Y-57402165D01*
X143941859Y-57247335D01*
X143822991Y-57115319D01*
X143822815Y-57115123D01*
X143792585Y-57052131D01*
X143801210Y-56982796D01*
X143829534Y-56942276D01*
X143942669Y-56834734D01*
X143942669Y-56834733D01*
X144058856Y-56667804D01*
X144139059Y-56480907D01*
X144180000Y-56281690D01*
X144180000Y-55787068D01*
X144199685Y-55720029D01*
X144252489Y-55674274D01*
X144321647Y-55664330D01*
X144363736Y-55678406D01*
X144377908Y-55686197D01*
X144530981Y-55725500D01*
X144530984Y-55725500D01*
X144649348Y-55725500D01*
X144649350Y-55725500D01*
X144649355Y-55725499D01*
X144649359Y-55725499D01*
X144662088Y-55723890D01*
X144766792Y-55710664D01*
X144913732Y-55652486D01*
X145041587Y-55559594D01*
X145142324Y-55437823D01*
X145209614Y-55294826D01*
X145239227Y-55139588D01*
X145229304Y-54981862D01*
X145180467Y-54831559D01*
X145095786Y-54698123D01*
X144980582Y-54589938D01*
X144980579Y-54589936D01*
X144980577Y-54589934D01*
X144842095Y-54513804D01*
X144842087Y-54513801D01*
X144689021Y-54474500D01*
X144689019Y-54474500D01*
X144570650Y-54474500D01*
X144570640Y-54474500D01*
X144453208Y-54489336D01*
X144453206Y-54489336D01*
X144306269Y-54547513D01*
X144306261Y-54547518D01*
X144221402Y-54609171D01*
X144155596Y-54632650D01*
X144087542Y-54616824D01*
X144040099Y-54569030D01*
X144004994Y-54505784D01*
X144004994Y-54505783D01*
X143872521Y-54351469D01*
X143872520Y-54351468D01*
X143711695Y-54226981D01*
X143529093Y-54137411D01*
X143430000Y-54111753D01*
X143430000Y-54913889D01*
X143405543Y-54874390D01*
X143316038Y-54806799D01*
X143208160Y-54776105D01*
X143096479Y-54786454D01*
X142996078Y-54836448D01*
X142930000Y-54908930D01*
X142930000Y-54106633D01*
X142928053Y-54106931D01*
X142928047Y-54106933D01*
X142737342Y-54177562D01*
X142737335Y-54177565D01*
X142564732Y-54285149D01*
X142417331Y-54425264D01*
X142417330Y-54425266D01*
X142301143Y-54592195D01*
X142220940Y-54779092D01*
X142180000Y-54978309D01*
X142180000Y-55380000D01*
X142880000Y-55380000D01*
X142880000Y-55880000D01*
X142180000Y-55880000D01*
X142180000Y-56130958D01*
X142160315Y-56197997D01*
X142107511Y-56243752D01*
X142106436Y-56244237D01*
X142072407Y-56259387D01*
X141976788Y-56328859D01*
X141910982Y-56352339D01*
X141842928Y-56336513D01*
X141816222Y-56316222D01*
X141536319Y-56036319D01*
X141502834Y-55974996D01*
X141500000Y-55948638D01*
X141500000Y-52000000D01*
X141500000Y-50250500D01*
X142364397Y-50250500D01*
X142431436Y-50270185D01*
G37*
%TD.AperFunction*%
%TD*%
%TA.AperFunction,Conductor*%
%TO.N,+3V3*%
G36*
X134041369Y-64259439D02*
G01*
X134106291Y-64286330D01*
X134233280Y-64303048D01*
X134249999Y-64305250D01*
X134250000Y-64305250D01*
X134250001Y-64305250D01*
X134264977Y-64303278D01*
X134393709Y-64286330D01*
X134458631Y-64259439D01*
X134506083Y-64250000D01*
X138750000Y-64250000D01*
X138750000Y-66500000D01*
X141000000Y-66500000D01*
X149500000Y-75000000D01*
X151993917Y-75000000D01*
X152041369Y-75009439D01*
X152106291Y-75036330D01*
X152233280Y-75053048D01*
X152249999Y-75055250D01*
X152250000Y-75055250D01*
X152250001Y-75055250D01*
X152264977Y-75053278D01*
X152393709Y-75036330D01*
X152458631Y-75009439D01*
X152506083Y-75000000D01*
X152993917Y-75000000D01*
X153041369Y-75009439D01*
X153106291Y-75036330D01*
X153233280Y-75053048D01*
X153249999Y-75055250D01*
X153250000Y-75055250D01*
X153250001Y-75055250D01*
X153264977Y-75053278D01*
X153393709Y-75036330D01*
X153458631Y-75009439D01*
X153506083Y-75000000D01*
X154250000Y-75000000D01*
X155525500Y-75000000D01*
X155592539Y-75019685D01*
X155638294Y-75072489D01*
X155649500Y-75124000D01*
X155649500Y-76876000D01*
X155629815Y-76943039D01*
X155577011Y-76988794D01*
X155525500Y-77000000D01*
X150999999Y-77000000D01*
X150250000Y-77749999D01*
X150250000Y-79000000D01*
X150500000Y-79250000D01*
X153000000Y-79250000D01*
X153000000Y-81000000D01*
X152250000Y-81000000D01*
X151750000Y-81000000D01*
X151749999Y-81000000D01*
X151749998Y-81000001D01*
X150000000Y-82500000D01*
X150000000Y-85948638D01*
X149980315Y-86015677D01*
X149963681Y-86036319D01*
X149786319Y-86213681D01*
X149724996Y-86247166D01*
X149698638Y-86250000D01*
X148551362Y-86250000D01*
X148484323Y-86230315D01*
X148463681Y-86213681D01*
X148286319Y-86036319D01*
X148252834Y-85974996D01*
X148250000Y-85948638D01*
X148250000Y-84301362D01*
X148269685Y-84234323D01*
X148286319Y-84213681D01*
X148500000Y-84000000D01*
X148500000Y-83756082D01*
X148509438Y-83708632D01*
X148536330Y-83643709D01*
X148555250Y-83500000D01*
X148536330Y-83356291D01*
X148509439Y-83291369D01*
X148500000Y-83243917D01*
X148500000Y-82756082D01*
X148509438Y-82708632D01*
X148536330Y-82643709D01*
X148555250Y-82500000D01*
X148536330Y-82356291D01*
X148509439Y-82291369D01*
X148500000Y-82243917D01*
X148500000Y-81336789D01*
X148509438Y-81289339D01*
X148536330Y-81224416D01*
X148555250Y-81080707D01*
X148536330Y-80936998D01*
X148480861Y-80803082D01*
X148392621Y-80688086D01*
X148277625Y-80599846D01*
X148277624Y-80599845D01*
X148277622Y-80599844D01*
X148143710Y-80544377D01*
X148071046Y-80534810D01*
X148007150Y-80506543D01*
X147999552Y-80499552D01*
X145786319Y-78286319D01*
X145752834Y-78224996D01*
X145750000Y-78198638D01*
X145750000Y-76250000D01*
X145256083Y-76250000D01*
X145208631Y-76240561D01*
X145143712Y-76213671D01*
X145143710Y-76213670D01*
X145143709Y-76213670D01*
X145071854Y-76204210D01*
X145000001Y-76194750D01*
X144999999Y-76194750D01*
X144856291Y-76213670D01*
X144856287Y-76213671D01*
X144791369Y-76240561D01*
X144743917Y-76250000D01*
X144551362Y-76250000D01*
X144484323Y-76230315D01*
X144463681Y-76213681D01*
X141750000Y-73500000D01*
X136000000Y-67750000D01*
X130551362Y-67750000D01*
X130484323Y-67730315D01*
X130463681Y-67713681D01*
X130036319Y-67286319D01*
X130002834Y-67224996D01*
X130000000Y-67198638D01*
X130000000Y-64801362D01*
X130019685Y-64734323D01*
X130036319Y-64713681D01*
X130463681Y-64286319D01*
X130525004Y-64252834D01*
X130551362Y-64250000D01*
X133993917Y-64250000D01*
X134041369Y-64259439D01*
G37*
%TD.AperFunction*%
%TD*%
%TA.AperFunction,Conductor*%
%TO.N,+3.3VA*%
G36*
X136500000Y-89750000D02*
G01*
X137213681Y-90463681D01*
X137247166Y-90525004D01*
X137250000Y-90551362D01*
X137250000Y-90948638D01*
X137230315Y-91015677D01*
X137213681Y-91036319D01*
X136536319Y-91713681D01*
X136474996Y-91747166D01*
X136448638Y-91750000D01*
X136063208Y-91750000D01*
X135996169Y-91730315D01*
X135964835Y-91701490D01*
X135892621Y-91607379D01*
X135777625Y-91519139D01*
X135777624Y-91519138D01*
X135777622Y-91519137D01*
X135643712Y-91463671D01*
X135643710Y-91463670D01*
X135643709Y-91463670D01*
X135571854Y-91454210D01*
X135500001Y-91444750D01*
X135499999Y-91444750D01*
X135356291Y-91463670D01*
X135356287Y-91463671D01*
X135222377Y-91519137D01*
X135180381Y-91551362D01*
X135107379Y-91607379D01*
X135035165Y-91701488D01*
X134978740Y-91742689D01*
X134936792Y-91750000D01*
X134870293Y-91750000D01*
X134803254Y-91730315D01*
X134794804Y-91724374D01*
X134794287Y-91723977D01*
X134794285Y-91723976D01*
X134660374Y-91668509D01*
X134660372Y-91668508D01*
X134660371Y-91668508D01*
X134588516Y-91659048D01*
X134516663Y-91649588D01*
X134516661Y-91649588D01*
X134372953Y-91668508D01*
X134372949Y-91668509D01*
X134239038Y-91723976D01*
X134238520Y-91724374D01*
X134238001Y-91724574D01*
X134231997Y-91728041D01*
X134231456Y-91727104D01*
X134173351Y-91749570D01*
X134163031Y-91750000D01*
X133999999Y-91750000D01*
X132500000Y-93249999D01*
X132500000Y-93993917D01*
X132490561Y-94041369D01*
X132463671Y-94106287D01*
X132463670Y-94106291D01*
X132444750Y-94250000D01*
X132463670Y-94393709D01*
X132490561Y-94458632D01*
X132497672Y-94494380D01*
X132501091Y-94502633D01*
X132515707Y-94521680D01*
X132519138Y-94527623D01*
X132519139Y-94527625D01*
X132607379Y-94642621D01*
X132701488Y-94714834D01*
X132742689Y-94771260D01*
X132750000Y-94813208D01*
X132750000Y-100843572D01*
X132730315Y-100910611D01*
X132677511Y-100956366D01*
X132642190Y-100966511D01*
X132616299Y-100969920D01*
X132482387Y-101025387D01*
X132367389Y-101113629D01*
X132279147Y-101228627D01*
X132223681Y-101362537D01*
X132223680Y-101362541D01*
X132204760Y-101506249D01*
X132204760Y-101506250D01*
X132223680Y-101649958D01*
X132223681Y-101649962D01*
X132279147Y-101783872D01*
X132279148Y-101783874D01*
X132279149Y-101783875D01*
X132367389Y-101898871D01*
X132482385Y-101987111D01*
X132616301Y-102042580D01*
X132642184Y-102045987D01*
X132706080Y-102074252D01*
X132744552Y-102132576D01*
X132750000Y-102168926D01*
X132750000Y-106066154D01*
X132730315Y-106133193D01*
X132677511Y-106178948D01*
X132608353Y-106188892D01*
X132550514Y-106164530D01*
X132463185Y-106097520D01*
X132463184Y-106097519D01*
X132463182Y-106097518D01*
X132329272Y-106042052D01*
X132329270Y-106042051D01*
X132329269Y-106042051D01*
X132257414Y-106032591D01*
X132185561Y-106023131D01*
X132185559Y-106023131D01*
X132041851Y-106042051D01*
X132041847Y-106042052D01*
X131907937Y-106097518D01*
X131792939Y-106185760D01*
X131704697Y-106300758D01*
X131649231Y-106434668D01*
X131649230Y-106434672D01*
X131630310Y-106578380D01*
X131630310Y-106578381D01*
X131649230Y-106722089D01*
X131649231Y-106722093D01*
X131704697Y-106856003D01*
X131704698Y-106856005D01*
X131704699Y-106856006D01*
X131792939Y-106971002D01*
X131907935Y-107059242D01*
X132041851Y-107114711D01*
X132168840Y-107131429D01*
X132185559Y-107133631D01*
X132185560Y-107133631D01*
X132185561Y-107133631D01*
X132200537Y-107131659D01*
X132329269Y-107114711D01*
X132463185Y-107059242D01*
X132550514Y-106992231D01*
X132615682Y-106967037D01*
X132684127Y-106981075D01*
X132734117Y-107029888D01*
X132750000Y-107090607D01*
X132750000Y-108698638D01*
X132730315Y-108765677D01*
X132713681Y-108786319D01*
X132536319Y-108963681D01*
X132474996Y-108997166D01*
X132448638Y-109000000D01*
X130801362Y-109000000D01*
X130734323Y-108980315D01*
X130713681Y-108963681D01*
X130286319Y-108536319D01*
X130252834Y-108474996D01*
X130250000Y-108448638D01*
X130250000Y-106263208D01*
X130269685Y-106196169D01*
X130298509Y-106164835D01*
X130392621Y-106092621D01*
X130480861Y-105977625D01*
X130536330Y-105843709D01*
X130555250Y-105700000D01*
X130536330Y-105556291D01*
X130480861Y-105422375D01*
X130392621Y-105307379D01*
X130370968Y-105290764D01*
X130298513Y-105235166D01*
X130257310Y-105178738D01*
X130250000Y-105136791D01*
X130250000Y-102563208D01*
X130269685Y-102496169D01*
X130298509Y-102464835D01*
X130392621Y-102392621D01*
X130480861Y-102277625D01*
X130536330Y-102143709D01*
X130555250Y-102000000D01*
X130536330Y-101856291D01*
X130480861Y-101722375D01*
X130392621Y-101607379D01*
X130370968Y-101590764D01*
X130298513Y-101535166D01*
X130257310Y-101478738D01*
X130250000Y-101436791D01*
X130250000Y-91551362D01*
X130269685Y-91484323D01*
X130286319Y-91463681D01*
X131213681Y-90536319D01*
X131275004Y-90502834D01*
X131301362Y-90500000D01*
X131686792Y-90500000D01*
X131753831Y-90519685D01*
X131785164Y-90548509D01*
X131857379Y-90642621D01*
X131972375Y-90730861D01*
X132106291Y-90786330D01*
X132233280Y-90803048D01*
X132249999Y-90805250D01*
X132250000Y-90805250D01*
X132250001Y-90805250D01*
X132264977Y-90803278D01*
X132393709Y-90786330D01*
X132527625Y-90730861D01*
X132642621Y-90642621D01*
X132714834Y-90548511D01*
X132771260Y-90507311D01*
X132813208Y-90500000D01*
X132936792Y-90500000D01*
X133003831Y-90519685D01*
X133035164Y-90548509D01*
X133107379Y-90642621D01*
X133222375Y-90730861D01*
X133356291Y-90786330D01*
X133483280Y-90803048D01*
X133499999Y-90805250D01*
X133500000Y-90805250D01*
X133500001Y-90805250D01*
X133514977Y-90803278D01*
X133643709Y-90786330D01*
X133777625Y-90730861D01*
X133892621Y-90642621D01*
X133980861Y-90527625D01*
X134036330Y-90393709D01*
X134055250Y-90250000D01*
X134055250Y-90249999D01*
X134055250Y-90246111D01*
X134056178Y-90242950D01*
X134056311Y-90241941D01*
X134056468Y-90241961D01*
X134074935Y-90179072D01*
X134091564Y-90158435D01*
X134500000Y-89750000D01*
X134500000Y-89250000D01*
X135750000Y-89250000D01*
X136500000Y-89250000D01*
X136500000Y-89750000D01*
G37*
%TD.AperFunction*%
%TD*%
%TA.AperFunction,Conductor*%
%TO.N,+3V3*%
G36*
X138500000Y-70250000D02*
G01*
X140250000Y-72000000D01*
X140250000Y-74999999D01*
X140250000Y-93698638D01*
X140230315Y-93765677D01*
X140213681Y-93786319D01*
X137036319Y-96963681D01*
X136974996Y-96997166D01*
X136948638Y-97000000D01*
X136424500Y-97000000D01*
X136357461Y-96980315D01*
X136311706Y-96927511D01*
X136300500Y-96876000D01*
X136300500Y-93736376D01*
X136301689Y-93719245D01*
X136302771Y-93711479D01*
X136302773Y-93711475D01*
X136300632Y-93665160D01*
X136300500Y-93659435D01*
X136300500Y-93641398D01*
X136300046Y-93636505D01*
X136298817Y-93625919D01*
X136297585Y-93599248D01*
X136294788Y-93592915D01*
X136286332Y-93565609D01*
X136285061Y-93558806D01*
X136271003Y-93536101D01*
X136262995Y-93520909D01*
X136252207Y-93496476D01*
X136252206Y-93496475D01*
X136252206Y-93496474D01*
X136247309Y-93491577D01*
X136229563Y-93469173D01*
X136225918Y-93463286D01*
X136225917Y-93463285D01*
X136204602Y-93447189D01*
X136191648Y-93435916D01*
X135340547Y-92584815D01*
X135307062Y-92523492D01*
X135312046Y-92453800D01*
X135340547Y-92409453D01*
X135713681Y-92036319D01*
X135775004Y-92002834D01*
X135801362Y-92000000D01*
X137000000Y-92000000D01*
X138000000Y-91000000D01*
X138000000Y-69750000D01*
X138500000Y-70250000D01*
G37*
%TD.AperFunction*%
%TD*%
%TA.AperFunction,Conductor*%
%TO.N,+3V3*%
G36*
X145750000Y-66483512D02*
G01*
X145724996Y-66497166D01*
X145698638Y-66500000D01*
X138750000Y-66500000D01*
X138750000Y-64250000D01*
X145750000Y-64250000D01*
X145750000Y-66483512D01*
G37*
%TD.AperFunction*%
%TD*%
%TA.AperFunction,Conductor*%
%TO.N,+3V3*%
G36*
X153291369Y-79259439D02*
G01*
X153356291Y-79286330D01*
X153483280Y-79303048D01*
X153499999Y-79305250D01*
X153500000Y-79305250D01*
X153500001Y-79305250D01*
X153514977Y-79303278D01*
X153643709Y-79286330D01*
X153708631Y-79259439D01*
X153756083Y-79250000D01*
X154948638Y-79250000D01*
X155015677Y-79269685D01*
X155036319Y-79286319D01*
X155746002Y-79996002D01*
X155765707Y-80021680D01*
X155769138Y-80027623D01*
X155769139Y-80027625D01*
X155857379Y-80142621D01*
X155904602Y-80178857D01*
X155972374Y-80230861D01*
X155978317Y-80234292D01*
X156003998Y-80253998D01*
X162240797Y-86490797D01*
X162261172Y-86521288D01*
X162262240Y-86520672D01*
X162266299Y-86527703D01*
X162266303Y-86527708D01*
X162266304Y-86527710D01*
X162354544Y-86642706D01*
X162469540Y-86730946D01*
X162469543Y-86730947D01*
X162469544Y-86730948D01*
X162476579Y-86735010D01*
X162475961Y-86736079D01*
X162506452Y-86756452D01*
X162613181Y-86863181D01*
X162646666Y-86924504D01*
X162649500Y-86950862D01*
X162649500Y-88876000D01*
X162629815Y-88943039D01*
X162577011Y-88988794D01*
X162525500Y-89000000D01*
X162301362Y-89000000D01*
X162234323Y-88980315D01*
X162213681Y-88963681D01*
X156253998Y-83003998D01*
X156234292Y-82978317D01*
X156230861Y-82972374D01*
X156178857Y-82904602D01*
X156142621Y-82857379D01*
X156027625Y-82769139D01*
X156027623Y-82769138D01*
X156021680Y-82765707D01*
X155996002Y-82746002D01*
X154250000Y-81000000D01*
X153000000Y-81000000D01*
X153000000Y-79250000D01*
X153243917Y-79250000D01*
X153291369Y-79259439D01*
G37*
%TD.AperFunction*%
%TD*%
%TA.AperFunction,Conductor*%
%TO.N,+3.3VA*%
G36*
X135015677Y-75269685D02*
G01*
X135036319Y-75286319D01*
X136463681Y-76713681D01*
X136497166Y-76775004D01*
X136500000Y-76801362D01*
X136500000Y-89250000D01*
X134500000Y-89250000D01*
X134500000Y-88313208D01*
X134519685Y-88246169D01*
X134548509Y-88214835D01*
X134642621Y-88142621D01*
X134730861Y-88027625D01*
X134786330Y-87893709D01*
X134805250Y-87750000D01*
X134786330Y-87606291D01*
X134730861Y-87472375D01*
X134642621Y-87357379D01*
X134527625Y-87269139D01*
X134527624Y-87269138D01*
X134527622Y-87269137D01*
X134393712Y-87213671D01*
X134393710Y-87213670D01*
X134393709Y-87213670D01*
X134289338Y-87199929D01*
X134250001Y-87194750D01*
X134249999Y-87194750D01*
X134106292Y-87213669D01*
X134093384Y-87219015D01*
X134081986Y-87223737D01*
X134012519Y-87231204D01*
X133950040Y-87199929D01*
X133946856Y-87196856D01*
X130536319Y-83786319D01*
X130502834Y-83724996D01*
X130500000Y-83698638D01*
X130500000Y-81051362D01*
X130519685Y-80984323D01*
X130536319Y-80963681D01*
X131000000Y-80500000D01*
X131000000Y-79563208D01*
X131019685Y-79496169D01*
X131034150Y-79480444D01*
X132444341Y-79480444D01*
X132463261Y-79624152D01*
X132463262Y-79624156D01*
X132518728Y-79758066D01*
X132518729Y-79758068D01*
X132518730Y-79758069D01*
X132606970Y-79873065D01*
X132721966Y-79961305D01*
X132855882Y-80016774D01*
X132982871Y-80033492D01*
X132999590Y-80035694D01*
X132999591Y-80035694D01*
X132999592Y-80035694D01*
X133014568Y-80033722D01*
X133143300Y-80016774D01*
X133277216Y-79961305D01*
X133392212Y-79873065D01*
X133480452Y-79758069D01*
X133535921Y-79624153D01*
X133554841Y-79480444D01*
X133535921Y-79336735D01*
X133480452Y-79202819D01*
X133392212Y-79087823D01*
X133277216Y-78999583D01*
X133277215Y-78999582D01*
X133277213Y-78999581D01*
X133143303Y-78944115D01*
X133143301Y-78944114D01*
X133143300Y-78944114D01*
X133071445Y-78934654D01*
X132999592Y-78925194D01*
X132999590Y-78925194D01*
X132855882Y-78944114D01*
X132855878Y-78944115D01*
X132721968Y-78999581D01*
X132606970Y-79087823D01*
X132518728Y-79202821D01*
X132463262Y-79336731D01*
X132463261Y-79336735D01*
X132444341Y-79480443D01*
X132444341Y-79480444D01*
X131034150Y-79480444D01*
X131048509Y-79464835D01*
X131142621Y-79392621D01*
X131230861Y-79277625D01*
X131286330Y-79143709D01*
X131305250Y-79000000D01*
X131286330Y-78856291D01*
X131230861Y-78722375D01*
X131142621Y-78607379D01*
X131120968Y-78590764D01*
X131048513Y-78535166D01*
X131007310Y-78478738D01*
X131000000Y-78436791D01*
X131000000Y-75801362D01*
X131019685Y-75734323D01*
X131036319Y-75713681D01*
X131463681Y-75286319D01*
X131525004Y-75252834D01*
X131551362Y-75250000D01*
X134948638Y-75250000D01*
X135015677Y-75269685D01*
G37*
%TD.AperFunction*%
%TD*%
%TA.AperFunction,Conductor*%
%TO.N,+3V3*%
G36*
X141750000Y-73500000D02*
G01*
X140250000Y-74999999D01*
X140250000Y-72000000D01*
X141750000Y-73500000D01*
G37*
%TD.AperFunction*%
%TA.AperFunction,Conductor*%
G36*
X142375000Y-67875000D02*
G01*
X141000000Y-66500000D01*
X143749999Y-66500000D01*
X142375000Y-67875000D01*
G37*
%TD.AperFunction*%
%TD*%
%TA.AperFunction,Conductor*%
%TO.N,+3V3*%
G36*
X166015677Y-54519685D02*
G01*
X166036319Y-54536319D01*
X166463681Y-54963681D01*
X166497166Y-55025004D01*
X166500000Y-55051362D01*
X166500000Y-61448638D01*
X166480315Y-61515677D01*
X166463681Y-61536319D01*
X166036319Y-61963681D01*
X165974996Y-61997166D01*
X165948638Y-62000000D01*
X164801362Y-62000000D01*
X164734323Y-61980315D01*
X164713681Y-61963681D01*
X163500000Y-60750000D01*
X151500000Y-60750000D01*
X151499999Y-60750000D01*
X145786319Y-66463681D01*
X145750000Y-66483512D01*
X145750000Y-64250000D01*
X150713681Y-59286319D01*
X150775004Y-59252834D01*
X150801362Y-59250000D01*
X164250000Y-59250000D01*
X165000000Y-58500000D01*
X165000000Y-55051362D01*
X165019685Y-54984323D01*
X165036319Y-54963681D01*
X165463681Y-54536319D01*
X165525004Y-54502834D01*
X165551362Y-54500000D01*
X165948638Y-54500000D01*
X166015677Y-54519685D01*
G37*
%TD.AperFunction*%
%TD*%
M02*
