%TF.GenerationSoftware,KiCad,Pcbnew,7.0.10*%
%TF.CreationDate,2024-01-21T20:38:52+01:00*%
%TF.ProjectId,Nemesis-MixSigPCB,4e656d65-7369-4732-9d4d-697853696750,1*%
%TF.SameCoordinates,Original*%
%TF.FileFunction,Copper,L1,Top*%
%TF.FilePolarity,Positive*%
%FSLAX46Y46*%
G04 Gerber Fmt 4.6, Leading zero omitted, Abs format (unit mm)*
G04 Created by KiCad (PCBNEW 7.0.10) date 2024-01-21 20:38:52*
%MOMM*%
%LPD*%
G01*
G04 APERTURE LIST*
G04 Aperture macros list*
%AMRoundRect*
0 Rectangle with rounded corners*
0 $1 Rounding radius*
0 $2 $3 $4 $5 $6 $7 $8 $9 X,Y pos of 4 corners*
0 Add a 4 corners polygon primitive as box body*
4,1,4,$2,$3,$4,$5,$6,$7,$8,$9,$2,$3,0*
0 Add four circle primitives for the rounded corners*
1,1,$1+$1,$2,$3*
1,1,$1+$1,$4,$5*
1,1,$1+$1,$6,$7*
1,1,$1+$1,$8,$9*
0 Add four rect primitives between the rounded corners*
20,1,$1+$1,$2,$3,$4,$5,0*
20,1,$1+$1,$4,$5,$6,$7,0*
20,1,$1+$1,$6,$7,$8,$9,0*
20,1,$1+$1,$8,$9,$2,$3,0*%
%AMFreePoly0*
4,1,9,3.862500,-0.866500,0.737500,-0.866500,0.737500,-0.450000,-0.737500,-0.450000,-0.737500,0.450000,0.737500,0.450000,0.737500,0.866500,3.862500,0.866500,3.862500,-0.866500,3.862500,-0.866500,$1*%
G04 Aperture macros list end*
%TA.AperFunction,SMDPad,CuDef*%
%ADD10RoundRect,0.225000X0.225000X0.250000X-0.225000X0.250000X-0.225000X-0.250000X0.225000X-0.250000X0*%
%TD*%
%TA.AperFunction,SMDPad,CuDef*%
%ADD11R,0.740000X2.400000*%
%TD*%
%TA.AperFunction,SMDPad,CuDef*%
%ADD12RoundRect,0.218750X-0.218750X-0.256250X0.218750X-0.256250X0.218750X0.256250X-0.218750X0.256250X0*%
%TD*%
%TA.AperFunction,SMDPad,CuDef*%
%ADD13RoundRect,0.112500X-0.187500X-0.112500X0.187500X-0.112500X0.187500X0.112500X-0.187500X0.112500X0*%
%TD*%
%TA.AperFunction,SMDPad,CuDef*%
%ADD14RoundRect,0.135000X-0.135000X-0.185000X0.135000X-0.185000X0.135000X0.185000X-0.135000X0.185000X0*%
%TD*%
%TA.AperFunction,SMDPad,CuDef*%
%ADD15RoundRect,0.135000X0.135000X0.185000X-0.135000X0.185000X-0.135000X-0.185000X0.135000X-0.185000X0*%
%TD*%
%TA.AperFunction,ComponentPad*%
%ADD16C,1.900000*%
%TD*%
%TA.AperFunction,ComponentPad*%
%ADD17C,3.000000*%
%TD*%
%TA.AperFunction,SMDPad,CuDef*%
%ADD18RoundRect,0.140000X0.140000X0.170000X-0.140000X0.170000X-0.140000X-0.170000X0.140000X-0.170000X0*%
%TD*%
%TA.AperFunction,SMDPad,CuDef*%
%ADD19RoundRect,0.150000X-0.150000X0.512500X-0.150000X-0.512500X0.150000X-0.512500X0.150000X0.512500X0*%
%TD*%
%TA.AperFunction,SMDPad,CuDef*%
%ADD20R,3.500000X2.350000*%
%TD*%
%TA.AperFunction,ComponentPad*%
%ADD21C,5.700000*%
%TD*%
%TA.AperFunction,SMDPad,CuDef*%
%ADD22RoundRect,0.135000X-0.185000X0.135000X-0.185000X-0.135000X0.185000X-0.135000X0.185000X0.135000X0*%
%TD*%
%TA.AperFunction,SMDPad,CuDef*%
%ADD23RoundRect,0.250000X0.475000X-0.250000X0.475000X0.250000X-0.475000X0.250000X-0.475000X-0.250000X0*%
%TD*%
%TA.AperFunction,SMDPad,CuDef*%
%ADD24RoundRect,0.140000X-0.140000X-0.170000X0.140000X-0.170000X0.140000X0.170000X-0.140000X0.170000X0*%
%TD*%
%TA.AperFunction,SMDPad,CuDef*%
%ADD25RoundRect,0.225000X-0.225000X-0.250000X0.225000X-0.250000X0.225000X0.250000X-0.225000X0.250000X0*%
%TD*%
%TA.AperFunction,SMDPad,CuDef*%
%ADD26RoundRect,0.140000X0.170000X-0.140000X0.170000X0.140000X-0.170000X0.140000X-0.170000X-0.140000X0*%
%TD*%
%TA.AperFunction,SMDPad,CuDef*%
%ADD27RoundRect,0.147500X0.147500X0.172500X-0.147500X0.172500X-0.147500X-0.172500X0.147500X-0.172500X0*%
%TD*%
%TA.AperFunction,SMDPad,CuDef*%
%ADD28R,1.400000X1.200000*%
%TD*%
%TA.AperFunction,SMDPad,CuDef*%
%ADD29RoundRect,0.135000X0.185000X-0.135000X0.185000X0.135000X-0.185000X0.135000X-0.185000X-0.135000X0*%
%TD*%
%TA.AperFunction,SMDPad,CuDef*%
%ADD30RoundRect,0.112500X0.187500X0.112500X-0.187500X0.112500X-0.187500X-0.112500X0.187500X-0.112500X0*%
%TD*%
%TA.AperFunction,SMDPad,CuDef*%
%ADD31RoundRect,0.150000X0.512500X0.150000X-0.512500X0.150000X-0.512500X-0.150000X0.512500X-0.150000X0*%
%TD*%
%TA.AperFunction,SMDPad,CuDef*%
%ADD32R,0.600000X1.450000*%
%TD*%
%TA.AperFunction,SMDPad,CuDef*%
%ADD33R,0.300000X1.450000*%
%TD*%
%TA.AperFunction,ComponentPad*%
%ADD34O,1.000000X2.100000*%
%TD*%
%TA.AperFunction,ComponentPad*%
%ADD35O,1.000000X1.600000*%
%TD*%
%TA.AperFunction,SMDPad,CuDef*%
%ADD36RoundRect,0.250000X-0.250000X-0.475000X0.250000X-0.475000X0.250000X0.475000X-0.250000X0.475000X0*%
%TD*%
%TA.AperFunction,SMDPad,CuDef*%
%ADD37RoundRect,0.150000X-0.587500X-0.150000X0.587500X-0.150000X0.587500X0.150000X-0.587500X0.150000X0*%
%TD*%
%TA.AperFunction,SMDPad,CuDef*%
%ADD38RoundRect,0.140000X-0.170000X0.140000X-0.170000X-0.140000X0.170000X-0.140000X0.170000X0.140000X0*%
%TD*%
%TA.AperFunction,SMDPad,CuDef*%
%ADD39R,0.900000X1.300000*%
%TD*%
%TA.AperFunction,SMDPad,CuDef*%
%ADD40FreePoly0,90.000000*%
%TD*%
%TA.AperFunction,SMDPad,CuDef*%
%ADD41RoundRect,0.150000X-0.512500X-0.150000X0.512500X-0.150000X0.512500X0.150000X-0.512500X0.150000X0*%
%TD*%
%TA.AperFunction,SMDPad,CuDef*%
%ADD42RoundRect,0.075000X-0.662500X-0.075000X0.662500X-0.075000X0.662500X0.075000X-0.662500X0.075000X0*%
%TD*%
%TA.AperFunction,SMDPad,CuDef*%
%ADD43RoundRect,0.075000X-0.075000X-0.662500X0.075000X-0.662500X0.075000X0.662500X-0.075000X0.662500X0*%
%TD*%
%TA.AperFunction,SMDPad,CuDef*%
%ADD44R,1.000000X0.800000*%
%TD*%
%TA.AperFunction,SMDPad,CuDef*%
%ADD45RoundRect,0.150000X0.150000X-0.512500X0.150000X0.512500X-0.150000X0.512500X-0.150000X-0.512500X0*%
%TD*%
%TA.AperFunction,SMDPad,CuDef*%
%ADD46RoundRect,0.250000X0.450000X-0.262500X0.450000X0.262500X-0.450000X0.262500X-0.450000X-0.262500X0*%
%TD*%
%TA.AperFunction,SMDPad,CuDef*%
%ADD47RoundRect,0.225000X0.250000X-0.225000X0.250000X0.225000X-0.250000X0.225000X-0.250000X-0.225000X0*%
%TD*%
%TA.AperFunction,SMDPad,CuDef*%
%ADD48RoundRect,0.112500X0.112500X-0.187500X0.112500X0.187500X-0.112500X0.187500X-0.112500X-0.187500X0*%
%TD*%
%TA.AperFunction,SMDPad,CuDef*%
%ADD49RoundRect,0.250000X0.250000X0.475000X-0.250000X0.475000X-0.250000X-0.475000X0.250000X-0.475000X0*%
%TD*%
%TA.AperFunction,SMDPad,CuDef*%
%ADD50RoundRect,0.225000X-0.250000X0.225000X-0.250000X-0.225000X0.250000X-0.225000X0.250000X0.225000X0*%
%TD*%
%TA.AperFunction,SMDPad,CuDef*%
%ADD51R,1.450000X0.300000*%
%TD*%
%TA.AperFunction,SMDPad,CuDef*%
%ADD52RoundRect,0.250000X-0.475000X0.250000X-0.475000X-0.250000X0.475000X-0.250000X0.475000X0.250000X0*%
%TD*%
%TA.AperFunction,SMDPad,CuDef*%
%ADD53R,0.700000X1.200000*%
%TD*%
%TA.AperFunction,ViaPad*%
%ADD54C,0.700000*%
%TD*%
%TA.AperFunction,Conductor*%
%ADD55C,0.500000*%
%TD*%
%TA.AperFunction,Conductor*%
%ADD56C,0.300000*%
%TD*%
%TA.AperFunction,Conductor*%
%ADD57C,0.200000*%
%TD*%
G04 APERTURE END LIST*
D10*
%TO.P,C402,1*%
%TO.N,/DAC/DAC_VREF*%
X161500000Y-99000000D03*
%TO.P,C402,2*%
%TO.N,GND*%
X159950000Y-99000000D03*
%TD*%
D11*
%TO.P,J201,1,Pin_1*%
%TO.N,+3V3*%
X165540000Y-60050000D03*
%TO.P,J201,2,Pin_2*%
%TO.N,/MCU/CONN_SWDIO*%
X165540000Y-63950000D03*
%TO.P,J201,3,Pin_3*%
%TO.N,GND*%
X164270000Y-60050000D03*
%TO.P,J201,4,Pin_4*%
%TO.N,/MCU/CONN_SWCLK*%
X164270000Y-63950000D03*
%TO.P,J201,5,Pin_5*%
%TO.N,GND*%
X163000000Y-60050000D03*
%TO.P,J201,6,Pin_6*%
%TO.N,/MCU/CONN_SWO*%
X163000000Y-63950000D03*
%TO.P,J201,7,Pin_7*%
%TO.N,unconnected-(J201-Pin_7-Pad7)*%
X161730000Y-60050000D03*
%TO.P,J201,8,Pin_8*%
%TO.N,unconnected-(J201-Pin_8-Pad8)*%
X161730000Y-63950000D03*
%TO.P,J201,9,Pin_9*%
%TO.N,GND*%
X160460000Y-60050000D03*
%TO.P,J201,10,Pin_10*%
%TO.N,/MCU/CONN_NRST*%
X160460000Y-63950000D03*
%TD*%
D12*
%TO.P,D100,1,K*%
%TO.N,/Power/LED_PWR_K*%
X164212500Y-53750000D03*
%TO.P,D100,2,A*%
%TO.N,+3V3*%
X165787500Y-53750000D03*
%TD*%
D13*
%TO.P,D400,1,A1*%
%TO.N,/DAC/OUT*%
X159450000Y-112500000D03*
%TO.P,D400,2,A2*%
%TO.N,GND*%
X161550000Y-112500000D03*
%TD*%
D14*
%TO.P,R402,1*%
%TO.N,Net-(C403-Pad1)*%
X160500000Y-103000000D03*
%TO.P,R402,2*%
%TO.N,/DAC/DAC_OUT_A*%
X161520000Y-103000000D03*
%TD*%
D15*
%TO.P,R105,1*%
%TO.N,GND*%
X133010000Y-81500000D03*
%TO.P,R105,2*%
%TO.N,/Power/VREF*%
X131990000Y-81500000D03*
%TD*%
%TO.P,R102,1*%
%TO.N,GND*%
X130240000Y-62750000D03*
%TO.P,R102,2*%
%TO.N,/Power/BUCK_FB*%
X129220000Y-62750000D03*
%TD*%
D16*
%TO.P,J300,1,In*%
%TO.N,/ADC/IN*%
X136000000Y-117000000D03*
D17*
%TO.P,J300,2,Ext*%
%TO.N,GND*%
X141080000Y-122080000D03*
D16*
X138540000Y-117000000D03*
D17*
X130920000Y-122080000D03*
%TD*%
D18*
%TO.P,C314,1*%
%TO.N,+3V3*%
X135480000Y-94750000D03*
%TO.P,C314,2*%
%TO.N,GND*%
X134520000Y-94750000D03*
%TD*%
D19*
%TO.P,U201,1,I/O1*%
%TO.N,/MCU/USB_CONN_D-*%
X148450000Y-59725000D03*
%TO.P,U201,2,GND*%
%TO.N,GND*%
X147500000Y-59725000D03*
%TO.P,U201,3,I/O2*%
%TO.N,/MCU/USB_CONN_D+*%
X146550000Y-59725000D03*
%TO.P,U201,4,I/O2*%
%TO.N,/MCU/USB_CMC_D+*%
X146550000Y-62000000D03*
%TO.P,U201,5,VBUS*%
%TO.N,VBUS*%
X147500000Y-62000000D03*
%TO.P,U201,6,I/O1*%
%TO.N,/MCU/USB_CMC_D-*%
X148450000Y-62000000D03*
%TD*%
D20*
%TO.P,L101,1,1*%
%TO.N,/Power/BUCK_SW*%
X137000000Y-59975000D03*
%TO.P,L101,2,2*%
%TO.N,+3V3*%
X137000000Y-66025000D03*
%TD*%
D21*
%TO.P,H2,1,1*%
%TO.N,Earth_Protective*%
X124000000Y-126000000D03*
%TD*%
D22*
%TO.P,R206,1*%
%TO.N,/MCU/USB_CONN_CC2*%
X141500000Y-54240000D03*
%TO.P,R206,2*%
%TO.N,GND*%
X141500000Y-55260000D03*
%TD*%
D10*
%TO.P,C312,1*%
%TO.N,+3.3VA*%
X135775000Y-88750000D03*
%TO.P,C312,2*%
%TO.N,GND*%
X134225000Y-88750000D03*
%TD*%
D18*
%TO.P,C307,1*%
%TO.N,/ADC/ADC_IN+*%
X135980000Y-99000000D03*
%TO.P,C307,2*%
%TO.N,/ADC/ADC_IN-*%
X135020000Y-99000000D03*
%TD*%
D23*
%TO.P,C105,1*%
%TO.N,+3V3*%
X132000000Y-64950000D03*
%TO.P,C105,2*%
%TO.N,GND*%
X132000000Y-63050000D03*
%TD*%
D24*
%TO.P,C405,1*%
%TO.N,Net-(C405-Pad1)*%
X160500000Y-109000000D03*
%TO.P,C405,2*%
%TO.N,/DAC/OUT_AA_BUF_OUT*%
X161460000Y-109000000D03*
%TD*%
D25*
%TO.P,C309,1*%
%TO.N,/ADC/ADC_VREF_VIN*%
X129225000Y-86000000D03*
%TO.P,C309,2*%
%TO.N,GND*%
X130775000Y-86000000D03*
%TD*%
D18*
%TO.P,C401,1*%
%TO.N,+3V3*%
X161500000Y-97000000D03*
%TO.P,C401,2*%
%TO.N,GND*%
X160540000Y-97000000D03*
%TD*%
%TO.P,C313,1*%
%TO.N,+3.3VA*%
X135480000Y-90250000D03*
%TO.P,C313,2*%
%TO.N,GND*%
X134520000Y-90250000D03*
%TD*%
D23*
%TO.P,C107,1*%
%TO.N,/Power/VREF*%
X129500000Y-79950000D03*
%TO.P,C107,2*%
%TO.N,GND*%
X129500000Y-78050000D03*
%TD*%
D18*
%TO.P,C202,1*%
%TO.N,+3V3*%
X161340000Y-88500000D03*
%TO.P,C202,2*%
%TO.N,GND*%
X160380000Y-88500000D03*
%TD*%
D14*
%TO.P,R305,1*%
%TO.N,/ADC/IN_AA_BUF_IN*%
X134990000Y-103500000D03*
%TO.P,R305,2*%
%TO.N,Net-(C305-Pad1)*%
X136010000Y-103500000D03*
%TD*%
D26*
%TO.P,C302,1*%
%TO.N,+3.3VA*%
X130000000Y-107480000D03*
%TO.P,C302,2*%
%TO.N,GND*%
X130000000Y-106520000D03*
%TD*%
D27*
%TO.P,L200,1,1*%
%TO.N,VDDA*%
X150590000Y-85870000D03*
%TO.P,L200,2,2*%
%TO.N,+3V3*%
X149620000Y-85870000D03*
%TD*%
D28*
%TO.P,Y200,1,1*%
%TO.N,/MCU/HSE_IN*%
X148690000Y-77170000D03*
%TO.P,Y200,2,2*%
%TO.N,GND*%
X146490000Y-77170000D03*
%TO.P,Y200,3,3*%
%TO.N,/MCU/XTAL_IN*%
X146490000Y-78870000D03*
%TO.P,Y200,4,4*%
%TO.N,GND*%
X148690000Y-78870000D03*
%TD*%
D16*
%TO.P,J400,1,In*%
%TO.N,/DAC/OUT*%
X159000000Y-117000000D03*
D17*
%TO.P,J400,2,Ext*%
%TO.N,GND*%
X164080000Y-122080000D03*
D16*
X161540000Y-117000000D03*
D17*
X153920000Y-122080000D03*
%TD*%
D29*
%TO.P,R301,1*%
%TO.N,GND*%
X134500000Y-110510000D03*
%TO.P,R301,2*%
%TO.N,/ADC/IN_RF*%
X134500000Y-109490000D03*
%TD*%
D30*
%TO.P,D203,1,A1*%
%TO.N,/MCU/CONN_SWCLK*%
X162600000Y-67500000D03*
%TO.P,D203,2,A2*%
%TO.N,GND*%
X160500000Y-67500000D03*
%TD*%
D14*
%TO.P,R302,1*%
%TO.N,/ADC/IN_BUF*%
X129990000Y-98500000D03*
%TO.P,R302,2*%
%TO.N,/ADC/VCOM*%
X131010000Y-98500000D03*
%TD*%
D24*
%TO.P,C303,1*%
%TO.N,Net-(C303-Pad1)*%
X135020000Y-106500000D03*
%TO.P,C303,2*%
%TO.N,GND*%
X135980000Y-106500000D03*
%TD*%
%TO.P,C212,1*%
%TO.N,/MCU/NRST*%
X155020000Y-64000000D03*
%TO.P,C212,2*%
%TO.N,GND*%
X155980000Y-64000000D03*
%TD*%
D31*
%TO.P,U101,1,EN*%
%TO.N,+5V*%
X132137500Y-61225000D03*
%TO.P,U101,2,GND*%
%TO.N,GND*%
X132137500Y-60275000D03*
%TO.P,U101,3,SW*%
%TO.N,/Power/BUCK_SW*%
X132137500Y-59325000D03*
%TO.P,U101,4,VIN*%
%TO.N,+5V*%
X129862500Y-59325000D03*
%TO.P,U101,5,FB*%
%TO.N,/Power/BUCK_FB*%
X129862500Y-61225000D03*
%TD*%
D15*
%TO.P,R404,1*%
%TO.N,/DAC/OUT_AA_BUF_IN*%
X161500000Y-107500000D03*
%TO.P,R404,2*%
%TO.N,Net-(C405-Pad1)*%
X160480000Y-107500000D03*
%TD*%
D29*
%TO.P,R207,1*%
%TO.N,/MCU/TIM4_CH3*%
X157000000Y-58010000D03*
%TO.P,R207,2*%
%TO.N,/MCU/LED_R_K*%
X157000000Y-56990000D03*
%TD*%
%TO.P,R208,1*%
%TO.N,/MCU/TIM4_CH1*%
X154000000Y-58010000D03*
%TO.P,R208,2*%
%TO.N,/MCU/LED_G_K*%
X154000000Y-56990000D03*
%TD*%
D14*
%TO.P,R401,1*%
%TO.N,/DAC/DAC_OUT_B*%
X163000000Y-104250000D03*
%TO.P,R401,2*%
%TO.N,GND*%
X164020000Y-104250000D03*
%TD*%
D32*
%TO.P,J200,A1,GND*%
%TO.N,GND*%
X150750000Y-56545000D03*
%TO.P,J200,A4,VBUS*%
%TO.N,VBUS*%
X149950000Y-56545000D03*
D33*
%TO.P,J200,A5,CC1*%
%TO.N,/MCU/USB_CONN_CC1*%
X148750000Y-56545000D03*
%TO.P,J200,A6,D+*%
%TO.N,/MCU/USB_CONN_D+*%
X147750000Y-56545000D03*
%TO.P,J200,A7,D-*%
%TO.N,/MCU/USB_CONN_D-*%
X147250000Y-56545000D03*
%TO.P,J200,A8,SBU1*%
%TO.N,unconnected-(J200-SBU1-PadA8)*%
X146250000Y-56545000D03*
D32*
%TO.P,J200,A9,VBUS*%
%TO.N,VBUS*%
X145050000Y-56545000D03*
%TO.P,J200,A12,GND*%
%TO.N,GND*%
X144250000Y-56545000D03*
%TO.P,J200,B1,GND*%
X144250000Y-56545000D03*
%TO.P,J200,B4,VBUS*%
%TO.N,VBUS*%
X145050000Y-56545000D03*
D33*
%TO.P,J200,B5,CC2*%
%TO.N,/MCU/USB_CONN_CC2*%
X145750000Y-56545000D03*
%TO.P,J200,B6,D+*%
%TO.N,/MCU/USB_CONN_D+*%
X146750000Y-56545000D03*
%TO.P,J200,B7,D-*%
%TO.N,/MCU/USB_CONN_D-*%
X148250000Y-56545000D03*
%TO.P,J200,B8,SBU2*%
%TO.N,unconnected-(J200-SBU2-PadB8)*%
X149250000Y-56545000D03*
D32*
%TO.P,J200,B9,VBUS*%
%TO.N,VBUS*%
X149950000Y-56545000D03*
%TO.P,J200,B12,GND*%
%TO.N,GND*%
X150750000Y-56545000D03*
D34*
%TO.P,J200,S1,SHIELD*%
%TO.N,Earth_Protective*%
X151820000Y-55630000D03*
D35*
X151820000Y-51450000D03*
D34*
X143180000Y-55630000D03*
D35*
X143180000Y-51450000D03*
%TD*%
D15*
%TO.P,R201,1*%
%TO.N,/MCU/HSE_OUT*%
X147010000Y-81670000D03*
%TO.P,R201,2*%
%TO.N,/MCU/XTAL_IN*%
X145990000Y-81670000D03*
%TD*%
D29*
%TO.P,R210,1*%
%TO.N,/MCU/SWDIO*%
X166000000Y-71520000D03*
%TO.P,R210,2*%
%TO.N,/MCU/CONN_SWDIO*%
X166000000Y-70500000D03*
%TD*%
D22*
%TO.P,R400,1*%
%TO.N,SPI2_SCK*%
X164500000Y-95480000D03*
%TO.P,R400,2*%
%TO.N,/DAC/DAC_SCLK*%
X164500000Y-96500000D03*
%TD*%
D15*
%TO.P,R309,1*%
%TO.N,SPI1_SCK*%
X140010000Y-92500000D03*
%TO.P,R309,2*%
%TO.N,/ADC/ADC_SCLK*%
X138990000Y-92500000D03*
%TD*%
D36*
%TO.P,C104,1*%
%TO.N,+5V*%
X130050000Y-57275000D03*
%TO.P,C104,2*%
%TO.N,GND*%
X131950000Y-57275000D03*
%TD*%
D37*
%TO.P,U302,1,IN*%
%TO.N,/ADC/ADC_VREF_VIN*%
X130125000Y-88050000D03*
%TO.P,U302,2,OUT*%
%TO.N,/ADC/ADC_VREF*%
X130125000Y-89950000D03*
%TO.P,U302,3,GND*%
%TO.N,GND*%
X132000000Y-89000000D03*
%TD*%
D22*
%TO.P,R300,1*%
%TO.N,/ADC/IN_RF*%
X136000000Y-109490000D03*
%TO.P,R300,2*%
%TO.N,/ADC/IN*%
X136000000Y-110510000D03*
%TD*%
D10*
%TO.P,C310,1*%
%TO.N,/ADC/ADC_VREF*%
X130775000Y-92000000D03*
%TO.P,C310,2*%
%TO.N,GND*%
X129225000Y-92000000D03*
%TD*%
D15*
%TO.P,R306,1*%
%TO.N,/ADC/ADC_IN+*%
X136010000Y-100500000D03*
%TO.P,R306,2*%
%TO.N,/ADC/IN_AA_BUF_OUT*%
X134990000Y-100500000D03*
%TD*%
D38*
%TO.P,C211,1*%
%TO.N,+3V3*%
X157500000Y-54520000D03*
%TO.P,C211,2*%
%TO.N,GND*%
X157500000Y-55480000D03*
%TD*%
D24*
%TO.P,C209,1*%
%TO.N,/MCU/XTAL_IN*%
X145990000Y-80370000D03*
%TO.P,C209,2*%
%TO.N,GND*%
X146950000Y-80370000D03*
%TD*%
D39*
%TO.P,U100,1,GND*%
%TO.N,GND*%
X132000000Y-72450000D03*
D40*
%TO.P,U100,2,VIN*%
%TO.N,/Power/+5V_FILT*%
X133500000Y-72362500D03*
D39*
%TO.P,U100,3,VOUT*%
%TO.N,+3.3VA*%
X135000000Y-72450000D03*
%TD*%
D26*
%TO.P,C205,1*%
%TO.N,VDDA*%
X152500000Y-83980000D03*
%TO.P,C205,2*%
%TO.N,GND*%
X152500000Y-83020000D03*
%TD*%
D29*
%TO.P,R209,1*%
%TO.N,/MCU/TIM4_CH2*%
X155500000Y-58010000D03*
%TO.P,R209,2*%
%TO.N,/MCU/LED_B_K*%
X155500000Y-56990000D03*
%TD*%
D18*
%TO.P,C311,1*%
%TO.N,/ADC/ADC_VREF*%
X130980000Y-93500000D03*
%TO.P,C311,2*%
%TO.N,GND*%
X130020000Y-93500000D03*
%TD*%
D33*
%TO.P,U400,1,VOUT_A*%
%TO.N,/DAC/DAC_OUT_A*%
X163000000Y-102500000D03*
%TO.P,U400,2,VOUT_B*%
%TO.N,/DAC/DAC_OUT_B*%
X163500000Y-102500000D03*
%TO.P,U400,3,GND*%
%TO.N,GND*%
X164000000Y-102500000D03*
%TO.P,U400,4,NLDAC*%
%TO.N,DAC_NLDAC*%
X164500000Y-102500000D03*
%TO.P,U400,5,NCLR*%
%TO.N,DAC_NCLR*%
X165000000Y-102500000D03*
%TO.P,U400,6,NSYNC*%
%TO.N,SPI2_NSS*%
X165000000Y-98100000D03*
%TO.P,U400,7,SCLK*%
%TO.N,/DAC/DAC_SCLK*%
X164500000Y-98100000D03*
%TO.P,U400,8,DIN*%
%TO.N,SPI2_MOSI*%
X164000000Y-98100000D03*
%TO.P,U400,9,AVDD*%
%TO.N,+3V3*%
X163500000Y-98100000D03*
%TO.P,U400,10,VREFIN/VREFOUT*%
%TO.N,/DAC/DAC_VREF*%
X163000000Y-98100000D03*
%TD*%
D41*
%TO.P,U102,1*%
%TO.N,/Power/VCOM*%
X131862500Y-78050000D03*
%TO.P,U102,2,V-*%
%TO.N,GND*%
X131862500Y-79000000D03*
%TO.P,U102,3,+*%
%TO.N,/Power/VREF*%
X131862500Y-79950000D03*
%TO.P,U102,4,-*%
%TO.N,/Power/VCOM*%
X134137500Y-79950000D03*
%TO.P,U102,5,V+*%
%TO.N,+3.3VA*%
X134137500Y-78050000D03*
%TD*%
D18*
%TO.P,C406,1*%
%TO.N,+3.3VA*%
X164480000Y-111750000D03*
%TO.P,C406,2*%
%TO.N,GND*%
X163520000Y-111750000D03*
%TD*%
D30*
%TO.P,D201,1,A1*%
%TO.N,+3V3*%
X166050000Y-56500000D03*
%TO.P,D201,2,A2*%
%TO.N,GND*%
X163950000Y-56500000D03*
%TD*%
D24*
%TO.P,C404,1*%
%TO.N,/DAC/OUT_AA_BUF_IN*%
X163000000Y-106250000D03*
%TO.P,C404,2*%
%TO.N,GND*%
X163960000Y-106250000D03*
%TD*%
D13*
%TO.P,D300,1,A1*%
%TO.N,/ADC/IN*%
X135950000Y-112500000D03*
%TO.P,D300,2,A2*%
%TO.N,GND*%
X138050000Y-112500000D03*
%TD*%
D29*
%TO.P,R103,1*%
%TO.N,GND*%
X162500000Y-55520000D03*
%TO.P,R103,2*%
%TO.N,/Power/LED_PWR_K*%
X162500000Y-54500000D03*
%TD*%
D42*
%TO.P,U200,1,VBAT*%
%TO.N,+3V3*%
X154337500Y-79750000D03*
%TO.P,U200,2,PC13*%
%TO.N,unconnected-(U200-PC13-Pad2)*%
X154337500Y-80250000D03*
%TO.P,U200,3,PC14*%
%TO.N,unconnected-(U200-PC14-Pad3)*%
X154337500Y-80750000D03*
%TO.P,U200,4,PC15*%
%TO.N,unconnected-(U200-PC15-Pad4)*%
X154337500Y-81250000D03*
%TO.P,U200,5,PD0*%
%TO.N,/MCU/HSE_IN*%
X154337500Y-81750000D03*
%TO.P,U200,6,PD1*%
%TO.N,/MCU/HSE_OUT*%
X154337500Y-82250000D03*
%TO.P,U200,7,NRST*%
%TO.N,/MCU/NRST*%
X154337500Y-82750000D03*
%TO.P,U200,8,VSSA*%
%TO.N,GND*%
X154337500Y-83250000D03*
%TO.P,U200,9,VDDA*%
%TO.N,VDDA*%
X154337500Y-83750000D03*
%TO.P,U200,10,PA0*%
%TO.N,unconnected-(U200-PA0-Pad10)*%
X154337500Y-84250000D03*
%TO.P,U200,11,PA1*%
%TO.N,unconnected-(U200-PA1-Pad11)*%
X154337500Y-84750000D03*
%TO.P,U200,12,PA2*%
%TO.N,unconnected-(U200-PA2-Pad12)*%
X154337500Y-85250000D03*
D43*
%TO.P,U200,13,PA3*%
%TO.N,unconnected-(U200-PA3-Pad13)*%
X155750000Y-86662500D03*
%TO.P,U200,14,PA4*%
%TO.N,SPI1_NSS*%
X156250000Y-86662500D03*
%TO.P,U200,15,PA5*%
%TO.N,SPI1_SCK*%
X156750000Y-86662500D03*
%TO.P,U200,16,PA6*%
%TO.N,SPI1_MISO*%
X157250000Y-86662500D03*
%TO.P,U200,17,PA7*%
%TO.N,unconnected-(U200-PA7-Pad17)*%
X157750000Y-86662500D03*
%TO.P,U200,18,PB0*%
%TO.N,unconnected-(U200-PB0-Pad18)*%
X158250000Y-86662500D03*
%TO.P,U200,19,PB1*%
%TO.N,unconnected-(U200-PB1-Pad19)*%
X158750000Y-86662500D03*
%TO.P,U200,20,PB2*%
%TO.N,DAC_NCLR*%
X159250000Y-86662500D03*
%TO.P,U200,21,PB10*%
%TO.N,DAC_NLDAC*%
X159750000Y-86662500D03*
%TO.P,U200,22,PB11*%
%TO.N,unconnected-(U200-PB11-Pad22)*%
X160250000Y-86662500D03*
%TO.P,U200,23,VSS*%
%TO.N,GND*%
X160750000Y-86662500D03*
%TO.P,U200,24,VDD*%
%TO.N,+3V3*%
X161250000Y-86662500D03*
D42*
%TO.P,U200,25,PB12*%
%TO.N,SPI2_NSS*%
X162662500Y-85250000D03*
%TO.P,U200,26,PB13*%
%TO.N,SPI2_SCK*%
X162662500Y-84750000D03*
%TO.P,U200,27,PB14*%
%TO.N,unconnected-(U200-PB14-Pad27)*%
X162662500Y-84250000D03*
%TO.P,U200,28,PB15*%
%TO.N,SPI2_MOSI*%
X162662500Y-83750000D03*
%TO.P,U200,29,PA8*%
%TO.N,unconnected-(U200-PA8-Pad29)*%
X162662500Y-83250000D03*
%TO.P,U200,30,PA9*%
%TO.N,unconnected-(U200-PA9-Pad30)*%
X162662500Y-82750000D03*
%TO.P,U200,31,PA10*%
%TO.N,unconnected-(U200-PA10-Pad31)*%
X162662500Y-82250000D03*
%TO.P,U200,32,PA11*%
%TO.N,/MCU/USB_D-*%
X162662500Y-81750000D03*
%TO.P,U200,33,PA12*%
%TO.N,/MCU/USB_D+*%
X162662500Y-81250000D03*
%TO.P,U200,34,PA13*%
%TO.N,/MCU/SWDIO*%
X162662500Y-80750000D03*
%TO.P,U200,35,VSS*%
%TO.N,GND*%
X162662500Y-80250000D03*
%TO.P,U200,36,VDD*%
%TO.N,+3V3*%
X162662500Y-79750000D03*
D43*
%TO.P,U200,37,PA14*%
%TO.N,/MCU/SWCLK*%
X161250000Y-78337500D03*
%TO.P,U200,38,PA15*%
%TO.N,unconnected-(U200-PA15-Pad38)*%
X160750000Y-78337500D03*
%TO.P,U200,39,PB3*%
%TO.N,/MCU/SWO*%
X160250000Y-78337500D03*
%TO.P,U200,40,PB4*%
%TO.N,unconnected-(U200-PB4-Pad40)*%
X159750000Y-78337500D03*
%TO.P,U200,41,PB5*%
%TO.N,unconnected-(U200-PB5-Pad41)*%
X159250000Y-78337500D03*
%TO.P,U200,42,PB6*%
%TO.N,/MCU/TIM4_CH1*%
X158750000Y-78337500D03*
%TO.P,U200,43,PB7*%
%TO.N,/MCU/TIM4_CH2*%
X158250000Y-78337500D03*
%TO.P,U200,44,BOOT0*%
%TO.N,/MCU/BOOT0*%
X157750000Y-78337500D03*
%TO.P,U200,45,PB8*%
%TO.N,/MCU/TIM4_CH3*%
X157250000Y-78337500D03*
%TO.P,U200,46,PB9*%
%TO.N,unconnected-(U200-PB9-Pad46)*%
X156750000Y-78337500D03*
%TO.P,U200,47,VSS*%
%TO.N,GND*%
X156250000Y-78337500D03*
%TO.P,U200,48,VDD*%
%TO.N,+3V3*%
X155750000Y-78337500D03*
%TD*%
D19*
%TO.P,U401,1*%
%TO.N,/DAC/OUT_AA_BUF_OUT*%
X164950000Y-107862500D03*
%TO.P,U401,2,V-*%
%TO.N,GND*%
X164000000Y-107862500D03*
%TO.P,U401,3,+*%
%TO.N,/DAC/OUT_AA_BUF_IN*%
X163050000Y-107862500D03*
%TO.P,U401,4,-*%
%TO.N,/DAC/OUT_AA_BUF_OUT*%
X163050000Y-110137500D03*
%TO.P,U401,5,V+*%
%TO.N,+3.3VA*%
X164950000Y-110137500D03*
%TD*%
D44*
%TO.P,D200,1*%
%TO.N,/MCU/LED_G_K*%
X154250000Y-53950000D03*
%TO.P,D200,2*%
%TO.N,+3V3*%
X155750000Y-53950000D03*
%TO.P,D200,3*%
%TO.N,/MCU/LED_R_K*%
X155750000Y-55050000D03*
%TO.P,D200,4*%
%TO.N,/MCU/LED_B_K*%
X154250000Y-55050000D03*
%TD*%
D45*
%TO.P,U301,1*%
%TO.N,/ADC/IN_AA_BUF_OUT*%
X131550000Y-102637500D03*
%TO.P,U301,2,V-*%
%TO.N,GND*%
X132500000Y-102637500D03*
%TO.P,U301,3,+*%
%TO.N,/ADC/IN_AA_BUF_IN*%
X133450000Y-102637500D03*
%TO.P,U301,4,-*%
%TO.N,/ADC/IN_AA_BUF_OUT*%
X133450000Y-100362500D03*
%TO.P,U301,5,V+*%
%TO.N,+3.3VA*%
X131550000Y-100362500D03*
%TD*%
D46*
%TO.P,R100,1*%
%TO.N,/Power/+5V_FILT*%
X129500000Y-70050000D03*
%TO.P,R100,2*%
%TO.N,+5V*%
X129500000Y-68225000D03*
%TD*%
D15*
%TO.P,R303,1*%
%TO.N,Net-(C303-Pad1)*%
X136010000Y-108000000D03*
%TO.P,R303,2*%
%TO.N,/ADC/IN_BUF_OUT*%
X134990000Y-108000000D03*
%TD*%
D38*
%TO.P,C301,1*%
%TO.N,/ADC/IN_BUF*%
X131500000Y-109520000D03*
%TO.P,C301,2*%
%TO.N,/ADC/IN_RF*%
X131500000Y-110480000D03*
%TD*%
D30*
%TO.P,D204,1,A1*%
%TO.N,/MCU/CONN_SWO*%
X159000000Y-67500000D03*
%TO.P,D204,2,A2*%
%TO.N,GND*%
X156900000Y-67500000D03*
%TD*%
D18*
%TO.P,C106,1*%
%TO.N,+3V3*%
X130210000Y-65750000D03*
%TO.P,C106,2*%
%TO.N,/Power/BUCK_FB*%
X129250000Y-65750000D03*
%TD*%
D29*
%TO.P,R211,1*%
%TO.N,/MCU/SWCLK*%
X164500000Y-71520000D03*
%TO.P,R211,2*%
%TO.N,/MCU/CONN_SWCLK*%
X164500000Y-70500000D03*
%TD*%
D26*
%TO.P,C304,1*%
%TO.N,/ADC/IN_AA_BUF_IN*%
X130000000Y-103980000D03*
%TO.P,C304,2*%
%TO.N,GND*%
X130000000Y-103020000D03*
%TD*%
D10*
%TO.P,C315,1*%
%TO.N,+3V3*%
X135775000Y-96250000D03*
%TO.P,C315,2*%
%TO.N,GND*%
X134225000Y-96250000D03*
%TD*%
D38*
%TO.P,C306,1*%
%TO.N,+3.3VA*%
X130000000Y-100020000D03*
%TO.P,C306,2*%
%TO.N,GND*%
X130000000Y-100980000D03*
%TD*%
D47*
%TO.P,C207,1*%
%TO.N,+3V3*%
X149250000Y-84420000D03*
%TO.P,C207,2*%
%TO.N,GND*%
X149250000Y-82870000D03*
%TD*%
D21*
%TO.P,H4,1,1*%
%TO.N,Earth_Protective*%
X124000000Y-54000000D03*
%TD*%
%TO.P,H3,1,1*%
%TO.N,Earth_Protective*%
X171000000Y-126000000D03*
%TD*%
D14*
%TO.P,R403,1*%
%TO.N,Net-(C405-Pad1)*%
X160480000Y-106000000D03*
%TO.P,R403,2*%
%TO.N,Net-(C403-Pad1)*%
X161500000Y-106000000D03*
%TD*%
D15*
%TO.P,R304,1*%
%TO.N,Net-(C305-Pad1)*%
X136010000Y-105000000D03*
%TO.P,R304,2*%
%TO.N,Net-(C303-Pad1)*%
X134990000Y-105000000D03*
%TD*%
D24*
%TO.P,C204,1*%
%TO.N,+3V3*%
X155520000Y-76620000D03*
%TO.P,C204,2*%
%TO.N,GND*%
X156480000Y-76620000D03*
%TD*%
D14*
%TO.P,R308,1*%
%TO.N,/ADC/ADC_VREF_VIN*%
X129990000Y-84500000D03*
%TO.P,R308,2*%
%TO.N,+5V*%
X131010000Y-84500000D03*
%TD*%
%TO.P,R101,1*%
%TO.N,/Power/BUCK_FB*%
X129220000Y-64250000D03*
%TO.P,R101,2*%
%TO.N,+3V3*%
X130240000Y-64250000D03*
%TD*%
%TO.P,R405,1*%
%TO.N,/DAC/OUT*%
X160480000Y-110500000D03*
%TO.P,R405,2*%
%TO.N,/DAC/OUT_AA_BUF_OUT*%
X161500000Y-110500000D03*
%TD*%
D48*
%TO.P,D205,1,A1*%
%TO.N,/MCU/CONN_NRST*%
X158000000Y-65600000D03*
%TO.P,D205,2,A2*%
%TO.N,GND*%
X158000000Y-63500000D03*
%TD*%
D13*
%TO.P,D202,1,A1*%
%TO.N,/MCU/CONN_SWDIO*%
X164000000Y-67500000D03*
%TO.P,D202,2,A2*%
%TO.N,GND*%
X166100000Y-67500000D03*
%TD*%
D19*
%TO.P,U300,1*%
%TO.N,/ADC/IN_BUF_OUT*%
X133450000Y-105362500D03*
%TO.P,U300,2,V-*%
%TO.N,GND*%
X132500000Y-105362500D03*
%TO.P,U300,3,+*%
%TO.N,/ADC/IN_BUF*%
X131550000Y-105362500D03*
%TO.P,U300,4,-*%
%TO.N,/ADC/IN_BUF_OUT*%
X131550000Y-107637500D03*
%TO.P,U300,5,V+*%
%TO.N,+3.3VA*%
X133450000Y-107637500D03*
%TD*%
D47*
%TO.P,C206,1*%
%TO.N,VDDA*%
X151000000Y-84420000D03*
%TO.P,C206,2*%
%TO.N,GND*%
X151000000Y-82870000D03*
%TD*%
D38*
%TO.P,C203,1*%
%TO.N,+3V3*%
X164500000Y-79520000D03*
%TO.P,C203,2*%
%TO.N,GND*%
X164500000Y-80480000D03*
%TD*%
D49*
%TO.P,C103,1*%
%TO.N,+3.3VA*%
X134450000Y-74500000D03*
%TO.P,C103,2*%
%TO.N,GND*%
X132550000Y-74500000D03*
%TD*%
D22*
%TO.P,R205,1*%
%TO.N,/MCU/USB_CONN_CC1*%
X140250000Y-54240000D03*
%TO.P,R205,2*%
%TO.N,GND*%
X140250000Y-55260000D03*
%TD*%
D38*
%TO.P,C300,1*%
%TO.N,/ADC/IN_RF*%
X133000000Y-109520000D03*
%TO.P,C300,2*%
%TO.N,GND*%
X133000000Y-110480000D03*
%TD*%
D18*
%TO.P,C108,1*%
%TO.N,+3.3VA*%
X130980000Y-75500000D03*
%TO.P,C108,2*%
%TO.N,GND*%
X130020000Y-75500000D03*
%TD*%
D14*
%TO.P,R203,1*%
%TO.N,+3V3*%
X154990000Y-88500000D03*
%TO.P,R203,2*%
%TO.N,SPI1_NSS*%
X156010000Y-88500000D03*
%TD*%
D24*
%TO.P,C403,1*%
%TO.N,Net-(C403-Pad1)*%
X160520000Y-104500000D03*
%TO.P,C403,2*%
%TO.N,GND*%
X161480000Y-104500000D03*
%TD*%
D50*
%TO.P,C308,1*%
%TO.N,+5V*%
X132500000Y-84500000D03*
%TO.P,C308,2*%
%TO.N,GND*%
X132500000Y-86050000D03*
%TD*%
D38*
%TO.P,C210,1*%
%TO.N,VBUS*%
X145000000Y-59270000D03*
%TO.P,C210,2*%
%TO.N,GND*%
X145000000Y-60230000D03*
%TD*%
D14*
%TO.P,R104,1*%
%TO.N,/Power/VREF*%
X128990000Y-81500000D03*
%TO.P,R104,2*%
%TO.N,+3.3VA*%
X130010000Y-81500000D03*
%TD*%
D22*
%TO.P,R204,1*%
%TO.N,+3V3*%
X166000000Y-79490000D03*
%TO.P,R204,2*%
%TO.N,/MCU/USB_D+*%
X166000000Y-80510000D03*
%TD*%
D50*
%TO.P,C100,1*%
%TO.N,VBUS*%
X135000000Y-55000000D03*
%TO.P,C100,2*%
%TO.N,GND*%
X135000000Y-56550000D03*
%TD*%
D47*
%TO.P,C200,1*%
%TO.N,+3V3*%
X151000000Y-80025000D03*
%TO.P,C200,2*%
%TO.N,GND*%
X151000000Y-78475000D03*
%TD*%
D15*
%TO.P,R307,1*%
%TO.N,/ADC/ADC_IN-*%
X133510000Y-98500000D03*
%TO.P,R307,2*%
%TO.N,/ADC/VCOM*%
X132490000Y-98500000D03*
%TD*%
D21*
%TO.P,H1,1,1*%
%TO.N,Earth_Protective*%
X171000000Y-54000000D03*
%TD*%
D29*
%TO.P,R202,1*%
%TO.N,+3V3*%
X164500000Y-86510000D03*
%TO.P,R202,2*%
%TO.N,SPI2_NSS*%
X164500000Y-85490000D03*
%TD*%
D27*
%TO.P,L100,1,1*%
%TO.N,VBUS*%
X133485000Y-55000000D03*
%TO.P,L100,2,2*%
%TO.N,+5V*%
X132515000Y-55000000D03*
%TD*%
D29*
%TO.P,R212,1*%
%TO.N,/MCU/SWO*%
X163000000Y-71520000D03*
%TO.P,R212,2*%
%TO.N,/MCU/CONN_SWO*%
X163000000Y-70500000D03*
%TD*%
D51*
%TO.P,U303,1,VREF*%
%TO.N,/ADC/ADC_VREF*%
X132800000Y-91500000D03*
%TO.P,U303,2,+IN*%
%TO.N,/ADC/ADC_IN+*%
X132800000Y-92000000D03*
%TO.P,U303,3,-IN*%
%TO.N,/ADC/ADC_IN-*%
X132800000Y-92500000D03*
%TO.P,U303,4,GND*%
%TO.N,GND*%
X132800000Y-93000000D03*
%TO.P,U303,5,GND*%
X132800000Y-93500000D03*
%TO.P,U303,6,NCS*%
%TO.N,SPI1_NSS*%
X137200000Y-93500000D03*
%TO.P,U303,7,DOUT*%
%TO.N,SPI1_MISO*%
X137200000Y-93000000D03*
%TO.P,U303,8,SCLK*%
%TO.N,/ADC/ADC_SCLK*%
X137200000Y-92500000D03*
%TO.P,U303,9,VIO*%
%TO.N,+3V3*%
X137200000Y-92000000D03*
%TO.P,U303,10,VA*%
%TO.N,+3.3VA*%
X137200000Y-91500000D03*
%TD*%
D10*
%TO.P,C400,1*%
%TO.N,+3V3*%
X161500000Y-101000000D03*
%TO.P,C400,2*%
%TO.N,GND*%
X159950000Y-101000000D03*
%TD*%
D29*
%TO.P,R200,1*%
%TO.N,/MCU/BOOT0*%
X157750000Y-76510000D03*
%TO.P,R200,2*%
%TO.N,GND*%
X157750000Y-75490000D03*
%TD*%
D14*
%TO.P,R213,1*%
%TO.N,/MCU/NRST*%
X154990000Y-65500000D03*
%TO.P,R213,2*%
%TO.N,/MCU/CONN_NRST*%
X156010000Y-65500000D03*
%TD*%
D18*
%TO.P,C208,1*%
%TO.N,/MCU/HSE_IN*%
X148990000Y-80370000D03*
%TO.P,C208,2*%
%TO.N,GND*%
X148030000Y-80370000D03*
%TD*%
%TO.P,C305,1*%
%TO.N,Net-(C305-Pad1)*%
X135980000Y-102000000D03*
%TO.P,C305,2*%
%TO.N,/ADC/IN_AA_BUF_OUT*%
X135020000Y-102000000D03*
%TD*%
D52*
%TO.P,C102,1*%
%TO.N,/Power/+5V_FILT*%
X129500000Y-72050000D03*
%TO.P,C102,2*%
%TO.N,GND*%
X129500000Y-73950000D03*
%TD*%
D47*
%TO.P,C101,1*%
%TO.N,+5V*%
X131000000Y-55000000D03*
%TO.P,C101,2*%
%TO.N,GND*%
X131000000Y-53450000D03*
%TD*%
D53*
%TO.P,L201,1,1*%
%TO.N,/MCU/USB_CMC_D-*%
X148050000Y-64037500D03*
%TO.P,L201,2,2*%
%TO.N,/MCU/USB_CMC_D+*%
X146950000Y-64037500D03*
%TO.P,L201,3,3*%
%TO.N,/MCU/USB_D+*%
X146950000Y-66687500D03*
%TO.P,L201,4,4*%
%TO.N,/MCU/USB_D-*%
X148050000Y-66687500D03*
%TD*%
D26*
%TO.P,C201,1*%
%TO.N,+3V3*%
X152500000Y-79730000D03*
%TO.P,C201,2*%
%TO.N,GND*%
X152500000Y-78770000D03*
%TD*%
D54*
%TO.N,GND*%
X133000000Y-62250000D03*
X134250000Y-61750000D03*
X144950000Y-83325000D03*
X129000000Y-77000000D03*
X164950000Y-118325000D03*
X134250000Y-63750000D03*
X129950000Y-128325000D03*
X158750000Y-81250000D03*
X169950000Y-63325000D03*
X149500000Y-108500000D03*
X144950000Y-98325000D03*
X132250000Y-90250000D03*
X144950000Y-68325000D03*
X152500000Y-57000000D03*
X160500000Y-97750000D03*
X159000000Y-88750000D03*
X134791639Y-97909481D03*
X151000000Y-58500000D03*
X164000000Y-93250000D03*
X133500000Y-57750000D03*
X139950000Y-103325000D03*
X156750000Y-75750000D03*
X164000000Y-105250000D03*
X159500000Y-57000000D03*
X133750000Y-110500000D03*
X158000000Y-64500000D03*
X153500000Y-78750000D03*
X153500000Y-90500000D03*
X144950000Y-63325000D03*
X154129304Y-63390666D03*
X124950000Y-93325000D03*
X149950000Y-113325000D03*
X169950000Y-83325000D03*
X139950000Y-113325000D03*
X134950000Y-53325000D03*
X124950000Y-108325000D03*
X124950000Y-73325000D03*
X166000000Y-103750000D03*
X165784606Y-97853817D03*
X135000000Y-57750000D03*
X163671611Y-109105309D03*
X161250000Y-80250000D03*
X169950000Y-118325000D03*
X158000000Y-67500000D03*
X148000000Y-83500000D03*
X124950000Y-63325000D03*
X144950000Y-88325000D03*
X141500000Y-57500000D03*
X134250000Y-87750000D03*
X132000000Y-88250000D03*
X169950000Y-73325000D03*
X152000000Y-61500000D03*
X141250000Y-99750000D03*
X139950000Y-63325000D03*
X161500000Y-55500000D03*
X137250000Y-77250000D03*
X169950000Y-103325000D03*
X169950000Y-88325000D03*
X169950000Y-113325000D03*
X160500000Y-112500000D03*
X137000000Y-98000000D03*
X163000000Y-58250000D03*
X145000000Y-96750000D03*
X129000000Y-93250000D03*
X142250000Y-93750000D03*
X134950000Y-128325000D03*
X159950000Y-128325000D03*
X149950000Y-128325000D03*
X149950000Y-118325000D03*
X132250000Y-53000000D03*
X142500000Y-58470000D03*
X124950000Y-118325000D03*
X132760010Y-101506250D03*
X131500000Y-87000000D03*
X164950000Y-113325000D03*
X133750000Y-95000000D03*
X155750000Y-83250000D03*
X151750000Y-57750000D03*
X160000000Y-81500000D03*
X124950000Y-98325000D03*
X153250000Y-77750000D03*
X160000000Y-100000000D03*
X163750000Y-100250000D03*
X159750000Y-92000000D03*
X145000000Y-76750000D03*
X134950000Y-123325000D03*
X164950000Y-128325000D03*
X159950000Y-123325000D03*
X124950000Y-103325000D03*
X129950000Y-118325000D03*
X137250000Y-83250000D03*
X143250000Y-57750000D03*
X140250000Y-56250000D03*
X164250000Y-58250000D03*
X149950000Y-73325000D03*
X145000000Y-61000000D03*
X166250000Y-72500000D03*
X156500000Y-84250000D03*
X154950000Y-113325000D03*
X129000000Y-91000000D03*
X133500000Y-90250000D03*
X169950000Y-98325000D03*
X130000000Y-102000000D03*
X154750000Y-98325000D03*
X124950000Y-78325000D03*
X139950000Y-128325000D03*
X131000000Y-74500000D03*
X169950000Y-108325000D03*
X156250000Y-79750000D03*
X142500000Y-57000000D03*
X160450000Y-89500000D03*
X124950000Y-88325000D03*
X161500000Y-67500000D03*
X132999591Y-79480444D03*
X165130000Y-80462110D03*
X130750000Y-79000000D03*
X151750000Y-77750000D03*
X163750000Y-73250000D03*
X150000000Y-65250000D03*
X158500000Y-55500000D03*
X131000000Y-73500000D03*
X152250000Y-74500000D03*
X146250000Y-105250000D03*
X133500000Y-56500000D03*
X156250000Y-63000000D03*
X130000000Y-105700000D03*
X157750000Y-80500000D03*
X155000000Y-93250000D03*
X169950000Y-78325000D03*
X144950000Y-118325000D03*
X148000000Y-81080707D03*
X162230000Y-105250000D03*
X154950000Y-103325000D03*
X124950000Y-113325000D03*
X144950000Y-113325000D03*
X154950000Y-118325000D03*
X144000000Y-58470000D03*
X162750000Y-111750000D03*
X144950000Y-123325000D03*
X160500000Y-58250000D03*
X124950000Y-68325000D03*
X163000000Y-56500000D03*
X153250000Y-71750000D03*
X169950000Y-93325000D03*
X154950000Y-108325000D03*
X133000000Y-94250000D03*
X145000000Y-77750000D03*
X154950000Y-128325000D03*
X152500000Y-58500000D03*
X136750000Y-107000000D03*
X148000000Y-82500000D03*
X147500000Y-58250000D03*
X136750000Y-69750000D03*
X169950000Y-68325000D03*
X149950000Y-123325000D03*
X163646767Y-86223238D03*
X165250000Y-67500000D03*
X162044974Y-72444977D03*
X129950000Y-113325000D03*
X149950000Y-98325000D03*
X132185560Y-106578381D03*
X129000000Y-75000000D03*
X124950000Y-83325000D03*
X137000000Y-112500000D03*
X144950000Y-128325000D03*
X134250000Y-62750000D03*
%TO.N,+3.3VA*%
X130750000Y-108500000D03*
X133750000Y-76500000D03*
X164950000Y-111280000D03*
X132000000Y-75750000D03*
X132500000Y-108500000D03*
X134750000Y-77250000D03*
X136250000Y-89750000D03*
X132500000Y-99500000D03*
X136750000Y-90750000D03*
X134750000Y-75750000D03*
X131000000Y-81500000D03*
X130750000Y-100000000D03*
%TO.N,+3V3*%
X136750000Y-95250000D03*
X165500000Y-61750000D03*
X165750000Y-58250000D03*
X148750000Y-85750000D03*
X162250000Y-87250000D03*
X152000000Y-80470000D03*
X139750000Y-67000000D03*
X134250000Y-65000000D03*
X139750000Y-66000000D03*
X134250000Y-67000000D03*
X133000000Y-66500000D03*
X165750000Y-55000000D03*
X134250000Y-66000000D03*
X162250000Y-88500000D03*
X165250000Y-79500000D03*
X135500000Y-92000000D03*
X136750000Y-96250000D03*
X130750000Y-66500000D03*
X155300000Y-75750000D03*
X139750000Y-65000000D03*
%TO.N,/MCU/NRST*%
X153250000Y-74500000D03*
X154000000Y-72250000D03*
%TO.N,/ADC/ADC_IN+*%
X134516662Y-92204838D03*
X136000000Y-98000000D03*
%TO.N,/ADC/ADC_IN-*%
X134463810Y-93103288D03*
X133500000Y-97500000D03*
%TO.N,SPI2_NSS*%
X165500000Y-97000000D03*
X162747165Y-86250085D03*
%TO.N,SPI1_NSS*%
X144500000Y-96000000D03*
X153500000Y-89500000D03*
%TO.N,/MCU/TIM4_CH3*%
X157000000Y-62500000D03*
X157250000Y-79750000D03*
%TO.N,/MCU/TIM4_CH1*%
X159250000Y-79750000D03*
X154000000Y-62500000D03*
%TO.N,/MCU/TIM4_CH2*%
X155500000Y-62500000D03*
X158250000Y-79750000D03*
%TO.N,/MCU/SWDIO*%
X161000000Y-81500000D03*
X165250000Y-72250000D03*
%TO.N,/MCU/SWCLK*%
X160500000Y-80750000D03*
X163750000Y-72250000D03*
%TO.N,/MCU/SWO*%
X162000000Y-71500000D03*
X159534606Y-80603817D03*
%TO.N,SPI1_MISO*%
X157250000Y-85000000D03*
X141750000Y-94500000D03*
%TO.N,DAC_NCLR*%
X165000000Y-103750000D03*
X158250000Y-88250000D03*
%TO.N,DAC_NLDAC*%
X164554987Y-100652493D03*
X159750000Y-91000000D03*
%TO.N,Earth_Protective*%
X172450000Y-95825000D03*
X129000000Y-51000000D03*
X138000000Y-51000000D03*
X132000000Y-51000000D03*
X150000000Y-51000000D03*
X172450000Y-108325000D03*
X122450000Y-118325000D03*
X122450000Y-80825000D03*
X172450000Y-120825000D03*
X172450000Y-78325000D03*
X172450000Y-118325000D03*
X122450000Y-110825000D03*
X122450000Y-98325000D03*
X172450000Y-85825000D03*
X172450000Y-58325000D03*
X135000000Y-51000000D03*
X122450000Y-73325000D03*
X122450000Y-115825000D03*
X166000000Y-51000000D03*
X122450000Y-88325000D03*
X169950000Y-120825000D03*
X122450000Y-85825000D03*
X122450000Y-65825000D03*
X172450000Y-80825000D03*
X172450000Y-93325000D03*
X122450000Y-113325000D03*
X167500000Y-123400000D03*
X172450000Y-75825000D03*
X141000000Y-51000000D03*
X122450000Y-105825000D03*
X172450000Y-60825000D03*
X172450000Y-113325000D03*
X127500000Y-56500000D03*
X172450000Y-73325000D03*
X172450000Y-110825000D03*
X167500000Y-128300000D03*
X124950000Y-58325000D03*
X122450000Y-83325000D03*
X122450000Y-70825000D03*
X122450000Y-90825000D03*
X122450000Y-95825000D03*
X172450000Y-63325000D03*
X172450000Y-103325000D03*
X122450000Y-58325000D03*
X122450000Y-75825000D03*
X169950000Y-58325000D03*
X157000000Y-51000000D03*
X122450000Y-108325000D03*
X160000000Y-51000000D03*
X172450000Y-90825000D03*
X122450000Y-103325000D03*
X122450000Y-120825000D03*
X172450000Y-65825000D03*
X172450000Y-88325000D03*
X172450000Y-83325000D03*
X172450000Y-68325000D03*
X124950000Y-120825000D03*
X122450000Y-93325000D03*
X127450000Y-123325000D03*
X122450000Y-60825000D03*
X172450000Y-115825000D03*
X145000000Y-51000000D03*
X172450000Y-105825000D03*
X172450000Y-70825000D03*
X172450000Y-100825000D03*
X127450000Y-128325000D03*
X167500000Y-56500000D03*
X122450000Y-78325000D03*
X122450000Y-63325000D03*
X172450000Y-98325000D03*
X122450000Y-68325000D03*
X163000000Y-51000000D03*
X154000000Y-51000000D03*
X122450000Y-100825000D03*
%TD*%
D55*
%TO.N,VBUS*%
X149950000Y-59740184D02*
X148852684Y-60837500D01*
X145000000Y-59270000D02*
X145309999Y-59270000D01*
X148000001Y-60837500D02*
X147500000Y-61337501D01*
X146147316Y-60837500D02*
X146902684Y-60837500D01*
X146902684Y-60837500D02*
X147500000Y-61434816D01*
X145760000Y-59720001D02*
X145760000Y-60450184D01*
X145000000Y-59270000D02*
X145050000Y-59220000D01*
X145309999Y-59270000D02*
X145760000Y-59720001D01*
X147500000Y-61434816D02*
X147500000Y-62000000D01*
X145760000Y-60450184D02*
X146147316Y-60837500D01*
X149950000Y-56545000D02*
X149950000Y-59740184D01*
X148852684Y-60837500D02*
X148000001Y-60837500D01*
X145000000Y-56595000D02*
X145050000Y-56545000D01*
X147500000Y-61337501D02*
X147500000Y-62000000D01*
%TO.N,GND*%
X133000000Y-110500000D02*
X133010000Y-110510000D01*
X132760010Y-101714991D02*
X132500000Y-101975001D01*
X157500000Y-64000000D02*
X155980000Y-64000000D01*
D56*
X154337500Y-83250000D02*
X155750000Y-83250000D01*
D55*
X166100000Y-67500000D02*
X165250000Y-67500000D01*
D56*
X162662500Y-80250000D02*
X161250000Y-80250000D01*
X151150000Y-83020000D02*
X151000000Y-82870000D01*
D55*
X130000000Y-105700000D02*
X130000000Y-106520000D01*
X132999591Y-79480444D02*
X133010000Y-79490853D01*
D56*
X162662500Y-80250000D02*
X164270000Y-80250000D01*
D55*
X160380000Y-88500000D02*
X160380000Y-89430000D01*
X160380000Y-89430000D02*
X160450000Y-89500000D01*
X133010000Y-110510000D02*
X133740000Y-110510000D01*
D56*
X156250000Y-76850000D02*
X156480000Y-76620000D01*
D55*
X133010000Y-79490853D02*
X133010000Y-81500000D01*
X130000000Y-100980000D02*
X130000000Y-102000000D01*
X132500000Y-106263941D02*
X132500000Y-105362500D01*
X132999591Y-79480444D02*
X132999591Y-79474592D01*
X157010000Y-75490000D02*
X156750000Y-75750000D01*
D56*
X152730000Y-83250000D02*
X152500000Y-83020000D01*
D55*
X161550000Y-112500000D02*
X160500000Y-112500000D01*
D56*
X154337500Y-83250000D02*
X152730000Y-83250000D01*
X160750000Y-88130000D02*
X160750000Y-86662500D01*
D55*
X158000000Y-64500000D02*
X157500000Y-64000000D01*
X148030000Y-81050707D02*
X148030000Y-80370000D01*
X133750000Y-110500000D02*
X133760000Y-110510000D01*
X130000000Y-106520000D02*
X132127179Y-106520000D01*
X135980000Y-106500000D02*
X136250000Y-106500000D01*
X148000000Y-81080707D02*
X148030000Y-81050707D01*
X133740000Y-110510000D02*
X133750000Y-110500000D01*
X163520000Y-111750000D02*
X162750000Y-111750000D01*
X160500000Y-67500000D02*
X161500000Y-67500000D01*
X141500000Y-57500000D02*
X141500000Y-55260000D01*
X164000000Y-107862500D02*
X164000000Y-108776920D01*
X133760000Y-110510000D02*
X134500000Y-110510000D01*
X136250000Y-106500000D02*
X136750000Y-107000000D01*
X163960000Y-105290000D02*
X164000000Y-105250000D01*
X132500000Y-101975001D02*
X132500000Y-102637500D01*
X132250000Y-53000000D02*
X131800000Y-53450000D01*
D56*
X156250000Y-78337500D02*
X156250000Y-76850000D01*
D55*
X132999591Y-79474592D02*
X132524999Y-79000000D01*
X145000000Y-60230000D02*
X145000000Y-61000000D01*
X131800000Y-53450000D02*
X131000000Y-53450000D01*
X130000000Y-103020000D02*
X130000000Y-102000000D01*
X165130000Y-80462110D02*
X165112110Y-80480000D01*
D56*
X160380000Y-88500000D02*
X160750000Y-88130000D01*
D55*
X164000000Y-106290000D02*
X163960000Y-106250000D01*
X147500000Y-59725000D02*
X147500000Y-58250000D01*
X133000000Y-110480000D02*
X133000000Y-110500000D01*
X132524999Y-79000000D02*
X131862500Y-79000000D01*
X165112110Y-80480000D02*
X164500000Y-80480000D01*
X132185560Y-106578381D02*
X132500000Y-106263941D01*
X140250000Y-56250000D02*
X140250000Y-55260000D01*
X156480000Y-76020000D02*
X156750000Y-75750000D01*
X157750000Y-75490000D02*
X157010000Y-75490000D01*
X138050000Y-112500000D02*
X137000000Y-112500000D01*
X156480000Y-76620000D02*
X156480000Y-76020000D01*
X132760010Y-101506250D02*
X132760010Y-101714991D01*
D56*
X164270000Y-80250000D02*
X164500000Y-80480000D01*
D55*
X164000000Y-108776920D02*
X163671611Y-109105309D01*
X132127179Y-106520000D02*
X132185560Y-106578381D01*
X158000000Y-64500000D02*
X158000000Y-63500000D01*
X158000000Y-67500000D02*
X156900000Y-67500000D01*
D56*
X156250000Y-78337500D02*
X156250000Y-79750000D01*
D55*
%TO.N,+5V*%
X132515000Y-55000000D02*
X131000000Y-55000000D01*
X130225000Y-57100000D02*
X130050000Y-57275000D01*
X130050000Y-59137500D02*
X129862500Y-59325000D01*
X129862500Y-59387500D02*
X129862500Y-59325000D01*
%TO.N,/Power/+5V_FILT*%
X133500000Y-71950000D02*
X133500000Y-72362500D01*
%TO.N,+3.3VA*%
X130750000Y-100000000D02*
X130770000Y-100020000D01*
X132500000Y-108500000D02*
X132587500Y-108500000D01*
D56*
X137200000Y-91500000D02*
X136750000Y-91500000D01*
D55*
X130000000Y-100020000D02*
X130730000Y-100020000D01*
X131637500Y-100362500D02*
X132500000Y-99500000D01*
X131207500Y-100020000D02*
X131550000Y-100362500D01*
D56*
X135480000Y-88795000D02*
X135775000Y-88500000D01*
D55*
X132500000Y-108587500D02*
X132500000Y-108500000D01*
X130000000Y-107750000D02*
X130000000Y-107480000D01*
X132337500Y-108750000D02*
X132500000Y-108587500D01*
X131000000Y-108750000D02*
X132337500Y-108750000D01*
X164950000Y-111280000D02*
X164950000Y-110137500D01*
X131550000Y-100362500D02*
X131637500Y-100362500D01*
X130730000Y-100020000D02*
X130750000Y-100000000D01*
X130750000Y-108500000D02*
X131000000Y-108750000D01*
X130770000Y-100020000D02*
X131207500Y-100020000D01*
X164480000Y-111750000D02*
X164950000Y-111280000D01*
X130750000Y-108500000D02*
X130000000Y-107750000D01*
X132587500Y-108500000D02*
X133450000Y-107637500D01*
X130010000Y-81500000D02*
X131000000Y-81500000D01*
D56*
%TO.N,+3V3*%
X161500000Y-101000000D02*
X163500000Y-99000000D01*
D55*
X165250000Y-79500000D02*
X165230000Y-79520000D01*
D56*
X161250000Y-88410000D02*
X161250000Y-86662500D01*
D55*
X161340000Y-96840000D02*
X161500000Y-97000000D01*
X155300000Y-75750000D02*
X155520000Y-75970000D01*
X164500000Y-87250000D02*
X162250000Y-87250000D01*
D56*
X163500000Y-99000000D02*
X163500000Y-98100000D01*
X162662500Y-79750000D02*
X164270000Y-79750000D01*
X163475000Y-97000000D02*
X161500000Y-97000000D01*
D55*
X161340000Y-88500000D02*
X161340000Y-96840000D01*
X165750000Y-53712500D02*
X164862500Y-52825000D01*
X164500000Y-86510000D02*
X164500000Y-87250000D01*
D56*
X154337500Y-79750000D02*
X152520000Y-79750000D01*
X164270000Y-79750000D02*
X164500000Y-79520000D01*
X135775000Y-96250000D02*
X135480000Y-95955000D01*
D55*
X154000000Y-88500000D02*
X151930001Y-88500000D01*
X149620000Y-86189999D02*
X149620000Y-85870000D01*
X165500000Y-60090000D02*
X165540000Y-60050000D01*
D56*
X155750000Y-78337500D02*
X155750000Y-76850000D01*
D55*
X165500000Y-61750000D02*
X165500000Y-60090000D01*
X151930001Y-88500000D02*
X149620000Y-86189999D01*
X165230000Y-79520000D02*
X164500000Y-79520000D01*
X155520000Y-75970000D02*
X155520000Y-76620000D01*
D56*
X135775000Y-96500000D02*
X135775000Y-96250000D01*
D55*
X154990000Y-88500000D02*
X154000000Y-88500000D01*
X164862500Y-52825000D02*
X159195000Y-52825000D01*
D56*
X155750000Y-76850000D02*
X155520000Y-76620000D01*
X152520000Y-79750000D02*
X152500000Y-79730000D01*
X161340000Y-88500000D02*
X161250000Y-88410000D01*
D55*
X156930000Y-53950000D02*
X157500000Y-54520000D01*
X165270000Y-79520000D02*
X165970000Y-79520000D01*
D56*
X163500000Y-97025000D02*
X163475000Y-97000000D01*
D55*
X165250000Y-79500000D02*
X165270000Y-79520000D01*
D56*
X161340000Y-88340000D02*
X161250000Y-88250000D01*
D55*
X165970000Y-79520000D02*
X166000000Y-79490000D01*
D56*
X161340000Y-88500000D02*
X161340000Y-88340000D01*
D55*
X155750000Y-53950000D02*
X156930000Y-53950000D01*
X159195000Y-52825000D02*
X157500000Y-54520000D01*
D56*
X161250000Y-88250000D02*
X161250000Y-86662500D01*
X163500000Y-98100000D02*
X163500000Y-97025000D01*
%TO.N,/Power/BUCK_FB*%
X129220000Y-61867500D02*
X129220000Y-62750000D01*
X129862500Y-61225000D02*
X129220000Y-61867500D01*
X129220000Y-65720000D02*
X129250000Y-65750000D01*
X129220000Y-62750000D02*
X129220000Y-65720000D01*
%TO.N,/Power/VREF*%
X131990000Y-81500000D02*
X131990000Y-80077500D01*
X131990000Y-80077500D02*
X131862500Y-79950000D01*
X129000000Y-81500000D02*
X129000000Y-80450000D01*
X131862500Y-79950000D02*
X129500000Y-79950000D01*
X129000000Y-80450000D02*
X129500000Y-79950000D01*
D55*
X128990000Y-81500000D02*
X129000000Y-81500000D01*
D56*
%TO.N,VDDA*%
X152730000Y-83750000D02*
X152500000Y-83980000D01*
X154337500Y-83750000D02*
X152730000Y-83750000D01*
%TO.N,/MCU/HSE_IN*%
X152750001Y-81250000D02*
X153250000Y-81750000D01*
X150000000Y-81250000D02*
X152750001Y-81250000D01*
X149790000Y-77970000D02*
X149790000Y-81040000D01*
X148690000Y-77170000D02*
X148990000Y-77170000D01*
X153250000Y-81750000D02*
X154337500Y-81750000D01*
X149700000Y-80370000D02*
X148990000Y-80370000D01*
X148990000Y-77170000D02*
X149790000Y-77970000D01*
X154337500Y-81750000D02*
X154500000Y-81750000D01*
X149790000Y-81040000D02*
X150000000Y-81250000D01*
%TO.N,/MCU/XTAL_IN*%
X145990000Y-81670000D02*
X145990000Y-80370000D01*
X145990000Y-79370000D02*
X145990000Y-80370000D01*
X146490000Y-78870000D02*
X145990000Y-79370000D01*
%TO.N,/MCU/NRST*%
X154890000Y-65600000D02*
X154990000Y-65500000D01*
X154250000Y-78178120D02*
X154250000Y-75500000D01*
X154990000Y-71260000D02*
X154000000Y-72250000D01*
X154337500Y-82750000D02*
X155250000Y-82750000D01*
X154990000Y-65500000D02*
X154990000Y-71260000D01*
X154250000Y-75500000D02*
X153250000Y-74500000D01*
X155550000Y-79478120D02*
X154250000Y-78178120D01*
X155250000Y-82750000D02*
X155550000Y-82450000D01*
X154990000Y-64030000D02*
X155020000Y-64000000D01*
X154990000Y-65500000D02*
X154990000Y-64030000D01*
X155550000Y-82450000D02*
X155550000Y-79478120D01*
%TO.N,/ADC/IN_RF*%
X132506846Y-109520000D02*
X133000000Y-109520000D01*
X133000000Y-109520000D02*
X134470000Y-109520000D01*
X134500000Y-109490000D02*
X136000000Y-109490000D01*
X134470000Y-109520000D02*
X134500000Y-109490000D01*
X131500000Y-110480000D02*
X131546846Y-110480000D01*
X131546846Y-110480000D02*
X132506846Y-109520000D01*
%TO.N,/ADC/IN_BUF*%
X128750000Y-105000000D02*
X128500000Y-105250000D01*
X131187500Y-105000000D02*
X128750000Y-105000000D01*
X128500000Y-99990000D02*
X128500000Y-105513154D01*
X128500000Y-105513154D02*
X128500000Y-107500000D01*
X129990000Y-98500000D02*
X128500000Y-99990000D01*
X128500000Y-107500000D02*
X130520000Y-109520000D01*
X130520000Y-109520000D02*
X131500000Y-109520000D01*
X131550000Y-105362500D02*
X131187500Y-105000000D01*
%TO.N,Net-(C303-Pad1)*%
X135020000Y-107010000D02*
X136010000Y-108000000D01*
X134990000Y-105000000D02*
X134990000Y-106470000D01*
X135020000Y-106500000D02*
X135020000Y-107010000D01*
X134990000Y-106470000D02*
X135020000Y-106500000D01*
%TO.N,/ADC/IN_AA_BUF_IN*%
X134312500Y-103500000D02*
X133450000Y-102637500D01*
X132861262Y-103650000D02*
X133450000Y-103061262D01*
X134990000Y-103500000D02*
X134312500Y-103500000D01*
X132500000Y-104000000D02*
X132850000Y-103650000D01*
X133450000Y-103061262D02*
X133450000Y-102637500D01*
X129980000Y-104000000D02*
X132500000Y-104000000D01*
X132850000Y-103650000D02*
X132861262Y-103650000D01*
%TO.N,Net-(C305-Pad1)*%
X135980000Y-103470000D02*
X136010000Y-103500000D01*
X136010000Y-103500000D02*
X136010000Y-105000000D01*
X135980000Y-102000000D02*
X135980000Y-103470000D01*
%TO.N,/ADC/IN_AA_BUF_OUT*%
X134852500Y-100362500D02*
X134990000Y-100500000D01*
X134990000Y-101970000D02*
X135020000Y-102000000D01*
X133450000Y-100362500D02*
X134852500Y-100362500D01*
X131911262Y-101375000D02*
X131875000Y-101375000D01*
X133450000Y-100362500D02*
X132887500Y-100362500D01*
X132200000Y-101050000D02*
X132200000Y-101086262D01*
X131550000Y-101700000D02*
X131550000Y-102637500D01*
X132200000Y-101086262D02*
X131911262Y-101375000D01*
X134990000Y-100500000D02*
X134990000Y-101970000D01*
X131875000Y-101375000D02*
X131550000Y-101700000D01*
X132887500Y-100362500D02*
X132200000Y-101050000D01*
D57*
%TO.N,/ADC/ADC_IN+*%
X135980000Y-98020000D02*
X136000000Y-98000000D01*
X136010000Y-99030000D02*
X135980000Y-99000000D01*
X135980000Y-99000000D02*
X135980000Y-98020000D01*
X134311824Y-92000000D02*
X132800000Y-92000000D01*
X135980000Y-99000000D02*
X136000000Y-98980000D01*
X134516662Y-92204838D02*
X134311824Y-92000000D01*
X136010000Y-100500000D02*
X136010000Y-99030000D01*
%TO.N,/ADC/ADC_IN-*%
X134463810Y-93103288D02*
X133860522Y-92500000D01*
X133500000Y-97500000D02*
X133500000Y-98490000D01*
X134520000Y-98500000D02*
X135020000Y-99000000D01*
X133860522Y-92500000D02*
X132800000Y-92500000D01*
X133500000Y-98490000D02*
X133510000Y-98500000D01*
X133510000Y-98500000D02*
X134520000Y-98500000D01*
D56*
%TO.N,/ADC/ADC_VREF_VIN*%
X130125000Y-88050000D02*
X130125000Y-86900000D01*
X130125000Y-86900000D02*
X129225000Y-86000000D01*
X129990000Y-84500000D02*
X129990000Y-85235000D01*
X129990000Y-85235000D02*
X129225000Y-86000000D01*
%TO.N,/ADC/ADC_VREF*%
X130980000Y-92205000D02*
X130775000Y-92000000D01*
X130775000Y-90600000D02*
X130125000Y-89950000D01*
X130980000Y-93500000D02*
X130980000Y-92205000D01*
X130775000Y-92000000D02*
X130775000Y-90600000D01*
X130775000Y-92000000D02*
X131275000Y-91500000D01*
X131275000Y-91500000D02*
X132800000Y-91500000D01*
%TO.N,/DAC/DAC_VREF*%
X162100000Y-99000000D02*
X163000000Y-98100000D01*
X161500000Y-99000000D02*
X162100000Y-99000000D01*
%TO.N,Net-(C403-Pad1)*%
X160520000Y-103020000D02*
X160500000Y-103000000D01*
X160520000Y-105020000D02*
X160520000Y-104500000D01*
X160520000Y-104500000D02*
X160520000Y-103020000D01*
X161500000Y-106000000D02*
X160520000Y-105020000D01*
%TO.N,/DAC/OUT_AA_BUF_IN*%
X161862500Y-107862500D02*
X161500000Y-107500000D01*
X163050000Y-107862500D02*
X161862500Y-107862500D01*
X163050000Y-106300000D02*
X163000000Y-106250000D01*
X163050000Y-107862500D02*
X163050000Y-106300000D01*
%TO.N,Net-(C405-Pad1)*%
X160480000Y-107500000D02*
X160480000Y-106000000D01*
X160500000Y-109000000D02*
X160500000Y-107520000D01*
X160500000Y-107520000D02*
X160480000Y-107500000D01*
%TO.N,/DAC/OUT_AA_BUF_OUT*%
X164950000Y-109125000D02*
X164950000Y-107862500D01*
X161500000Y-110500000D02*
X161500000Y-109040000D01*
X164588738Y-109125000D02*
X164950000Y-109125000D01*
X161862500Y-110137500D02*
X161500000Y-110500000D01*
X161500000Y-109040000D02*
X161460000Y-109000000D01*
X164112500Y-110137500D02*
X164300000Y-109950000D01*
X164300000Y-109950000D02*
X164300000Y-109413738D01*
X164300000Y-109413738D02*
X164588738Y-109125000D01*
X163050000Y-110137500D02*
X161862500Y-110137500D01*
X163050000Y-110137500D02*
X164112500Y-110137500D01*
%TO.N,/Power/LED_PWR_K*%
X163250000Y-53750000D02*
X162500000Y-54500000D01*
X164212500Y-53750000D02*
X163250000Y-53750000D01*
%TO.N,/MCU/LED_G_K*%
X153400000Y-56390000D02*
X153400000Y-54000000D01*
X154000000Y-56990000D02*
X153400000Y-56390000D01*
X153450000Y-53950000D02*
X154250000Y-53950000D01*
X153400000Y-54000000D02*
X153450000Y-53950000D01*
%TO.N,/MCU/LED_R_K*%
X155750000Y-55050000D02*
X155750000Y-55740000D01*
X155750000Y-55740000D02*
X157000000Y-56990000D01*
%TO.N,/MCU/LED_B_K*%
X154250000Y-55740000D02*
X155500000Y-56990000D01*
X154250000Y-55050000D02*
X154250000Y-55740000D01*
%TO.N,/MCU/CONN_SWDIO*%
X166000000Y-69500000D02*
X164000000Y-67500000D01*
X165540000Y-65960000D02*
X165540000Y-63950000D01*
X164000000Y-67500000D02*
X165540000Y-65960000D01*
X166000000Y-70500000D02*
X166000000Y-69500000D01*
%TO.N,/MCU/CONN_SWCLK*%
X162600000Y-68600000D02*
X162600000Y-67500000D01*
X162600000Y-67500000D02*
X162600000Y-66650000D01*
X164500000Y-70500000D02*
X164490000Y-70500000D01*
X162600000Y-66650000D02*
X164270000Y-64980000D01*
X164500000Y-70500000D02*
X162600000Y-68600000D01*
X164270000Y-64980000D02*
X164270000Y-63950000D01*
%TO.N,/MCU/CONN_SWO*%
X161780000Y-66000000D02*
X163000000Y-64780000D01*
X163000000Y-70500000D02*
X162000000Y-70500000D01*
X163000000Y-64780000D02*
X163000000Y-63950000D01*
X160500000Y-66000000D02*
X161780000Y-66000000D01*
X162000000Y-70500000D02*
X159000000Y-67500000D01*
X159000000Y-67500000D02*
X160500000Y-66000000D01*
%TO.N,/MCU/CONN_NRST*%
X158000000Y-65600000D02*
X156110000Y-65600000D01*
X160460000Y-63950000D02*
X159650000Y-63950000D01*
X159650000Y-63950000D02*
X158000000Y-65600000D01*
X156110000Y-65600000D02*
X156010000Y-65500000D01*
%TO.N,/ADC/IN*%
X136000000Y-110510000D02*
X136000000Y-112450000D01*
X136000000Y-112450000D02*
X135950000Y-112500000D01*
X135950000Y-116950000D02*
X136000000Y-117000000D01*
X135950000Y-112500000D02*
X135950000Y-116950000D01*
%TO.N,/DAC/OUT*%
X159500000Y-112500000D02*
X160500000Y-111500000D01*
X159450000Y-112500000D02*
X159500000Y-112500000D01*
X159000000Y-112950000D02*
X159450000Y-112500000D01*
X160500000Y-111500000D02*
X160480000Y-111480000D01*
X159000000Y-117000000D02*
X159000000Y-112950000D01*
X160480000Y-111480000D02*
X160480000Y-110500000D01*
%TO.N,/MCU/USB_CONN_CC1*%
X141240000Y-53250000D02*
X140250000Y-54240000D01*
X148750000Y-55433604D02*
X146566396Y-53250000D01*
X148750000Y-56545000D02*
X148750000Y-55433604D01*
X146566396Y-53250000D02*
X141240000Y-53250000D01*
D57*
%TO.N,/MCU/USB_CONN_D+*%
X146750000Y-59525000D02*
X146750000Y-57370000D01*
X146550000Y-59725000D02*
X146750000Y-59525000D01*
X147750000Y-56500000D02*
X147750000Y-57520000D01*
X146950000Y-57570000D02*
X146750000Y-57370000D01*
X147750000Y-56545000D02*
X147750000Y-56500000D01*
X146750000Y-57370000D02*
X146750000Y-56545000D01*
X147700000Y-57570000D02*
X146950000Y-57570000D01*
X147750000Y-57520000D02*
X147700000Y-57570000D01*
%TO.N,/MCU/USB_CONN_D-*%
X148450000Y-59725000D02*
X148250000Y-59525000D01*
X147300000Y-55520000D02*
X148200000Y-55520000D01*
X148250000Y-59525000D02*
X148250000Y-56545000D01*
X148200000Y-55520000D02*
X148250000Y-55570000D01*
X147250000Y-56545000D02*
X147250000Y-55570000D01*
X147250000Y-55570000D02*
X147300000Y-55520000D01*
X148250000Y-55570000D02*
X148250000Y-56545000D01*
D56*
%TO.N,/MCU/USB_CONN_CC2*%
X141500000Y-54240000D02*
X141990000Y-53750000D01*
X145750000Y-55143984D02*
X145750000Y-56545000D01*
X144356016Y-53750000D02*
X145750000Y-55143984D01*
X141990000Y-53750000D02*
X144356016Y-53750000D01*
D57*
%TO.N,/MCU/USB_CMC_D-*%
X147725000Y-63462500D02*
X147725000Y-63087500D01*
X148450000Y-62362500D02*
X148450000Y-62000000D01*
X147725000Y-63087500D02*
X148450000Y-62362500D01*
X148050000Y-63787500D02*
X147725000Y-63462500D01*
X148050000Y-64037500D02*
X148050000Y-63787500D01*
%TO.N,/MCU/USB_CMC_D+*%
X146950000Y-64037500D02*
X146950000Y-63787500D01*
X146550000Y-62362500D02*
X146550000Y-62000000D01*
X147275000Y-63462500D02*
X147275000Y-63087500D01*
X146950000Y-63787500D02*
X147275000Y-63462500D01*
X147275000Y-63087500D02*
X146550000Y-62362500D01*
%TO.N,/MCU/USB_D+*%
X161831800Y-73650000D02*
X153400000Y-73650000D01*
X166775000Y-78593200D02*
X161831800Y-73650000D01*
X153400000Y-73650000D02*
X146950000Y-67200000D01*
X146950000Y-67200000D02*
X146950000Y-66687500D01*
X166775000Y-80108238D02*
X166775000Y-78593200D01*
X165633238Y-81250000D02*
X166775000Y-80108238D01*
X162662500Y-81250000D02*
X165633238Y-81250000D01*
%TO.N,/MCU/USB_D-*%
X167225000Y-80223924D02*
X167225000Y-78406800D01*
X163793751Y-81725000D02*
X165723924Y-81725000D01*
X167225000Y-78406800D02*
X162068200Y-73250000D01*
X153565686Y-73250000D02*
X148050000Y-67734314D01*
X165723924Y-81725000D02*
X167225000Y-80223924D01*
X163768751Y-81750000D02*
X163793751Y-81725000D01*
X148050000Y-67734314D02*
X148050000Y-66687500D01*
X162662500Y-81750000D02*
X163768751Y-81750000D01*
X162068200Y-73250000D02*
X153565686Y-73250000D01*
D56*
%TO.N,/MCU/BOOT0*%
X157750000Y-78337500D02*
X157750000Y-76590000D01*
X157750000Y-76590000D02*
X157840000Y-76500000D01*
%TO.N,/MCU/HSE_OUT*%
X148739417Y-81750000D02*
X148708710Y-81780707D01*
X148708710Y-81780707D02*
X147120707Y-81780707D01*
X154337500Y-82250000D02*
X153042894Y-82250000D01*
X147120707Y-81780707D02*
X147010000Y-81670000D01*
X153042894Y-82250000D02*
X152542894Y-81750000D01*
X152542894Y-81750000D02*
X148739417Y-81750000D01*
%TO.N,SPI2_NSS*%
X165000000Y-98100000D02*
X165000000Y-97500000D01*
X162662500Y-85250000D02*
X164260000Y-85250000D01*
X162662500Y-86165420D02*
X162662500Y-85250000D01*
X162747165Y-86250085D02*
X162662500Y-86165420D01*
X164260000Y-85250000D02*
X164500000Y-85490000D01*
X165000000Y-97500000D02*
X165500000Y-97000000D01*
%TO.N,SPI1_NSS*%
X137823224Y-93500000D02*
X137200000Y-93500000D01*
X156250000Y-88250000D02*
X156250000Y-86662500D01*
X144500000Y-96000000D02*
X140323224Y-96000000D01*
X156000000Y-88500000D02*
X156250000Y-88250000D01*
X156010000Y-88500000D02*
X156000000Y-88500000D01*
X153500000Y-89500000D02*
X155010000Y-89500000D01*
X140323224Y-96000000D02*
X137823224Y-93500000D01*
X155010000Y-89500000D02*
X156010000Y-88500000D01*
%TO.N,/MCU/TIM4_CH3*%
X157250000Y-79750000D02*
X157250000Y-78337500D01*
X157000000Y-58010000D02*
X157000000Y-62500000D01*
%TO.N,/MCU/TIM4_CH1*%
X158750000Y-79250000D02*
X158750000Y-78337500D01*
X154000000Y-58010000D02*
X154000000Y-62500000D01*
X159250000Y-79750000D02*
X158750000Y-79250000D01*
%TO.N,/MCU/TIM4_CH2*%
X158250000Y-79750000D02*
X158250000Y-78337500D01*
X155500000Y-58010000D02*
X155500000Y-62500000D01*
%TO.N,/MCU/SWDIO*%
X166000000Y-71520000D02*
X166000000Y-71500000D01*
X161750000Y-80750000D02*
X162662500Y-80750000D01*
X166000000Y-71500000D02*
X165250000Y-72250000D01*
X161000000Y-81500000D02*
X161750000Y-80750000D01*
%TO.N,/MCU/SWCLK*%
X160500000Y-80750000D02*
X160500000Y-80345530D01*
X160500000Y-80750000D02*
X160500000Y-79928120D01*
X160500000Y-79928120D02*
X161250000Y-79178120D01*
X161250000Y-79178120D02*
X161250000Y-78337500D01*
X164480000Y-71520000D02*
X163750000Y-72250000D01*
X164500000Y-71520000D02*
X164480000Y-71520000D01*
%TO.N,/MCU/SWO*%
X162020000Y-71520000D02*
X162000000Y-71500000D01*
X163000000Y-71520000D02*
X162020000Y-71520000D01*
X159534606Y-80603817D02*
X160000000Y-80138423D01*
X160000000Y-80138423D02*
X160000000Y-79721013D01*
X160000000Y-79721013D02*
X160250000Y-79471013D01*
X160250000Y-79471013D02*
X160250000Y-78337500D01*
%TO.N,/ADC/VCOM*%
X132490000Y-98500000D02*
X131010000Y-98500000D01*
%TO.N,/ADC/IN_BUF_OUT*%
X132362500Y-107637500D02*
X132800000Y-107200000D01*
X134990000Y-108000000D02*
X134990000Y-107803738D01*
X134990000Y-107803738D02*
X133450000Y-106263738D01*
X133450000Y-106263738D02*
X133450000Y-105362500D01*
X132800000Y-107200000D02*
X132800000Y-106913738D01*
X131550000Y-107637500D02*
X132362500Y-107637500D01*
X132800000Y-106913738D02*
X133450000Y-106263738D01*
%TO.N,SPI1_SCK*%
X156750000Y-87503120D02*
X156750000Y-86662500D01*
X140010000Y-92500000D02*
X154000000Y-92500000D01*
X157250000Y-88003120D02*
X156750000Y-87503120D01*
X154000000Y-92500000D02*
X157250000Y-89250000D01*
X157250000Y-89250000D02*
X157250000Y-88003120D01*
%TO.N,/ADC/ADC_SCLK*%
X137200000Y-92500000D02*
X138990000Y-92500000D01*
%TO.N,SPI2_SCK*%
X164500000Y-95480000D02*
X165170000Y-94810000D01*
X165170000Y-94810000D02*
X165170000Y-85150366D01*
X165170000Y-85150366D02*
X164769634Y-84750000D01*
X164769634Y-84750000D02*
X162662500Y-84750000D01*
%TO.N,/DAC/DAC_SCLK*%
X164500000Y-98100000D02*
X164500000Y-96500000D01*
%TO.N,/DAC/DAC_OUT_B*%
X163500000Y-103750000D02*
X163500000Y-102500000D01*
X163000000Y-104250000D02*
X163500000Y-103750000D01*
%TO.N,/DAC/DAC_OUT_A*%
X162500000Y-103000000D02*
X163000000Y-102500000D01*
X161520000Y-103000000D02*
X162500000Y-103000000D01*
%TO.N,/Power/VCOM*%
X134137500Y-79950000D02*
X134137500Y-79423762D01*
X132763738Y-78050000D02*
X131862500Y-78050000D01*
X134137500Y-79423762D02*
X132763738Y-78050000D01*
%TO.N,SPI1_MISO*%
X141750000Y-94500000D02*
X139750000Y-94500000D01*
X138250000Y-93000000D02*
X137200000Y-93000000D01*
X139750000Y-94500000D02*
X138250000Y-93000000D01*
X157250000Y-85000000D02*
X157250000Y-86662500D01*
%TO.N,DAC_NCLR*%
X158503120Y-88250000D02*
X158250000Y-88250000D01*
X159250000Y-87503120D02*
X158503120Y-88250000D01*
X165000000Y-103750000D02*
X165000000Y-102500000D01*
X159250000Y-86662500D02*
X159250000Y-87503120D01*
%TO.N,DAC_NLDAC*%
X164500000Y-100707480D02*
X164500000Y-102500000D01*
X164554987Y-100652493D02*
X164500000Y-100707480D01*
X159750000Y-91000000D02*
X159750000Y-86662500D01*
%TO.N,SPI2_MOSI*%
X167250000Y-97425000D02*
X165500000Y-99175000D01*
X167250000Y-85000000D02*
X167250000Y-97425000D01*
X165500000Y-99175000D02*
X164050000Y-99175000D01*
X164000000Y-99125000D02*
X164000000Y-98100000D01*
X162662500Y-83750000D02*
X166000000Y-83750000D01*
X164050000Y-99175000D02*
X164000000Y-99125000D01*
X166000000Y-83750000D02*
X167250000Y-85000000D01*
%TD*%
%TA.AperFunction,Conductor*%
%TO.N,GND*%
G36*
X131415247Y-59762599D02*
G01*
X131418516Y-59764197D01*
X131418517Y-59764198D01*
X131523607Y-59815573D01*
X131557673Y-59820536D01*
X131591739Y-59825500D01*
X131591740Y-59825500D01*
X132683261Y-59825500D01*
X132705971Y-59822191D01*
X132751393Y-59815573D01*
X132856483Y-59764198D01*
X132856483Y-59764197D01*
X132859753Y-59762599D01*
X132914213Y-59750000D01*
X132948638Y-59750000D01*
X133015677Y-59769685D01*
X133036319Y-59786319D01*
X134963681Y-61713681D01*
X134997166Y-61775004D01*
X135000000Y-61801362D01*
X135000000Y-64126000D01*
X134980315Y-64193039D01*
X134927511Y-64238794D01*
X134876000Y-64250000D01*
X132540398Y-64250000D01*
X132532162Y-64249614D01*
X132532162Y-64249635D01*
X132529277Y-64249500D01*
X132529266Y-64249500D01*
X131470734Y-64249500D01*
X131470723Y-64249500D01*
X131467838Y-64249635D01*
X131467837Y-64249614D01*
X131459602Y-64250000D01*
X131301362Y-64250000D01*
X131234323Y-64230315D01*
X131213681Y-64213681D01*
X130500000Y-63500000D01*
X129801362Y-63500000D01*
X129734323Y-63480315D01*
X129713681Y-63463681D01*
X129606819Y-63356819D01*
X129573334Y-63295496D01*
X129570500Y-63269138D01*
X129570500Y-63245331D01*
X129590185Y-63178292D01*
X129606819Y-63157650D01*
X129634065Y-63130404D01*
X129684068Y-63023173D01*
X129690500Y-62974316D01*
X129690500Y-62525684D01*
X129684068Y-62476827D01*
X129669593Y-62445786D01*
X129659102Y-62376712D01*
X129687621Y-62312928D01*
X129694258Y-62305741D01*
X129963683Y-62036316D01*
X130025004Y-62002834D01*
X130051362Y-62000000D01*
X130498387Y-62000000D01*
X130565426Y-62019685D01*
X130600276Y-62057503D01*
X130601960Y-62056347D01*
X130605901Y-62062086D01*
X130651660Y-62114895D01*
X130669242Y-62132839D01*
X130669246Y-62132843D01*
X130669247Y-62132844D01*
X130669249Y-62132845D01*
X130715391Y-62158655D01*
X130749063Y-62177490D01*
X130816102Y-62197175D01*
X130874000Y-62205500D01*
X130874004Y-62205500D01*
X132436785Y-62205500D01*
X132436791Y-62205500D01*
X132472071Y-62202449D01*
X132514018Y-62195139D01*
X132515913Y-62194800D01*
X132599923Y-62158655D01*
X132656351Y-62117452D01*
X132698200Y-62076588D01*
X132744006Y-62016891D01*
X132766889Y-61994007D01*
X132838833Y-61938801D01*
X132845402Y-61934095D01*
X132853424Y-61928737D01*
X132879101Y-61909033D01*
X132899305Y-61891314D01*
X133108991Y-61681629D01*
X133123693Y-61665261D01*
X133123698Y-61665253D01*
X133123704Y-61665248D01*
X133140325Y-61644622D01*
X133140325Y-61644621D01*
X133140327Y-61644619D01*
X133177490Y-61573574D01*
X133197175Y-61506535D01*
X133205500Y-61448637D01*
X133205500Y-61051362D01*
X133204322Y-61029393D01*
X133201488Y-61003035D01*
X133177529Y-60926518D01*
X133144044Y-60865195D01*
X133108991Y-60818371D01*
X132953073Y-60662453D01*
X132924806Y-60638851D01*
X132924798Y-60638845D01*
X132924790Y-60638839D01*
X132888429Y-60613644D01*
X132885665Y-60611762D01*
X132842953Y-60595426D01*
X132800243Y-60579090D01*
X132800241Y-60579089D01*
X132800239Y-60579089D01*
X132731068Y-60569277D01*
X132731066Y-60569277D01*
X132707669Y-60569321D01*
X132672572Y-60569387D01*
X132668751Y-60569668D01*
X132659679Y-60570000D01*
X131620146Y-60570000D01*
X131565683Y-60557399D01*
X131558162Y-60553722D01*
X131524944Y-60530004D01*
X131519990Y-60525050D01*
X131496271Y-60491830D01*
X131495113Y-60489462D01*
X131485817Y-60470446D01*
X131468444Y-60441289D01*
X131444725Y-60408068D01*
X131422788Y-60382168D01*
X131250000Y-60209380D01*
X131250000Y-59750000D01*
X131360787Y-59750000D01*
X131415247Y-59762599D01*
G37*
%TD.AperFunction*%
%TD*%
%TA.AperFunction,Conductor*%
%TO.N,+5V*%
G36*
X132765677Y-54269685D02*
G01*
X132786319Y-54286319D01*
X132794378Y-54294378D01*
X132827863Y-54355701D01*
X132823243Y-54420292D01*
X132824226Y-54420581D01*
X132822900Y-54425095D01*
X132822879Y-54425393D01*
X132822608Y-54426088D01*
X132802826Y-54493456D01*
X132802825Y-54493464D01*
X132794500Y-54551362D01*
X132794500Y-54713417D01*
X132795037Y-54728257D01*
X132796331Y-54746129D01*
X132797941Y-54760918D01*
X132797944Y-54760941D01*
X132803704Y-54800471D01*
X132805000Y-54818349D01*
X132805000Y-55181652D01*
X132803704Y-55199531D01*
X132797943Y-55239066D01*
X132796331Y-55253863D01*
X132795036Y-55271736D01*
X132794500Y-55286582D01*
X132794500Y-55448638D01*
X132795678Y-55470618D01*
X132798511Y-55496965D01*
X132798512Y-55496967D01*
X132824291Y-55579294D01*
X132822017Y-55580005D01*
X132828863Y-55638963D01*
X132798121Y-55701706D01*
X132794343Y-55705654D01*
X132786329Y-55713670D01*
X132725010Y-55747163D01*
X132698637Y-55750000D01*
X130999999Y-55750000D01*
X130750000Y-55999999D01*
X130750000Y-57948638D01*
X130730315Y-58015677D01*
X130713681Y-58036319D01*
X130500000Y-58249999D01*
X130500000Y-59750000D01*
X131277478Y-60527478D01*
X131301197Y-60560699D01*
X131335800Y-60631482D01*
X131418514Y-60714196D01*
X131418515Y-60714196D01*
X131418517Y-60714198D01*
X131523607Y-60765573D01*
X131557673Y-60770536D01*
X131591739Y-60775500D01*
X131591740Y-60775500D01*
X132683261Y-60775500D01*
X132702204Y-60772740D01*
X132771381Y-60782553D01*
X132807763Y-60807763D01*
X132963681Y-60963681D01*
X132997166Y-61025004D01*
X133000000Y-61051362D01*
X133000000Y-61448637D01*
X132980315Y-61515676D01*
X132963681Y-61536318D01*
X132753995Y-61746003D01*
X132728318Y-61765707D01*
X132722372Y-61769139D01*
X132607379Y-61857378D01*
X132607378Y-61857379D01*
X132535166Y-61951487D01*
X132478738Y-61992690D01*
X132436791Y-62000000D01*
X130874000Y-62000000D01*
X130806961Y-61980315D01*
X130761206Y-61927511D01*
X130750000Y-61876000D01*
X130750000Y-61000000D01*
X130722520Y-60972520D01*
X130698800Y-60939298D01*
X130664197Y-60868515D01*
X130581485Y-60785803D01*
X130476391Y-60734426D01*
X130408261Y-60724500D01*
X130408260Y-60724500D01*
X129316740Y-60724500D01*
X129316739Y-60724500D01*
X129248608Y-60734426D01*
X129143514Y-60785803D01*
X129060803Y-60868514D01*
X129021027Y-60949877D01*
X129009959Y-60972520D01*
X129005198Y-60982258D01*
X129003349Y-60981354D01*
X128980118Y-61019881D01*
X128750000Y-61250000D01*
X128750000Y-62513996D01*
X128749735Y-62522105D01*
X128749500Y-62525690D01*
X128749500Y-62974310D01*
X128749735Y-62977896D01*
X128750000Y-62986005D01*
X128750000Y-64013996D01*
X128749735Y-64022105D01*
X128749500Y-64025690D01*
X128749500Y-64474310D01*
X128749735Y-64477896D01*
X128750000Y-64486005D01*
X128750000Y-66500000D01*
X130213681Y-67963681D01*
X130247166Y-68025004D01*
X130250000Y-68051362D01*
X130250000Y-68908018D01*
X130230315Y-68975057D01*
X130213681Y-68995699D01*
X130201199Y-69008181D01*
X130139876Y-69041666D01*
X130113518Y-69044500D01*
X128801361Y-69044500D01*
X128779381Y-69045678D01*
X128753034Y-69048511D01*
X128753032Y-69048512D01*
X128676521Y-69072470D01*
X128676516Y-69072471D01*
X128615188Y-69105960D01*
X128568384Y-69140998D01*
X128568363Y-69141016D01*
X128391013Y-69318365D01*
X128391012Y-69318366D01*
X128376325Y-69334716D01*
X128376313Y-69334730D01*
X128359672Y-69355380D01*
X128330128Y-69411858D01*
X128307937Y-69442060D01*
X128250000Y-69499998D01*
X128250000Y-78750000D01*
X128463681Y-78963681D01*
X128497166Y-79025004D01*
X128500000Y-79051362D01*
X128500000Y-82000000D01*
X128750000Y-82250000D01*
X131448638Y-82250000D01*
X131515677Y-82269685D01*
X131536319Y-82286319D01*
X133213681Y-83963681D01*
X133247166Y-84025004D01*
X133250000Y-84051362D01*
X133250000Y-84948638D01*
X133230315Y-85015677D01*
X133213681Y-85036319D01*
X133036319Y-85213681D01*
X132974996Y-85247166D01*
X132948638Y-85250000D01*
X130801362Y-85250000D01*
X130734323Y-85230315D01*
X130713681Y-85213681D01*
X130536319Y-85036319D01*
X130502834Y-84974996D01*
X130500000Y-84948638D01*
X130500000Y-84250000D01*
X130449643Y-84199643D01*
X130424942Y-84164367D01*
X130404065Y-84119596D01*
X130320404Y-84035935D01*
X130320403Y-84035934D01*
X130275629Y-84015055D01*
X130260109Y-84004187D01*
X130227212Y-83990561D01*
X130227300Y-83990348D01*
X130218426Y-83988381D01*
X130213178Y-83985933D01*
X130213169Y-83985931D01*
X130164317Y-83979500D01*
X130164316Y-83979500D01*
X129815684Y-83979500D01*
X129815683Y-83979500D01*
X129766830Y-83985931D01*
X129766821Y-83985933D01*
X129761574Y-83988381D01*
X129709168Y-84000000D01*
X127801362Y-84000000D01*
X127734323Y-83980315D01*
X127713681Y-83963681D01*
X126036319Y-82286319D01*
X126002834Y-82224996D01*
X126000000Y-82198638D01*
X126000000Y-60551362D01*
X126019685Y-60484323D01*
X126036319Y-60463681D01*
X126750000Y-59750000D01*
X128500000Y-58000000D01*
X128500000Y-55551362D01*
X128519685Y-55484323D01*
X128536319Y-55463681D01*
X129713681Y-54286319D01*
X129775004Y-54252834D01*
X129801362Y-54250000D01*
X132698638Y-54250000D01*
X132765677Y-54269685D01*
G37*
%TD.AperFunction*%
%TD*%
%TA.AperFunction,Conductor*%
%TO.N,GND*%
G36*
X135000000Y-96698638D02*
G01*
X134980315Y-96765677D01*
X134963681Y-96786319D01*
X134786319Y-96963681D01*
X134724996Y-96997166D01*
X134698638Y-97000000D01*
X133801362Y-97000000D01*
X133734323Y-96980315D01*
X133713681Y-96963681D01*
X133286319Y-96536319D01*
X133252834Y-96474996D01*
X133250000Y-96448638D01*
X133250000Y-95250000D01*
X135000000Y-95250000D01*
X135000000Y-96698638D01*
G37*
%TD.AperFunction*%
%TD*%
%TA.AperFunction,Conductor*%
%TO.N,+3.3VA*%
G36*
X136265677Y-88019685D02*
G01*
X136286319Y-88036319D01*
X136713681Y-88463681D01*
X136747166Y-88525004D01*
X136750000Y-88551362D01*
X136750000Y-90000000D01*
X137963681Y-91213681D01*
X137997166Y-91275004D01*
X138000000Y-91301362D01*
X138000000Y-91521000D01*
X137980315Y-91588039D01*
X137927511Y-91633794D01*
X137876000Y-91645000D01*
X136518099Y-91645000D01*
X136451060Y-91625315D01*
X136440295Y-91617553D01*
X136430517Y-91609674D01*
X136359470Y-91572509D01*
X136292438Y-91552826D01*
X136291789Y-91552732D01*
X136234533Y-91544500D01*
X136234529Y-91544500D01*
X136095862Y-91544500D01*
X136028823Y-91524815D01*
X136008181Y-91508181D01*
X135036818Y-90536818D01*
X135003333Y-90475495D01*
X135000499Y-90449146D01*
X135000499Y-90040100D01*
X135000499Y-90040098D01*
X135000266Y-90036545D01*
X135000000Y-90028432D01*
X135000000Y-88301362D01*
X135019685Y-88234323D01*
X135036319Y-88213681D01*
X135213681Y-88036319D01*
X135275004Y-88002834D01*
X135301362Y-88000000D01*
X136198638Y-88000000D01*
X136265677Y-88019685D01*
G37*
%TD.AperFunction*%
%TD*%
%TA.AperFunction,Conductor*%
%TO.N,VDDA*%
G36*
X152693039Y-83769685D02*
G01*
X152738794Y-83822489D01*
X152750000Y-83874000D01*
X152750000Y-84698638D01*
X152730315Y-84765677D01*
X152713681Y-84786319D01*
X151286319Y-86213681D01*
X151224996Y-86247166D01*
X151198638Y-86250000D01*
X150424000Y-86250000D01*
X150356961Y-86230315D01*
X150311206Y-86177511D01*
X150300000Y-86126000D01*
X150300000Y-85693218D01*
X150312591Y-85638776D01*
X150314198Y-85635485D01*
X150315827Y-85632153D01*
X150339555Y-85598916D01*
X150358990Y-85579483D01*
X150373693Y-85563114D01*
X150390327Y-85542472D01*
X150427490Y-85471427D01*
X150447175Y-85404388D01*
X150455500Y-85346490D01*
X150455500Y-84124000D01*
X150452140Y-84092753D01*
X150464546Y-84023995D01*
X150512157Y-83972858D01*
X150575430Y-83955500D01*
X151917271Y-83955500D01*
X151974384Y-83947404D01*
X152040594Y-83928248D01*
X152063519Y-83920117D01*
X152137715Y-83866646D01*
X152175721Y-83823482D01*
X152183880Y-83814215D01*
X152183889Y-83814204D01*
X152189166Y-83806135D01*
X152242331Y-83760800D01*
X152292946Y-83750000D01*
X152626000Y-83750000D01*
X152693039Y-83769685D01*
G37*
%TD.AperFunction*%
%TD*%
%TA.AperFunction,Conductor*%
%TO.N,GND*%
G36*
X153515677Y-77019685D02*
G01*
X153536319Y-77036319D01*
X153863181Y-77363181D01*
X153896666Y-77424504D01*
X153899500Y-77450862D01*
X153899500Y-78128908D01*
X153896861Y-78154352D01*
X153894957Y-78163431D01*
X153894957Y-78163436D01*
X153898548Y-78192241D01*
X153899396Y-78205915D01*
X153899499Y-78207152D01*
X153902666Y-78226135D01*
X153903403Y-78231197D01*
X153909426Y-78279510D01*
X153911524Y-78286555D01*
X153913907Y-78293499D01*
X153913908Y-78293501D01*
X153930270Y-78323736D01*
X153937082Y-78336323D01*
X153939427Y-78340879D01*
X153960804Y-78384608D01*
X153965063Y-78390573D01*
X153973849Y-78401860D01*
X153999495Y-78466852D01*
X154000000Y-78478027D01*
X154000000Y-78948638D01*
X153980315Y-79015677D01*
X153963681Y-79036319D01*
X153786319Y-79213681D01*
X153724996Y-79247166D01*
X153698638Y-79250000D01*
X152721588Y-79250000D01*
X152713477Y-79249734D01*
X152709907Y-79249500D01*
X152290095Y-79249500D01*
X152286542Y-79249734D01*
X152278430Y-79250000D01*
X150551362Y-79250000D01*
X150484323Y-79230315D01*
X150463681Y-79213681D01*
X150286319Y-79036319D01*
X150252834Y-78974996D01*
X150250000Y-78948638D01*
X150250000Y-77801362D01*
X150269685Y-77734323D01*
X150286319Y-77713681D01*
X150963681Y-77036319D01*
X151025004Y-77002834D01*
X151051362Y-77000000D01*
X153448638Y-77000000D01*
X153515677Y-77019685D01*
G37*
%TD.AperFunction*%
%TD*%
%TA.AperFunction,Conductor*%
%TO.N,/Power/+5V_FILT*%
G36*
X133693039Y-68519685D02*
G01*
X133738794Y-68572489D01*
X133750000Y-68624000D01*
X133750000Y-72876000D01*
X133730315Y-72943039D01*
X133677511Y-72988794D01*
X133626000Y-73000000D01*
X133124000Y-73000000D01*
X133056961Y-72980315D01*
X133011206Y-72927511D01*
X133000000Y-72876000D01*
X133000000Y-72000000D01*
X132500000Y-71500000D01*
X131000000Y-71500000D01*
X130999999Y-71500000D01*
X130750000Y-71749999D01*
X130750000Y-72698638D01*
X130730315Y-72765677D01*
X130713681Y-72786319D01*
X130536319Y-72963681D01*
X130474996Y-72997166D01*
X130448638Y-73000000D01*
X129000000Y-73000000D01*
X128801362Y-73000000D01*
X128734323Y-72980315D01*
X128713681Y-72963681D01*
X128536319Y-72786319D01*
X128502834Y-72724996D01*
X128500000Y-72698638D01*
X128500000Y-69551362D01*
X128519685Y-69484323D01*
X128536319Y-69463681D01*
X128713681Y-69286319D01*
X128775004Y-69252834D01*
X128801362Y-69250000D01*
X130250000Y-69250000D01*
X130963681Y-68536319D01*
X131025004Y-68502834D01*
X131051362Y-68500000D01*
X133626000Y-68500000D01*
X133693039Y-68519685D01*
G37*
%TD.AperFunction*%
%TD*%
%TA.AperFunction,Conductor*%
%TO.N,+3.3VA*%
G36*
X135515677Y-71519685D02*
G01*
X135536319Y-71536319D01*
X135713681Y-71713681D01*
X135747166Y-71775004D01*
X135750000Y-71801362D01*
X135750000Y-75448638D01*
X135730315Y-75515677D01*
X135713681Y-75536319D01*
X135000000Y-76249999D01*
X135000000Y-78198638D01*
X134980315Y-78265677D01*
X134963681Y-78286319D01*
X134786319Y-78463681D01*
X134724996Y-78497166D01*
X134698638Y-78500000D01*
X133760782Y-78500000D01*
X133693743Y-78480315D01*
X133673101Y-78463681D01*
X133046375Y-77836955D01*
X133030249Y-77817098D01*
X133025175Y-77809331D01*
X133002262Y-77791497D01*
X132991986Y-77782422D01*
X132991047Y-77781627D01*
X132991045Y-77781625D01*
X132975389Y-77770447D01*
X132971282Y-77767385D01*
X132965576Y-77762943D01*
X132932864Y-77737483D01*
X132932862Y-77737482D01*
X132926378Y-77733973D01*
X132919805Y-77730759D01*
X132873147Y-77716868D01*
X132868270Y-77715306D01*
X132822222Y-77699498D01*
X132815025Y-77698297D01*
X132807689Y-77697382D01*
X132759070Y-77699394D01*
X132753945Y-77699500D01*
X132721543Y-77699500D01*
X132654504Y-77679815D01*
X132633866Y-77663185D01*
X132581483Y-77610802D01*
X132476393Y-77559427D01*
X132476391Y-77559426D01*
X132408261Y-77549500D01*
X132408260Y-77549500D01*
X131316740Y-77549500D01*
X131316739Y-77549500D01*
X131248607Y-77559426D01*
X131248606Y-77559426D01*
X131178459Y-77593719D01*
X131109586Y-77605477D01*
X131045289Y-77578134D01*
X131005983Y-77520369D01*
X131000000Y-77482318D01*
X131000000Y-76750000D01*
X130536319Y-76286319D01*
X130502834Y-76224996D01*
X130500000Y-76198638D01*
X130500000Y-75721590D01*
X130500265Y-75713481D01*
X130500497Y-75709921D01*
X130500500Y-75709901D01*
X130500499Y-75300861D01*
X130520183Y-75233823D01*
X130536813Y-75213186D01*
X130696857Y-75053142D01*
X130758178Y-75019659D01*
X130827870Y-75024643D01*
X130831982Y-75026261D01*
X130856291Y-75036330D01*
X130983280Y-75053048D01*
X130999999Y-75055250D01*
X131000000Y-75055250D01*
X131000001Y-75055250D01*
X131015996Y-75053144D01*
X131143709Y-75036330D01*
X131168011Y-75026264D01*
X131237480Y-75018795D01*
X131299959Y-75050070D01*
X131303144Y-75053144D01*
X131500000Y-75250000D01*
X131880454Y-75250000D01*
X131947493Y-75269685D01*
X131970554Y-75291303D01*
X131971279Y-75290579D01*
X131977848Y-75297148D01*
X131977849Y-75297148D01*
X131977850Y-75297150D01*
X132087118Y-75377793D01*
X132129845Y-75392744D01*
X132215299Y-75422646D01*
X132245730Y-75425500D01*
X132245734Y-75425500D01*
X132854270Y-75425500D01*
X132884699Y-75422646D01*
X132884701Y-75422646D01*
X132948790Y-75400219D01*
X133012882Y-75377793D01*
X133122150Y-75297150D01*
X133202793Y-75187882D01*
X133247646Y-75059699D01*
X133249407Y-75040919D01*
X133275263Y-74976012D01*
X133285176Y-74964823D01*
X133500000Y-74750000D01*
X133500000Y-73816362D01*
X133519685Y-73749323D01*
X133555215Y-73713189D01*
X134250000Y-73250000D01*
X134250000Y-71953289D01*
X134269685Y-71886250D01*
X134322489Y-71840495D01*
X134361851Y-71829886D01*
X134366502Y-71829428D01*
X134444729Y-71813868D01*
X134444729Y-71813867D01*
X134444731Y-71813867D01*
X134511052Y-71769552D01*
X134555367Y-71703231D01*
X134555367Y-71703229D01*
X134555368Y-71703229D01*
X134570927Y-71625004D01*
X134570928Y-71625001D01*
X134570928Y-71624000D01*
X134571076Y-71623494D01*
X134571525Y-71618939D01*
X134572389Y-71619024D01*
X134590613Y-71556961D01*
X134643417Y-71511206D01*
X134694928Y-71500000D01*
X135448638Y-71500000D01*
X135515677Y-71519685D01*
G37*
%TD.AperFunction*%
%TD*%
%TA.AperFunction,Conductor*%
%TO.N,+3V3*%
G36*
X150551362Y-79655500D02*
G01*
X150551365Y-79655500D01*
X152278454Y-79655500D01*
X152291720Y-79655282D01*
X152298296Y-79655067D01*
X152302361Y-79655000D01*
X152697670Y-79655000D01*
X152701740Y-79655066D01*
X152708297Y-79655282D01*
X152713807Y-79655372D01*
X152721564Y-79655500D01*
X153126000Y-79655500D01*
X153193039Y-79675185D01*
X153238794Y-79727989D01*
X153250000Y-79779500D01*
X153250000Y-79931440D01*
X153242182Y-79974774D01*
X153205587Y-80072885D01*
X153199500Y-80129498D01*
X153199500Y-80249137D01*
X153179815Y-80316176D01*
X153163181Y-80336818D01*
X152840123Y-80659876D01*
X152778800Y-80693361D01*
X152739768Y-80695546D01*
X152731032Y-80694648D01*
X152731026Y-80694648D01*
X152713346Y-80697697D01*
X152692278Y-80699500D01*
X150464500Y-80699500D01*
X150397461Y-80679815D01*
X150351706Y-80627011D01*
X150340500Y-80575500D01*
X150340500Y-79768286D01*
X150360185Y-79701247D01*
X150412989Y-79655492D01*
X150482145Y-79645548D01*
X150551362Y-79655500D01*
G37*
%TD.AperFunction*%
%TD*%
%TA.AperFunction,Conductor*%
%TO.N,VBUS*%
G36*
X137515677Y-54269685D02*
G01*
X137536319Y-54286319D01*
X139746002Y-56496002D01*
X139765707Y-56521680D01*
X139769138Y-56527623D01*
X139769139Y-56527625D01*
X139857379Y-56642621D01*
X139904602Y-56678857D01*
X139972374Y-56730861D01*
X139978317Y-56734292D01*
X140003998Y-56753998D01*
X140996002Y-57746002D01*
X141015707Y-57771680D01*
X141019138Y-57777623D01*
X141019139Y-57777625D01*
X141107379Y-57892621D01*
X141136218Y-57914750D01*
X141222374Y-57980861D01*
X141228317Y-57984292D01*
X141253998Y-58003998D01*
X142084339Y-58834339D01*
X142095033Y-58846532D01*
X142107376Y-58862618D01*
X142107377Y-58862619D01*
X142107379Y-58862621D01*
X142123470Y-58874968D01*
X142135656Y-58885656D01*
X142250000Y-59000000D01*
X142316345Y-59000000D01*
X142347595Y-59007377D01*
X142348440Y-59004226D01*
X142356284Y-59006327D01*
X142356291Y-59006330D01*
X142483280Y-59023048D01*
X142499999Y-59025250D01*
X142500000Y-59025250D01*
X142500001Y-59025250D01*
X142514977Y-59023278D01*
X142643709Y-59006330D01*
X142643717Y-59006326D01*
X142651560Y-59004226D01*
X142652404Y-59007377D01*
X142683655Y-59000000D01*
X143816345Y-59000000D01*
X143847595Y-59007377D01*
X143848440Y-59004226D01*
X143856284Y-59006327D01*
X143856291Y-59006330D01*
X143983280Y-59023048D01*
X143999999Y-59025250D01*
X144000000Y-59025250D01*
X144000001Y-59025250D01*
X144014977Y-59023278D01*
X144143709Y-59006330D01*
X144143717Y-59006326D01*
X144151560Y-59004226D01*
X144152404Y-59007377D01*
X144183655Y-59000000D01*
X144250000Y-59000000D01*
X144364359Y-58885640D01*
X144376539Y-58874961D01*
X144392621Y-58862621D01*
X144404968Y-58846529D01*
X144415643Y-58834356D01*
X144750000Y-58500000D01*
X144750000Y-57300915D01*
X144750500Y-57290747D01*
X144750500Y-55874000D01*
X144770185Y-55806961D01*
X144822989Y-55761206D01*
X144874500Y-55750000D01*
X145275500Y-55750000D01*
X145342539Y-55769685D01*
X145388294Y-55822489D01*
X145399500Y-55874000D01*
X145399500Y-57289752D01*
X145411131Y-57348229D01*
X145411132Y-57348230D01*
X145455448Y-57414553D01*
X145463681Y-57422786D01*
X145497166Y-57484109D01*
X145498479Y-57496329D01*
X145500000Y-57500000D01*
X145963681Y-57963681D01*
X145997166Y-58025004D01*
X146000000Y-58051362D01*
X146000000Y-60049363D01*
X145980315Y-60116402D01*
X145927511Y-60162157D01*
X145858353Y-60172101D01*
X145820545Y-60160272D01*
X145543526Y-60021762D01*
X145492368Y-59974174D01*
X145486599Y-59963257D01*
X145453224Y-59891684D01*
X145368316Y-59806776D01*
X145272820Y-59762245D01*
X145263056Y-59755408D01*
X145250000Y-59750000D01*
X145249999Y-59750000D01*
X145221588Y-59750000D01*
X145213477Y-59749734D01*
X145209907Y-59749500D01*
X144790095Y-59749500D01*
X144786542Y-59749734D01*
X144778430Y-59750000D01*
X144750001Y-59750000D01*
X144750000Y-59750000D01*
X144749999Y-59750000D01*
X144736952Y-59755403D01*
X144727182Y-59762244D01*
X144631683Y-59806776D01*
X144546776Y-59891683D01*
X144502247Y-59987176D01*
X144477546Y-60022452D01*
X144036319Y-60463681D01*
X143974996Y-60497166D01*
X143948638Y-60500000D01*
X140801362Y-60500000D01*
X140734323Y-60480315D01*
X140713681Y-60463681D01*
X136000000Y-55750000D01*
X133301362Y-55750000D01*
X133234323Y-55730315D01*
X133213681Y-55713681D01*
X133036319Y-55536319D01*
X133002834Y-55474996D01*
X133000000Y-55448638D01*
X133000000Y-55286583D01*
X133001295Y-55268707D01*
X133010500Y-55205528D01*
X133010500Y-54794472D01*
X133001294Y-54731289D01*
X133000000Y-54713417D01*
X133000000Y-54551362D01*
X133019685Y-54484323D01*
X133036319Y-54463681D01*
X133213681Y-54286319D01*
X133275004Y-54252834D01*
X133301362Y-54250000D01*
X137448638Y-54250000D01*
X137515677Y-54269685D01*
G37*
%TD.AperFunction*%
%TD*%
%TA.AperFunction,Conductor*%
%TO.N,GND*%
G36*
X129515677Y-90519685D02*
G01*
X129536319Y-90536319D01*
X129963681Y-90963681D01*
X129997166Y-91025004D01*
X130000000Y-91051362D01*
X130000000Y-92500000D01*
X130463681Y-92963681D01*
X130497166Y-93025004D01*
X130500000Y-93051362D01*
X130500000Y-93278411D01*
X130499735Y-93286520D01*
X130499500Y-93290105D01*
X130499500Y-93709902D01*
X130499734Y-93713456D01*
X130500000Y-93721569D01*
X130500000Y-93948638D01*
X130480315Y-94015677D01*
X130463681Y-94036319D01*
X130286319Y-94213681D01*
X130224996Y-94247166D01*
X130198638Y-94250000D01*
X128801362Y-94250000D01*
X128734323Y-94230315D01*
X128713681Y-94213681D01*
X128286319Y-93786319D01*
X128252834Y-93724996D01*
X128250000Y-93698638D01*
X128250000Y-90624000D01*
X128269685Y-90556961D01*
X128322489Y-90511206D01*
X128374000Y-90500000D01*
X129448638Y-90500000D01*
X129515677Y-90519685D01*
G37*
%TD.AperFunction*%
%TD*%
%TA.AperFunction,Conductor*%
%TO.N,+3V3*%
G36*
X166265677Y-53269685D02*
G01*
X166286319Y-53286319D01*
X166463681Y-53463681D01*
X166497166Y-53525004D01*
X166500000Y-53551362D01*
X166500000Y-57948638D01*
X166480315Y-58015677D01*
X166463681Y-58036319D01*
X166250000Y-58249999D01*
X166250000Y-61126000D01*
X166230315Y-61193039D01*
X166177511Y-61238794D01*
X166126000Y-61250000D01*
X166000000Y-61250000D01*
X165299000Y-61250000D01*
X165231961Y-61230315D01*
X165186206Y-61177511D01*
X165175000Y-61126000D01*
X165175000Y-58862694D01*
X165177381Y-58838512D01*
X165179803Y-58826333D01*
X165182258Y-58816229D01*
X165188402Y-58794910D01*
X165188401Y-58794904D01*
X165190994Y-58785909D01*
X165191666Y-58782576D01*
X165197173Y-58763824D01*
X165197173Y-58763823D01*
X165197175Y-58763817D01*
X165205500Y-58705917D01*
X165205500Y-55551362D01*
X165204322Y-55529393D01*
X165201488Y-55503035D01*
X165177529Y-55426518D01*
X165144044Y-55365195D01*
X165108991Y-55318371D01*
X165036319Y-55245699D01*
X165002834Y-55184376D01*
X165000000Y-55158018D01*
X165000000Y-53801362D01*
X165019685Y-53734323D01*
X165036319Y-53713681D01*
X165463681Y-53286319D01*
X165525004Y-53252834D01*
X165551362Y-53250000D01*
X166198638Y-53250000D01*
X166265677Y-53269685D01*
G37*
%TD.AperFunction*%
%TD*%
%TA.AperFunction,Conductor*%
%TO.N,GND*%
G36*
X160765677Y-96519685D02*
G01*
X160786319Y-96536319D01*
X160853181Y-96603181D01*
X160886666Y-96664504D01*
X160889500Y-96690862D01*
X160889500Y-96807738D01*
X160888720Y-96821623D01*
X160884729Y-96857036D01*
X160895355Y-96913196D01*
X160896132Y-96917765D01*
X160904652Y-96974291D01*
X160907162Y-96982427D01*
X160909976Y-96990470D01*
X160936688Y-97041011D01*
X160938776Y-97045149D01*
X160963574Y-97096641D01*
X160968365Y-97103670D01*
X160973431Y-97110534D01*
X160973434Y-97110538D01*
X160973437Y-97110541D01*
X160975766Y-97113696D01*
X160977247Y-97117751D01*
X160977765Y-97118730D01*
X160977630Y-97118800D01*
X160999741Y-97179324D01*
X161000000Y-97187336D01*
X161000000Y-98198638D01*
X160980315Y-98265677D01*
X160963681Y-98286319D01*
X160750000Y-98499999D01*
X160750000Y-101448638D01*
X160730315Y-101515677D01*
X160713681Y-101536319D01*
X160536319Y-101713681D01*
X160474996Y-101747166D01*
X160448638Y-101750000D01*
X159551362Y-101750000D01*
X159484323Y-101730315D01*
X159463681Y-101713681D01*
X159286319Y-101536319D01*
X159252834Y-101474996D01*
X159250000Y-101448638D01*
X159250000Y-98551362D01*
X159269685Y-98484323D01*
X159286319Y-98463681D01*
X159500000Y-98250000D01*
X159500000Y-97301362D01*
X159519685Y-97234323D01*
X159536319Y-97213681D01*
X160213681Y-96536319D01*
X160275004Y-96502834D01*
X160301362Y-96500000D01*
X160698638Y-96500000D01*
X160765677Y-96519685D01*
G37*
%TD.AperFunction*%
%TD*%
%TA.AperFunction,Conductor*%
%TO.N,GND*%
G36*
X150943039Y-56019685D02*
G01*
X150988794Y-56072489D01*
X151000000Y-56124000D01*
X151000000Y-56250000D01*
X151138023Y-56388023D01*
X151166284Y-56431732D01*
X151181433Y-56471678D01*
X151195182Y-56507930D01*
X151291817Y-56647929D01*
X151397505Y-56741560D01*
X151419150Y-56760736D01*
X151569773Y-56839789D01*
X151569775Y-56839790D01*
X151734944Y-56880500D01*
X151905056Y-56880500D01*
X152070225Y-56839790D01*
X152125315Y-56810875D01*
X152214242Y-56764204D01*
X152271868Y-56750000D01*
X152698638Y-56750000D01*
X152765677Y-56769685D01*
X152786319Y-56786319D01*
X152963681Y-56963681D01*
X152997166Y-57025004D01*
X153000000Y-57051362D01*
X153000000Y-58698638D01*
X152980315Y-58765677D01*
X152963681Y-58786319D01*
X152786319Y-58963681D01*
X152724996Y-58997166D01*
X152698638Y-59000000D01*
X150801362Y-59000000D01*
X150734323Y-58980315D01*
X150713681Y-58963681D01*
X150536319Y-58786319D01*
X150502834Y-58724996D01*
X150500000Y-58698638D01*
X150500000Y-56124000D01*
X150519685Y-56056961D01*
X150572489Y-56011206D01*
X150624000Y-56000000D01*
X150876000Y-56000000D01*
X150943039Y-56019685D01*
G37*
%TD.AperFunction*%
%TD*%
%TA.AperFunction,Conductor*%
%TO.N,GND*%
G36*
X133058466Y-55854567D02*
G01*
X133081913Y-55871156D01*
X133084723Y-55873680D01*
X133084730Y-55873686D01*
X133084738Y-55873693D01*
X133093136Y-55880460D01*
X133105379Y-55890327D01*
X133176424Y-55927490D01*
X133243456Y-55947173D01*
X133243458Y-55947173D01*
X133243464Y-55947175D01*
X133301362Y-55955500D01*
X135863518Y-55955500D01*
X135930557Y-55975185D01*
X135951199Y-55991819D01*
X135963681Y-56004301D01*
X135997166Y-56065624D01*
X136000000Y-56091982D01*
X136000000Y-57948638D01*
X135980315Y-58015677D01*
X135963681Y-58036319D01*
X135536319Y-58463681D01*
X135474996Y-58497166D01*
X135448638Y-58500000D01*
X131749999Y-58500000D01*
X131250000Y-58999999D01*
X131250000Y-59000000D01*
X131250000Y-59750000D01*
X131250000Y-60209380D01*
X130745170Y-59704550D01*
X130711685Y-59643227D01*
X130714378Y-59580261D01*
X130715572Y-59576396D01*
X130715572Y-59576394D01*
X130715573Y-59576393D01*
X130725500Y-59508260D01*
X130725500Y-59141740D01*
X130715573Y-59073607D01*
X130715572Y-59073605D01*
X130712730Y-59064408D01*
X130714638Y-59063818D01*
X130705500Y-59024315D01*
X130705500Y-58386483D01*
X130725185Y-58319444D01*
X130741819Y-58298802D01*
X130792542Y-58248078D01*
X130858991Y-58181630D01*
X130873693Y-58165262D01*
X130873698Y-58165254D01*
X130873704Y-58165249D01*
X130890325Y-58144623D01*
X130890325Y-58144622D01*
X130890327Y-58144620D01*
X130927490Y-58073575D01*
X130947175Y-58006536D01*
X130955500Y-57948638D01*
X130955500Y-56136481D01*
X130975185Y-56069442D01*
X130991819Y-56048800D01*
X131048800Y-55991819D01*
X131110123Y-55958334D01*
X131136481Y-55955500D01*
X132698619Y-55955500D01*
X132698637Y-55955500D01*
X132720616Y-55954321D01*
X132746989Y-55951484D01*
X132823519Y-55927513D01*
X132884838Y-55894020D01*
X132924731Y-55864148D01*
X132990191Y-55839724D01*
X133058466Y-55854567D01*
G37*
%TD.AperFunction*%
%TD*%
%TA.AperFunction,Conductor*%
%TO.N,+3V3*%
G36*
X150193039Y-84019685D02*
G01*
X150238794Y-84072489D01*
X150250000Y-84124000D01*
X150250000Y-85346490D01*
X150230315Y-85413529D01*
X150213681Y-85434171D01*
X150155365Y-85492486D01*
X150104355Y-85596828D01*
X150104355Y-85596830D01*
X150094500Y-85664472D01*
X150094500Y-85664477D01*
X150094500Y-86075530D01*
X150095700Y-86083769D01*
X150085883Y-86152946D01*
X150060680Y-86189318D01*
X150036322Y-86213678D01*
X149975000Y-86247165D01*
X149948637Y-86250000D01*
X148551362Y-86250000D01*
X148484323Y-86230315D01*
X148463681Y-86213681D01*
X148286319Y-86036319D01*
X148252834Y-85974996D01*
X148250000Y-85948638D01*
X148250000Y-84301362D01*
X148269685Y-84234323D01*
X148286319Y-84213681D01*
X148463681Y-84036319D01*
X148525004Y-84002834D01*
X148551362Y-84000000D01*
X150126000Y-84000000D01*
X150193039Y-84019685D01*
G37*
%TD.AperFunction*%
%TD*%
%TA.AperFunction,Conductor*%
%TO.N,GND*%
G36*
X162250000Y-58713599D02*
G01*
X162244553Y-58705448D01*
X162178230Y-58661132D01*
X162178229Y-58661131D01*
X162119752Y-58649500D01*
X162119748Y-58649500D01*
X161340252Y-58649500D01*
X161340247Y-58649500D01*
X161281770Y-58661131D01*
X161281769Y-58661132D01*
X161215446Y-58705448D01*
X161207214Y-58713681D01*
X161145891Y-58747166D01*
X161119533Y-58750000D01*
X161000000Y-58750000D01*
X161000000Y-61126000D01*
X160980315Y-61193039D01*
X160927511Y-61238794D01*
X160876000Y-61250000D01*
X160750000Y-61250000D01*
X160250000Y-61250000D01*
X160124000Y-61250000D01*
X160056961Y-61230315D01*
X160011206Y-61177511D01*
X160000000Y-61126000D01*
X160000000Y-59000000D01*
X157250000Y-56250000D01*
X162250000Y-56250000D01*
X162250000Y-58713599D01*
G37*
%TD.AperFunction*%
%TD*%
%TA.AperFunction,Conductor*%
%TO.N,GND*%
G36*
X132430557Y-71725185D02*
G01*
X132451199Y-71741819D01*
X132758181Y-72048801D01*
X132791666Y-72110124D01*
X132794500Y-72136482D01*
X132794500Y-72876007D01*
X132799197Y-72919686D01*
X132810397Y-72971174D01*
X132812890Y-72981373D01*
X132831004Y-73015366D01*
X132845572Y-73073680D01*
X132845572Y-73100004D01*
X132861131Y-73178229D01*
X132861132Y-73178230D01*
X132905447Y-73244552D01*
X132949762Y-73274162D01*
X132971769Y-73288867D01*
X133018635Y-73298189D01*
X133080545Y-73330572D01*
X133082125Y-73332125D01*
X133298827Y-73548827D01*
X133332312Y-73610150D01*
X133327328Y-73679842D01*
X133324989Y-73684908D01*
X133325209Y-73685001D01*
X133322511Y-73691419D01*
X133302826Y-73758458D01*
X133294500Y-73816365D01*
X133294500Y-74613515D01*
X133274815Y-74680554D01*
X133258181Y-74701196D01*
X133139871Y-74819505D01*
X133131355Y-74828552D01*
X133121449Y-74839734D01*
X133121441Y-74839744D01*
X133084352Y-74899961D01*
X133058499Y-74964862D01*
X133058497Y-74964869D01*
X133049774Y-75001094D01*
X133046261Y-75013020D01*
X133025226Y-75073133D01*
X133007957Y-75105808D01*
X132986297Y-75135158D01*
X132960156Y-75161299D01*
X132930810Y-75182956D01*
X132898138Y-75200224D01*
X132861516Y-75213040D01*
X132820557Y-75220000D01*
X132279441Y-75220000D01*
X132238486Y-75213041D01*
X132201864Y-75200226D01*
X132169190Y-75182956D01*
X132110466Y-75139616D01*
X132099295Y-75130313D01*
X132088032Y-75119755D01*
X132085211Y-75117159D01*
X132085206Y-75117156D01*
X132005394Y-75072511D01*
X132005389Y-75072509D01*
X131938357Y-75052826D01*
X131938353Y-75052825D01*
X131938352Y-75052825D01*
X131880454Y-75044500D01*
X131880450Y-75044500D01*
X131636482Y-75044500D01*
X131569443Y-75024815D01*
X131548801Y-75008181D01*
X131448482Y-74907862D01*
X131448451Y-74907832D01*
X131445855Y-74905280D01*
X131442670Y-74902206D01*
X131439499Y-74899962D01*
X131391941Y-74866304D01*
X131391942Y-74866304D01*
X131329470Y-74835033D01*
X131306340Y-74825175D01*
X131215509Y-74814472D01*
X131146052Y-74821940D01*
X131146032Y-74821944D01*
X131098107Y-74834175D01*
X131083631Y-74836965D01*
X131016184Y-74845845D01*
X130983813Y-74845845D01*
X130923707Y-74837932D01*
X130907708Y-74834439D01*
X130907705Y-74834456D01*
X130905740Y-74834010D01*
X130903371Y-74833493D01*
X130903119Y-74833415D01*
X130903115Y-74833414D01*
X130842529Y-74819666D01*
X130772837Y-74814682D01*
X130747704Y-74814426D01*
X130747703Y-74814426D01*
X130659695Y-74839294D01*
X130659693Y-74839295D01*
X130598372Y-74872778D01*
X130551548Y-74907831D01*
X130551536Y-74907841D01*
X130391508Y-75067870D01*
X130391506Y-75067871D01*
X130376819Y-75084221D01*
X130376796Y-75084248D01*
X130360174Y-75104876D01*
X130360167Y-75104885D01*
X130323008Y-75175924D01*
X130323005Y-75175931D01*
X130303325Y-75242956D01*
X130303321Y-75242972D01*
X130294999Y-75300861D01*
X130294999Y-75701196D01*
X130294887Y-75705777D01*
X130294907Y-75705778D01*
X130294609Y-75714903D01*
X130294500Y-75721564D01*
X130294500Y-76198638D01*
X130295678Y-76220618D01*
X130298511Y-76246965D01*
X130298512Y-76246967D01*
X130322470Y-76323478D01*
X130322471Y-76323483D01*
X130328826Y-76335120D01*
X130355956Y-76384805D01*
X130355958Y-76384808D01*
X130355960Y-76384811D01*
X130390998Y-76431615D01*
X130391002Y-76431619D01*
X130391009Y-76431629D01*
X130391016Y-76431636D01*
X130758181Y-76798801D01*
X130791666Y-76860124D01*
X130794500Y-76886482D01*
X130794500Y-77482325D01*
X130796993Y-77514236D01*
X130802977Y-77552291D01*
X130836083Y-77635972D01*
X130836085Y-77635976D01*
X130851619Y-77658805D01*
X130875392Y-77693744D01*
X130889734Y-77712272D01*
X130890780Y-77713623D01*
X130948658Y-77755512D01*
X130991425Y-77810764D01*
X130999226Y-77862253D01*
X130999500Y-77862253D01*
X130999500Y-77864064D01*
X130999631Y-77864929D01*
X130999500Y-77866735D01*
X130999500Y-78233265D01*
X130999675Y-78235679D01*
X131000000Y-78244645D01*
X131000000Y-78500000D01*
X131136925Y-78500000D01*
X131191384Y-78512598D01*
X131248607Y-78540573D01*
X131254153Y-78541381D01*
X131316739Y-78550500D01*
X131316740Y-78550500D01*
X132408259Y-78550500D01*
X132408260Y-78550500D01*
X132470845Y-78541381D01*
X132540021Y-78551194D01*
X132576404Y-78576404D01*
X132713681Y-78713681D01*
X132747166Y-78775004D01*
X132750000Y-78801362D01*
X132750000Y-79198637D01*
X132730315Y-79265676D01*
X132713681Y-79286319D01*
X132576403Y-79423596D01*
X132515080Y-79457080D01*
X132470846Y-79458618D01*
X132408260Y-79449500D01*
X131316740Y-79449500D01*
X131316739Y-79449500D01*
X131248608Y-79459426D01*
X131191385Y-79487401D01*
X131136925Y-79500000D01*
X130551362Y-79500000D01*
X130484323Y-79480315D01*
X130463681Y-79463681D01*
X130250000Y-79250000D01*
X130040398Y-79250000D01*
X130032162Y-79249614D01*
X130032162Y-79249635D01*
X130029277Y-79249500D01*
X130029266Y-79249500D01*
X128970734Y-79249500D01*
X128970723Y-79249500D01*
X128967838Y-79249635D01*
X128967837Y-79249614D01*
X128959602Y-79250000D01*
X128829500Y-79250000D01*
X128762461Y-79230315D01*
X128716706Y-79177511D01*
X128705500Y-79126000D01*
X128705500Y-79051361D01*
X128704321Y-79029381D01*
X128701488Y-79003034D01*
X128701487Y-79003032D01*
X128677529Y-78926518D01*
X128644044Y-78865195D01*
X128608991Y-78818371D01*
X128491819Y-78701199D01*
X128458334Y-78639876D01*
X128455500Y-78613518D01*
X128455500Y-73595861D01*
X128475185Y-73528822D01*
X128491814Y-73508185D01*
X128758182Y-73241817D01*
X128819503Y-73208334D01*
X128845861Y-73205500D01*
X130448639Y-73205500D01*
X130451180Y-73205363D01*
X130470607Y-73204322D01*
X130470614Y-73204321D01*
X130470618Y-73204321D01*
X130496965Y-73201488D01*
X130573482Y-73177529D01*
X130634805Y-73144044D01*
X130681629Y-73108991D01*
X130858991Y-72931629D01*
X130873693Y-72915262D01*
X130890327Y-72894620D01*
X130927490Y-72823575D01*
X130947175Y-72756536D01*
X130955500Y-72698638D01*
X130955500Y-71886481D01*
X130975185Y-71819442D01*
X130991819Y-71798800D01*
X131048800Y-71741819D01*
X131110123Y-71708334D01*
X131136481Y-71705500D01*
X132363518Y-71705500D01*
X132430557Y-71725185D01*
G37*
%TD.AperFunction*%
%TD*%
%TA.AperFunction,Conductor*%
%TO.N,GND*%
G36*
X133443039Y-92870185D02*
G01*
X133488794Y-92922989D01*
X133500000Y-92974500D01*
X133500000Y-93500000D01*
X133750000Y-93750000D01*
X134448638Y-93750000D01*
X134515677Y-93769685D01*
X134536319Y-93786319D01*
X134963681Y-94213681D01*
X134997166Y-94275004D01*
X135000000Y-94301362D01*
X135000000Y-94528411D01*
X134999735Y-94536520D01*
X134999500Y-94540105D01*
X134999500Y-94959902D01*
X134999734Y-94963456D01*
X135000000Y-94971569D01*
X135000000Y-95250000D01*
X133250000Y-95250000D01*
X132036319Y-94036319D01*
X132002834Y-93974996D01*
X132000000Y-93948638D01*
X132000000Y-92974500D01*
X132019685Y-92907461D01*
X132072489Y-92861706D01*
X132124000Y-92850500D01*
X133376000Y-92850500D01*
X133443039Y-92870185D01*
G37*
%TD.AperFunction*%
%TD*%
%TA.AperFunction,Conductor*%
%TO.N,GND*%
G36*
X164515677Y-55019685D02*
G01*
X164536319Y-55036319D01*
X164963681Y-55463681D01*
X164997166Y-55525004D01*
X165000000Y-55551362D01*
X165000000Y-58705917D01*
X164984174Y-58759811D01*
X164985806Y-58760487D01*
X164981131Y-58771770D01*
X164969500Y-58830247D01*
X164969500Y-61126000D01*
X164949815Y-61193039D01*
X164897011Y-61238794D01*
X164845500Y-61250000D01*
X164750000Y-61250000D01*
X163750000Y-61250000D01*
X163500000Y-61250000D01*
X163250000Y-61250000D01*
X162500000Y-61250000D01*
X162424500Y-61250000D01*
X162357461Y-61230315D01*
X162311706Y-61177511D01*
X162300500Y-61126000D01*
X162300500Y-58830249D01*
X162300499Y-58830247D01*
X162288868Y-58771770D01*
X162288867Y-58771769D01*
X162250000Y-58713600D01*
X162250000Y-58500000D01*
X162250000Y-56250000D01*
X162250000Y-55000000D01*
X164448638Y-55000000D01*
X164515677Y-55019685D01*
G37*
%TD.AperFunction*%
%TD*%
%TA.AperFunction,Conductor*%
%TO.N,GND*%
G36*
X162250000Y-56250000D02*
G01*
X157250000Y-56250000D01*
X157036319Y-56036319D01*
X157002834Y-55974996D01*
X157000000Y-55948638D01*
X157000000Y-55301362D01*
X157019685Y-55234323D01*
X157036319Y-55213681D01*
X157213183Y-55036816D01*
X157274504Y-55003333D01*
X157300852Y-55000499D01*
X157709900Y-55000499D01*
X157709904Y-55000499D01*
X157713458Y-55000266D01*
X157721570Y-55000000D01*
X162250000Y-55000000D01*
X162250000Y-56250000D01*
G37*
%TD.AperFunction*%
%TD*%
%TA.AperFunction,Conductor*%
%TO.N,+3V3*%
G36*
X161765677Y-86019685D02*
G01*
X161786319Y-86036319D01*
X162240797Y-86490797D01*
X162261172Y-86521288D01*
X162262240Y-86520672D01*
X162266299Y-86527703D01*
X162266303Y-86527708D01*
X162266304Y-86527710D01*
X162354544Y-86642706D01*
X162469540Y-86730946D01*
X162469543Y-86730947D01*
X162469544Y-86730948D01*
X162476579Y-86735010D01*
X162475961Y-86736079D01*
X162506452Y-86756452D01*
X162713681Y-86963681D01*
X162747166Y-87025004D01*
X162750000Y-87051362D01*
X162750000Y-88876000D01*
X162730315Y-88943039D01*
X162677511Y-88988794D01*
X162626000Y-89000000D01*
X161124000Y-89000000D01*
X161056961Y-88980315D01*
X161011206Y-88927511D01*
X161000000Y-88876000D01*
X161000000Y-88422765D01*
X161019685Y-88355726D01*
X161023054Y-88350752D01*
X161029584Y-88341605D01*
X161032604Y-88337556D01*
X161062517Y-88299126D01*
X161062518Y-88299120D01*
X161066013Y-88292663D01*
X161069236Y-88286070D01*
X161069240Y-88286066D01*
X161083138Y-88239382D01*
X161084674Y-88234583D01*
X161100500Y-88188488D01*
X161100500Y-88188481D01*
X161101706Y-88181252D01*
X161102617Y-88173952D01*
X161100606Y-88125332D01*
X161100500Y-88120207D01*
X161100500Y-86625865D01*
X161100499Y-86625847D01*
X161100499Y-86124000D01*
X161120184Y-86056961D01*
X161172988Y-86011206D01*
X161224499Y-86000000D01*
X161698638Y-86000000D01*
X161765677Y-86019685D01*
G37*
%TD.AperFunction*%
%TD*%
%TA.AperFunction,Conductor*%
%TO.N,GND*%
G36*
X151866177Y-82120185D02*
G01*
X151886819Y-82136819D01*
X152250000Y-82500000D01*
X152750128Y-82500000D01*
X152817167Y-82519685D01*
X152822180Y-82523082D01*
X152831242Y-82529552D01*
X152835353Y-82532617D01*
X152873768Y-82562517D01*
X152880240Y-82566019D01*
X152886825Y-82569238D01*
X152886828Y-82569240D01*
X152911382Y-82576550D01*
X152970018Y-82614545D01*
X152998803Y-82678210D01*
X153000000Y-82695395D01*
X153000000Y-83198638D01*
X152980315Y-83265677D01*
X152963681Y-83286319D01*
X152886819Y-83363181D01*
X152825496Y-83396666D01*
X152799138Y-83399500D01*
X152779206Y-83399500D01*
X152753761Y-83396861D01*
X152752831Y-83396666D01*
X152744685Y-83394958D01*
X152744684Y-83394958D01*
X152715884Y-83398548D01*
X152702181Y-83399398D01*
X152700962Y-83399499D01*
X152681990Y-83402665D01*
X152676923Y-83403403D01*
X152628605Y-83409426D01*
X152621584Y-83411516D01*
X152614617Y-83413908D01*
X152571812Y-83437072D01*
X152567261Y-83439415D01*
X152523513Y-83460803D01*
X152517566Y-83465048D01*
X152506895Y-83473354D01*
X152441901Y-83498996D01*
X152430734Y-83499500D01*
X152290105Y-83499500D01*
X152274386Y-83501569D01*
X152240513Y-83506028D01*
X152240511Y-83506029D01*
X152240509Y-83506029D01*
X152131683Y-83556776D01*
X152046776Y-83641683D01*
X152029653Y-83678405D01*
X151983481Y-83730844D01*
X151917271Y-83750000D01*
X148500000Y-83750000D01*
X148441347Y-83808651D01*
X148413097Y-83829799D01*
X148365188Y-83855960D01*
X148318384Y-83890998D01*
X148318363Y-83891016D01*
X148245699Y-83963681D01*
X148184376Y-83997166D01*
X148158018Y-84000000D01*
X147801362Y-84000000D01*
X147734323Y-83980315D01*
X147713681Y-83963681D01*
X147536319Y-83786319D01*
X147502834Y-83724996D01*
X147500000Y-83698638D01*
X147500000Y-82301362D01*
X147519685Y-82234323D01*
X147536319Y-82213681D01*
X147582474Y-82167526D01*
X147643797Y-82134041D01*
X147670155Y-82131207D01*
X148659499Y-82131207D01*
X148684944Y-82133845D01*
X148694025Y-82135750D01*
X148719383Y-82132588D01*
X148722833Y-82132159D01*
X148736474Y-82131312D01*
X148737736Y-82131207D01*
X148737750Y-82131207D01*
X148745781Y-82129866D01*
X148756724Y-82128041D01*
X148761773Y-82127304D01*
X148810103Y-82121280D01*
X148810109Y-82121276D01*
X148817156Y-82119178D01*
X148824079Y-82116800D01*
X148824091Y-82116799D01*
X148826593Y-82115445D01*
X148832083Y-82114054D01*
X148833810Y-82113462D01*
X148833859Y-82113604D01*
X148885609Y-82100500D01*
X151799138Y-82100500D01*
X151866177Y-82120185D01*
G37*
%TD.AperFunction*%
%TD*%
%TA.AperFunction,Conductor*%
%TO.N,+3V3*%
G36*
X129801362Y-63705500D02*
G01*
X130363518Y-63705500D01*
X130430557Y-63725185D01*
X130451199Y-63741819D01*
X131068365Y-64358986D01*
X131068366Y-64358987D01*
X131084716Y-64373674D01*
X131084730Y-64373686D01*
X131084738Y-64373693D01*
X131093136Y-64380460D01*
X131105379Y-64390327D01*
X131176424Y-64427490D01*
X131243456Y-64447173D01*
X131243458Y-64447173D01*
X131243464Y-64447175D01*
X131301362Y-64455500D01*
X131301366Y-64455500D01*
X131459605Y-64455500D01*
X131460249Y-64455484D01*
X131469224Y-64455275D01*
X131471987Y-64455145D01*
X131472191Y-64455136D01*
X131477995Y-64455000D01*
X132522006Y-64455000D01*
X132527810Y-64455136D01*
X132527948Y-64455142D01*
X132530777Y-64455275D01*
X132539750Y-64455484D01*
X132540395Y-64455500D01*
X132540398Y-64455500D01*
X134875991Y-64455500D01*
X134876000Y-64455500D01*
X134919684Y-64450803D01*
X134948875Y-64444452D01*
X134971174Y-64439602D01*
X134971190Y-64439598D01*
X134971195Y-64439597D01*
X134981373Y-64437110D01*
X135062085Y-64394100D01*
X135114889Y-64348345D01*
X135132843Y-64330754D01*
X135142515Y-64313462D01*
X135192423Y-64264566D01*
X135250734Y-64250000D01*
X139948638Y-64250000D01*
X140015677Y-64269685D01*
X140036319Y-64286319D01*
X140713681Y-64963681D01*
X140747166Y-65025004D01*
X140750000Y-65051362D01*
X140750000Y-66948638D01*
X140730315Y-67015677D01*
X140713681Y-67036319D01*
X140036319Y-67713681D01*
X139974996Y-67747166D01*
X139948638Y-67750000D01*
X130551362Y-67750000D01*
X130484323Y-67730315D01*
X130463681Y-67713681D01*
X129536319Y-66786319D01*
X129502834Y-66724996D01*
X129500000Y-66698638D01*
X129500000Y-66323403D01*
X129519685Y-66256364D01*
X129571596Y-66211020D01*
X129588316Y-66203224D01*
X129673224Y-66118316D01*
X129723972Y-66009487D01*
X129730500Y-65959901D01*
X129730499Y-65540100D01*
X129723972Y-65490513D01*
X129673224Y-65381684D01*
X129606819Y-65315279D01*
X129573334Y-65253956D01*
X129570500Y-65227598D01*
X129570500Y-64745331D01*
X129590185Y-64678292D01*
X129606819Y-64657650D01*
X129634065Y-64630404D01*
X129684068Y-64523173D01*
X129690500Y-64474316D01*
X129690500Y-64025684D01*
X129684068Y-63976827D01*
X129636906Y-63875689D01*
X129626415Y-63806615D01*
X129654934Y-63742831D01*
X129713411Y-63704591D01*
X129766937Y-63700550D01*
X129801362Y-63705500D01*
G37*
%TD.AperFunction*%
%TD*%
%TA.AperFunction,Conductor*%
%TO.N,/Power/BUCK_SW*%
G36*
X138475057Y-58519685D02*
G01*
X138495699Y-58536319D01*
X138963681Y-59004301D01*
X138997166Y-59065624D01*
X139000000Y-59091982D01*
X139000000Y-60948638D01*
X138980315Y-61015677D01*
X138963681Y-61036319D01*
X138536319Y-61463681D01*
X138474996Y-61497166D01*
X138448638Y-61500000D01*
X135091982Y-61500000D01*
X135024943Y-61480315D01*
X135004301Y-61463681D01*
X133181634Y-59641013D01*
X133181633Y-59641012D01*
X133165283Y-59626325D01*
X133165269Y-59626313D01*
X133144620Y-59609672D01*
X133073575Y-59572509D01*
X133006543Y-59552826D01*
X133005894Y-59552732D01*
X132948638Y-59544500D01*
X132914213Y-59544500D01*
X132867889Y-59549788D01*
X132867886Y-59549789D01*
X132813441Y-59562385D01*
X132769496Y-59577980D01*
X132732743Y-59595947D01*
X132709313Y-59607401D01*
X132654856Y-59620000D01*
X131620144Y-59620000D01*
X131565683Y-59607400D01*
X131525039Y-59587530D01*
X131473457Y-59540402D01*
X131455500Y-59476130D01*
X131455500Y-59136482D01*
X131475185Y-59069443D01*
X131491819Y-59048801D01*
X131798801Y-58741819D01*
X131860124Y-58708334D01*
X131886482Y-58705500D01*
X135448639Y-58705500D01*
X135451180Y-58705363D01*
X135470607Y-58704322D01*
X135470614Y-58704321D01*
X135470618Y-58704321D01*
X135496965Y-58701488D01*
X135573482Y-58677529D01*
X135634805Y-58644044D01*
X135681629Y-58608991D01*
X135754301Y-58536319D01*
X135815624Y-58502834D01*
X135841982Y-58500000D01*
X138408018Y-58500000D01*
X138475057Y-58519685D01*
G37*
%TD.AperFunction*%
%TD*%
%TA.AperFunction,Conductor*%
%TO.N,GND*%
G36*
X147765677Y-76269685D02*
G01*
X147786319Y-76286319D01*
X147805532Y-76305532D01*
X147839017Y-76366855D01*
X147834033Y-76436547D01*
X147820955Y-76462102D01*
X147801131Y-76491770D01*
X147789500Y-76550247D01*
X147789500Y-77789752D01*
X147801131Y-77848229D01*
X147801132Y-77848230D01*
X147845447Y-77914552D01*
X147911769Y-77958867D01*
X147911770Y-77958868D01*
X147970247Y-77970499D01*
X147970250Y-77970500D01*
X147970252Y-77970500D01*
X149169138Y-77970500D01*
X149236177Y-77990185D01*
X149256819Y-78006819D01*
X149403181Y-78153181D01*
X149436666Y-78214504D01*
X149439500Y-78240862D01*
X149439500Y-79626000D01*
X149419815Y-79693039D01*
X149367011Y-79738794D01*
X149315500Y-79750000D01*
X148750000Y-79750000D01*
X148749999Y-79750000D01*
X148749999Y-79750001D01*
X148730110Y-79829556D01*
X148694754Y-79889820D01*
X148662221Y-79911862D01*
X148651684Y-79916775D01*
X148566776Y-80001683D01*
X148516027Y-80110514D01*
X148509500Y-80160098D01*
X148509500Y-80579901D01*
X148513439Y-80609817D01*
X148502673Y-80678852D01*
X148456292Y-80731107D01*
X148390500Y-80750000D01*
X146801362Y-80750000D01*
X146734323Y-80730315D01*
X146713681Y-80713681D01*
X146536319Y-80536319D01*
X146502834Y-80474996D01*
X146500000Y-80448638D01*
X146500000Y-80051362D01*
X146519685Y-79984323D01*
X146536319Y-79963681D01*
X146713681Y-79786319D01*
X146775004Y-79752834D01*
X146801362Y-79750000D01*
X147000000Y-79750000D01*
X147018498Y-79731501D01*
X147019685Y-79727461D01*
X147072489Y-79681706D01*
X147124000Y-79670500D01*
X147209750Y-79670500D01*
X147209751Y-79670499D01*
X147224568Y-79667552D01*
X147268229Y-79658868D01*
X147268229Y-79658867D01*
X147268231Y-79658867D01*
X147334552Y-79614552D01*
X147378867Y-79548231D01*
X147378867Y-79548229D01*
X147378868Y-79548229D01*
X147390499Y-79489752D01*
X147390500Y-79489750D01*
X147390500Y-78250249D01*
X147390499Y-78250247D01*
X147378868Y-78191770D01*
X147378867Y-78191769D01*
X147334552Y-78125447D01*
X147268230Y-78081132D01*
X147268229Y-78081131D01*
X147209752Y-78069500D01*
X147209748Y-78069500D01*
X145770252Y-78069500D01*
X145770247Y-78069500D01*
X145711770Y-78081131D01*
X145711769Y-78081132D01*
X145645447Y-78125447D01*
X145599047Y-78194891D01*
X145545435Y-78239696D01*
X145495945Y-78250000D01*
X144801362Y-78250000D01*
X144734323Y-78230315D01*
X144713681Y-78213681D01*
X144536319Y-78036319D01*
X144502834Y-77974996D01*
X144500000Y-77948638D01*
X144500000Y-76551362D01*
X144519685Y-76484323D01*
X144536319Y-76463681D01*
X144713681Y-76286319D01*
X144775004Y-76252834D01*
X144801362Y-76250000D01*
X147698638Y-76250000D01*
X147765677Y-76269685D01*
G37*
%TD.AperFunction*%
%TD*%
%TA.AperFunction,Conductor*%
%TO.N,GND*%
G36*
X164092539Y-101769685D02*
G01*
X164138294Y-101822489D01*
X164149500Y-101874000D01*
X164149500Y-103244752D01*
X164161131Y-103303229D01*
X164161132Y-103303230D01*
X164205448Y-103369553D01*
X164213681Y-103377786D01*
X164247166Y-103439109D01*
X164250000Y-103465467D01*
X164250000Y-103750000D01*
X164496002Y-103996002D01*
X164515707Y-104021680D01*
X164519138Y-104027623D01*
X164519139Y-104027625D01*
X164607379Y-104142621D01*
X164701488Y-104214834D01*
X164742689Y-104271260D01*
X164750000Y-104313208D01*
X164750000Y-106698638D01*
X164730315Y-106765677D01*
X164713681Y-106786319D01*
X164500000Y-106999999D01*
X164500000Y-107136924D01*
X164487401Y-107191383D01*
X164459426Y-107248606D01*
X164459426Y-107248607D01*
X164449500Y-107316739D01*
X164449500Y-108376000D01*
X164429815Y-108443039D01*
X164377011Y-108488794D01*
X164325500Y-108500000D01*
X163674500Y-108500000D01*
X163607461Y-108480315D01*
X163561706Y-108427511D01*
X163550500Y-108376000D01*
X163550500Y-107316739D01*
X163540573Y-107248607D01*
X163540573Y-107248606D01*
X163512599Y-107191383D01*
X163500000Y-107136924D01*
X163500000Y-105750000D01*
X163260818Y-105750000D01*
X163238944Y-105746877D01*
X163238893Y-105747266D01*
X163179902Y-105739500D01*
X162820105Y-105739500D01*
X162802167Y-105741861D01*
X162770513Y-105746028D01*
X162770511Y-105746028D01*
X162761106Y-105747267D01*
X162761054Y-105746877D01*
X162739183Y-105750000D01*
X162053870Y-105750000D01*
X161986831Y-105730315D01*
X161941488Y-105678405D01*
X161914065Y-105619596D01*
X161830404Y-105535935D01*
X161766895Y-105506320D01*
X161731619Y-105481619D01*
X161250000Y-105000000D01*
X161124000Y-105000000D01*
X161056961Y-104980315D01*
X161011206Y-104927511D01*
X161000000Y-104876000D01*
X161000000Y-104721590D01*
X161000265Y-104713481D01*
X161000497Y-104709921D01*
X161000500Y-104709901D01*
X161000499Y-104290100D01*
X161000499Y-104290098D01*
X161000266Y-104286545D01*
X161000000Y-104278432D01*
X161000000Y-103801362D01*
X161019685Y-103734323D01*
X161036313Y-103713686D01*
X161199779Y-103550220D01*
X161261099Y-103516738D01*
X161303641Y-103514965D01*
X161345684Y-103520500D01*
X161694317Y-103520500D01*
X161704087Y-103519213D01*
X161743173Y-103514068D01*
X161743176Y-103514066D01*
X161743178Y-103514066D01*
X161748426Y-103511619D01*
X161800832Y-103500000D01*
X162198638Y-103500000D01*
X162265677Y-103519685D01*
X162286319Y-103536319D01*
X162463681Y-103713681D01*
X162497166Y-103775004D01*
X162500000Y-103801362D01*
X162500000Y-104500000D01*
X162531619Y-104531619D01*
X162556320Y-104566895D01*
X162585935Y-104630404D01*
X162669596Y-104714065D01*
X162776827Y-104764068D01*
X162825683Y-104770500D01*
X162825684Y-104770500D01*
X163174317Y-104770500D01*
X163190601Y-104768356D01*
X163223173Y-104764068D01*
X163330404Y-104714065D01*
X163330408Y-104714060D01*
X163339290Y-104707843D01*
X163339946Y-104708780D01*
X163356932Y-104696533D01*
X163750000Y-104500000D01*
X163750000Y-104042765D01*
X163769685Y-103975726D01*
X163773078Y-103970718D01*
X163779565Y-103961631D01*
X163782581Y-103957586D01*
X163812517Y-103919126D01*
X163812518Y-103919122D01*
X163816013Y-103912663D01*
X163819236Y-103906070D01*
X163819240Y-103906066D01*
X163833138Y-103859382D01*
X163834674Y-103854583D01*
X163850500Y-103808488D01*
X163850500Y-103808481D01*
X163851706Y-103801254D01*
X163852617Y-103793951D01*
X163850606Y-103745321D01*
X163850500Y-103740197D01*
X163850500Y-101874000D01*
X163870185Y-101806961D01*
X163922989Y-101761206D01*
X163974500Y-101750000D01*
X164025500Y-101750000D01*
X164092539Y-101769685D01*
G37*
%TD.AperFunction*%
%TD*%
%TA.AperFunction,Conductor*%
%TO.N,GND*%
G36*
X142405000Y-56019962D02*
G01*
X142459538Y-56074500D01*
X142479500Y-56149000D01*
X142479500Y-56222372D01*
X142481303Y-56237218D01*
X142494860Y-56348874D01*
X142555181Y-56507929D01*
X142555182Y-56507930D01*
X142651817Y-56647929D01*
X142651819Y-56647930D01*
X142651820Y-56647932D01*
X142779146Y-56760732D01*
X142779148Y-56760734D01*
X142929775Y-56839790D01*
X143094944Y-56880500D01*
X143265056Y-56880500D01*
X143430225Y-56839790D01*
X143580852Y-56760734D01*
X143708183Y-56647929D01*
X143804818Y-56507930D01*
X143865140Y-56348872D01*
X143880500Y-56222372D01*
X143880500Y-56149000D01*
X143900462Y-56074500D01*
X143955000Y-56019962D01*
X144029500Y-56000000D01*
X144396000Y-56000000D01*
X144470500Y-56019962D01*
X144525038Y-56074500D01*
X144545000Y-56149000D01*
X144545000Y-57282038D01*
X144544820Y-57289357D01*
X144544748Y-57290817D01*
X144544500Y-57300914D01*
X144544500Y-58353160D01*
X144524538Y-58427660D01*
X144500859Y-58458519D01*
X144270328Y-58689050D01*
X144261129Y-58698871D01*
X144252488Y-58708725D01*
X144238706Y-58722506D01*
X144228896Y-58731107D01*
X144219045Y-58740333D01*
X144198603Y-58760775D01*
X144131807Y-58799338D01*
X144112694Y-58803139D01*
X144019447Y-58815415D01*
X143980551Y-58815415D01*
X143866379Y-58800384D01*
X143863607Y-58799993D01*
X143848256Y-58797677D01*
X143843990Y-58797437D01*
X143827753Y-58795299D01*
X143823485Y-58795330D01*
X143816355Y-58794500D01*
X143816345Y-58794500D01*
X142683655Y-58794500D01*
X142683644Y-58794500D01*
X142676540Y-58795327D01*
X142674410Y-58795013D01*
X142638604Y-58799728D01*
X142636393Y-58800003D01*
X142634770Y-58800191D01*
X142632904Y-58800478D01*
X142519448Y-58815415D01*
X142480551Y-58815415D01*
X142387304Y-58803139D01*
X142316047Y-58773624D01*
X142301393Y-58760773D01*
X142280955Y-58740335D01*
X142271164Y-58731163D01*
X142261274Y-58722489D01*
X142247501Y-58708716D01*
X142238841Y-58698841D01*
X142233732Y-58693387D01*
X142229649Y-58689029D01*
X142043641Y-58503021D01*
X142005077Y-58436226D01*
X142000000Y-58397662D01*
X142000000Y-56311718D01*
X142019962Y-56237218D01*
X142043641Y-56206359D01*
X142206359Y-56043641D01*
X142273154Y-56005077D01*
X142311718Y-56000000D01*
X142330500Y-56000000D01*
X142405000Y-56019962D01*
G37*
%TD.AperFunction*%
%TD*%
%TA.AperFunction,Conductor*%
%TO.N,+3V3*%
G36*
X136301572Y-91769685D02*
G01*
X136322214Y-91786319D01*
X136330446Y-91794551D01*
X136396769Y-91838867D01*
X136396770Y-91838868D01*
X136455247Y-91850499D01*
X136455250Y-91850500D01*
X137876000Y-91850500D01*
X137943039Y-91870185D01*
X137988794Y-91922989D01*
X138000000Y-91974500D01*
X138000000Y-92025500D01*
X137980315Y-92092539D01*
X137927511Y-92138294D01*
X137876000Y-92149500D01*
X136455247Y-92149500D01*
X136396770Y-92161131D01*
X136396769Y-92161132D01*
X136330446Y-92205448D01*
X136322214Y-92213681D01*
X136260891Y-92247166D01*
X136251863Y-92248136D01*
X136250000Y-92250000D01*
X136250000Y-93750000D01*
X137213681Y-94713681D01*
X137247166Y-94775004D01*
X137250000Y-94801362D01*
X137250000Y-96698638D01*
X137230315Y-96765677D01*
X137213681Y-96786319D01*
X137036319Y-96963681D01*
X136974996Y-96997166D01*
X136948638Y-97000000D01*
X135374000Y-97000000D01*
X135306961Y-96980315D01*
X135261206Y-96927511D01*
X135250000Y-96876000D01*
X135250000Y-91874000D01*
X135269685Y-91806961D01*
X135322489Y-91761206D01*
X135374000Y-91750000D01*
X136234533Y-91750000D01*
X136301572Y-91769685D01*
G37*
%TD.AperFunction*%
%TD*%
%TA.AperFunction,Conductor*%
%TO.N,GND*%
G36*
X132765677Y-85519685D02*
G01*
X132786319Y-85536319D01*
X134713681Y-87463681D01*
X134747166Y-87525004D01*
X134750000Y-87551362D01*
X134750000Y-90448638D01*
X134730315Y-90515677D01*
X134713681Y-90536319D01*
X134536319Y-90713681D01*
X134474996Y-90747166D01*
X134448638Y-90750000D01*
X132051362Y-90750000D01*
X131984323Y-90730315D01*
X131963681Y-90713681D01*
X131286319Y-90036319D01*
X131252834Y-89974996D01*
X131250000Y-89948638D01*
X131250000Y-87500000D01*
X130286319Y-86536319D01*
X130252834Y-86474996D01*
X130250000Y-86448638D01*
X130250000Y-85801362D01*
X130269685Y-85734323D01*
X130286319Y-85713681D01*
X130463681Y-85536319D01*
X130525004Y-85502834D01*
X130551362Y-85500000D01*
X132698638Y-85500000D01*
X132765677Y-85519685D01*
G37*
%TD.AperFunction*%
%TD*%
%TA.AperFunction,Conductor*%
%TO.N,Earth_Protective*%
G36*
X142431436Y-50270185D02*
G01*
X142477191Y-50322989D01*
X142487135Y-50392147D01*
X142458110Y-50455703D01*
X142449829Y-50464375D01*
X142417328Y-50495268D01*
X142301143Y-50662195D01*
X142220940Y-50849092D01*
X142180000Y-51048309D01*
X142180000Y-51200000D01*
X142880000Y-51200000D01*
X142880000Y-51700000D01*
X142180000Y-51700000D01*
X142180000Y-51800714D01*
X142186380Y-51863456D01*
X142173578Y-51932142D01*
X142125674Y-51983005D01*
X142063016Y-52000000D01*
X128000000Y-52000000D01*
X128000000Y-50250500D01*
X142364397Y-50250500D01*
X142431436Y-50270185D01*
G37*
%TD.AperFunction*%
%TA.AperFunction,Conductor*%
G36*
X151071436Y-50270185D02*
G01*
X151117191Y-50322989D01*
X151127135Y-50392147D01*
X151098110Y-50455703D01*
X151089829Y-50464375D01*
X151057328Y-50495268D01*
X150941143Y-50662195D01*
X150860940Y-50849092D01*
X150820000Y-51048309D01*
X150820000Y-51200000D01*
X151520000Y-51200000D01*
X151520000Y-51700000D01*
X150820000Y-51700000D01*
X150820000Y-51800714D01*
X150826380Y-51863456D01*
X150813578Y-51932142D01*
X150765674Y-51983005D01*
X150703016Y-52000000D01*
X144301596Y-52000000D01*
X144234557Y-51980315D01*
X144188802Y-51927511D01*
X144178858Y-51858353D01*
X144179971Y-51851971D01*
X144180000Y-51851693D01*
X144180000Y-51700000D01*
X143480000Y-51700000D01*
X143480000Y-51200000D01*
X144180000Y-51200000D01*
X144180000Y-51099286D01*
X144164581Y-50947661D01*
X144103700Y-50753618D01*
X144103695Y-50753608D01*
X144004996Y-50575787D01*
X143901537Y-50455270D01*
X143872806Y-50391581D01*
X143883068Y-50322469D01*
X143929066Y-50269876D01*
X143995624Y-50250500D01*
X151004397Y-50250500D01*
X151071436Y-50270185D01*
G37*
%TD.AperFunction*%
%TA.AperFunction,Conductor*%
G36*
X167000000Y-52000000D02*
G01*
X152941596Y-52000000D01*
X152874557Y-51980315D01*
X152828802Y-51927511D01*
X152818858Y-51858353D01*
X152819971Y-51851971D01*
X152820000Y-51851693D01*
X152820000Y-51700000D01*
X152120000Y-51700000D01*
X152120000Y-51200000D01*
X152820000Y-51200000D01*
X152820000Y-51099286D01*
X152804581Y-50947661D01*
X152743700Y-50753618D01*
X152743695Y-50753608D01*
X152644996Y-50575787D01*
X152541537Y-50455270D01*
X152512806Y-50391581D01*
X152523068Y-50322469D01*
X152569066Y-50269876D01*
X152635624Y-50250500D01*
X167000000Y-50250500D01*
X167000000Y-52000000D01*
G37*
%TD.AperFunction*%
%TD*%
%TA.AperFunction,Conductor*%
%TO.N,Earth_Protective*%
G36*
X171003032Y-50250648D02*
G01*
X171361433Y-50268256D01*
X171373541Y-50269448D01*
X171725475Y-50321653D01*
X171737389Y-50324023D01*
X172082520Y-50410473D01*
X172094147Y-50414000D01*
X172429151Y-50533867D01*
X172440363Y-50538511D01*
X172762012Y-50690639D01*
X172772720Y-50696363D01*
X173077881Y-50879270D01*
X173087999Y-50886030D01*
X173373769Y-51097971D01*
X173383175Y-51105691D01*
X173646790Y-51344618D01*
X173655381Y-51353209D01*
X173857883Y-51576635D01*
X173894308Y-51616824D01*
X173902028Y-51626230D01*
X174113969Y-51912000D01*
X174120729Y-51922118D01*
X174303629Y-52227267D01*
X174309366Y-52237999D01*
X174461485Y-52559629D01*
X174466136Y-52570858D01*
X174585994Y-52905837D01*
X174589526Y-52917481D01*
X174675973Y-53262597D01*
X174678347Y-53274532D01*
X174730550Y-53626457D01*
X174731743Y-53638567D01*
X174749351Y-53996966D01*
X174749500Y-54003051D01*
X174749500Y-125996948D01*
X174749351Y-126003033D01*
X174731743Y-126361432D01*
X174730550Y-126373542D01*
X174678347Y-126725467D01*
X174675973Y-126737402D01*
X174589526Y-127082518D01*
X174585994Y-127094162D01*
X174466142Y-127429127D01*
X174461485Y-127440370D01*
X174309366Y-127762000D01*
X174303629Y-127772732D01*
X174120729Y-128077881D01*
X174113969Y-128087999D01*
X173902028Y-128373769D01*
X173894308Y-128383175D01*
X173655388Y-128646783D01*
X173646783Y-128655388D01*
X173383175Y-128894308D01*
X173373769Y-128902028D01*
X173087999Y-129113969D01*
X173077881Y-129120729D01*
X172772732Y-129303629D01*
X172762000Y-129309366D01*
X172440370Y-129461485D01*
X172429134Y-129466139D01*
X172305442Y-129510397D01*
X172094162Y-129585994D01*
X172082518Y-129589526D01*
X171737402Y-129675973D01*
X171725467Y-129678347D01*
X171373542Y-129730550D01*
X171361432Y-129731743D01*
X171023927Y-129748324D01*
X171003031Y-129749351D01*
X170996949Y-129749500D01*
X167124000Y-129749500D01*
X167056961Y-129729815D01*
X167011206Y-129677011D01*
X167000000Y-129625500D01*
X167000000Y-123051362D01*
X167019685Y-122984323D01*
X167036319Y-122963681D01*
X171000000Y-119000000D01*
X171000000Y-61000000D01*
X167036319Y-57036319D01*
X167002834Y-56974996D01*
X167000000Y-56948638D01*
X167000000Y-52000000D01*
X167000000Y-50250500D01*
X170955830Y-50250500D01*
X170996949Y-50250500D01*
X171003032Y-50250648D01*
G37*
%TD.AperFunction*%
%TD*%
%TA.AperFunction,Conductor*%
%TO.N,Earth_Protective*%
G36*
X128000000Y-52000000D02*
G01*
X128000000Y-56948638D01*
X127980315Y-57015677D01*
X127963681Y-57036319D01*
X124000000Y-60999999D01*
X124000000Y-119000000D01*
X127963681Y-122963681D01*
X127997166Y-123025004D01*
X128000000Y-123051362D01*
X128000000Y-129625500D01*
X127980315Y-129692539D01*
X127927511Y-129738294D01*
X127876000Y-129749500D01*
X124003051Y-129749500D01*
X123996968Y-129749351D01*
X123974856Y-129748264D01*
X123638567Y-129731743D01*
X123626457Y-129730550D01*
X123274532Y-129678347D01*
X123262597Y-129675973D01*
X122917481Y-129589526D01*
X122905837Y-129585994D01*
X122570858Y-129466136D01*
X122559629Y-129461485D01*
X122237999Y-129309366D01*
X122227272Y-129303631D01*
X121922118Y-129120729D01*
X121912000Y-129113969D01*
X121626230Y-128902028D01*
X121616824Y-128894308D01*
X121422650Y-128718319D01*
X121353209Y-128655381D01*
X121344618Y-128646790D01*
X121105691Y-128383175D01*
X121097971Y-128373769D01*
X120886030Y-128087999D01*
X120879270Y-128077881D01*
X120874859Y-128070522D01*
X120696363Y-127772720D01*
X120690639Y-127762012D01*
X120538511Y-127440363D01*
X120533867Y-127429151D01*
X120414000Y-127094147D01*
X120410473Y-127082518D01*
X120324023Y-126737389D01*
X120321652Y-126725467D01*
X120269449Y-126373542D01*
X120268256Y-126361431D01*
X120250649Y-126003032D01*
X120250500Y-125996948D01*
X120250500Y-54003051D01*
X120250649Y-53996967D01*
X120268256Y-53638568D01*
X120269449Y-53626457D01*
X120301240Y-53412139D01*
X120321654Y-53274520D01*
X120324022Y-53262613D01*
X120410475Y-52917473D01*
X120413998Y-52905858D01*
X120533869Y-52570840D01*
X120538508Y-52559643D01*
X120690643Y-52237979D01*
X120696358Y-52227287D01*
X120879278Y-51922105D01*
X120886021Y-51912012D01*
X121097979Y-51626219D01*
X121105682Y-51616834D01*
X121344628Y-51353198D01*
X121353198Y-51344628D01*
X121616834Y-51105682D01*
X121626219Y-51097979D01*
X121912012Y-50886021D01*
X121922105Y-50879278D01*
X122227287Y-50696358D01*
X122237979Y-50690643D01*
X122559643Y-50538508D01*
X122570840Y-50533869D01*
X122905858Y-50413998D01*
X122917473Y-50410475D01*
X123262613Y-50324022D01*
X123274520Y-50321654D01*
X123626460Y-50269448D01*
X123638564Y-50268256D01*
X123996967Y-50250648D01*
X124003051Y-50250500D01*
X128000000Y-50250500D01*
X128000000Y-52000000D01*
G37*
%TD.AperFunction*%
%TD*%
M02*
