M48
; DRILL file {KiCad 7.0.10} date Sun 21 Jan 2024 08:38:49 PM CET
; FORMAT={-:-/ absolute / metric / decimal}
; #@! TF.CreationDate,2024-01-21T20:38:49+01:00
; #@! TF.GenerationSoftware,Kicad,Pcbnew,7.0.10
; #@! TF.FileFunction,MixedPlating,1,4
FMAT,2
METRIC
; #@! TA.AperFunction,Plated,PTH,ViaDrill
T1C0.300
; #@! TA.AperFunction,Plated,PTH,ComponentDrill
T2C0.600
; #@! TA.AperFunction,Plated,PTH,ComponentDrill
T3C1.100
; #@! TA.AperFunction,Plated,PTH,ComponentDrill
T4C2.000
; #@! TA.AperFunction,Plated,PTH,ComponentDrill
T5C3.200
; #@! TA.AperFunction,NonPlated,NPTH,ComponentDrill
T6C0.650
%
G90
G05
T1
X122.45Y-58.325
X122.45Y-60.825
X122.45Y-63.325
X122.45Y-65.825
X122.45Y-68.325
X122.45Y-70.825
X122.45Y-73.325
X122.45Y-75.825
X122.45Y-78.325
X122.45Y-80.825
X122.45Y-83.325
X122.45Y-85.825
X122.45Y-88.325
X122.45Y-90.825
X122.45Y-93.325
X122.45Y-95.825
X122.45Y-98.325
X122.45Y-100.825
X122.45Y-103.325
X122.45Y-105.825
X122.45Y-108.325
X122.45Y-110.825
X122.45Y-113.325
X122.45Y-115.825
X122.45Y-118.325
X122.45Y-120.825
X124.95Y-58.325
X124.95Y-63.325
X124.95Y-68.325
X124.95Y-73.325
X124.95Y-78.325
X124.95Y-83.325
X124.95Y-88.325
X124.95Y-93.325
X124.95Y-98.325
X124.95Y-103.325
X124.95Y-108.325
X124.95Y-113.325
X124.95Y-118.325
X124.95Y-120.825
X127.45Y-123.325
X127.45Y-128.325
X127.5Y-56.5
X129.0Y-51.0
X129.0Y-75.0
X129.0Y-77.0
X129.0Y-91.0
X129.0Y-93.25
X129.95Y-113.325
X129.95Y-118.325
X129.95Y-128.325
X130.0Y-102.0
X130.0Y-105.7
X130.75Y-66.5
X130.75Y-79.0
X130.75Y-100.0
X130.75Y-108.5
X131.0Y-73.5
X131.0Y-74.5
X131.0Y-81.5
X131.5Y-87.0
X132.0Y-51.0
X132.0Y-75.75
X132.0Y-88.25
X132.186Y-106.578
X132.25Y-53.0
X132.25Y-90.25
X132.5Y-99.5
X132.5Y-108.5
X132.76Y-101.506
X133.0Y-79.48
X133.0Y-62.25
X133.0Y-66.5
X133.0Y-94.25
X133.5Y-56.5
X133.5Y-57.75
X133.5Y-90.25
X133.5Y-97.5
X133.75Y-76.5
X133.75Y-95.0
X133.75Y-110.5
X134.25Y-61.75
X134.25Y-62.75
X134.25Y-63.75
X134.25Y-65.0
X134.25Y-66.0
X134.25Y-67.0
X134.25Y-87.75
X134.464Y-93.103
X134.517Y-92.205
X134.75Y-75.75
X134.75Y-77.25
X134.792Y-97.909
X134.95Y-53.325
X134.95Y-123.325
X134.95Y-128.325
X135.0Y-51.0
X135.0Y-57.75
X135.5Y-92.0
X136.0Y-98.0
X136.25Y-89.75
X136.75Y-69.75
X136.75Y-90.75
X136.75Y-95.25
X136.75Y-96.25
X136.75Y-107.0
X137.0Y-98.0
X137.0Y-112.5
X137.25Y-77.25
X137.25Y-83.25
X138.0Y-51.0
X139.75Y-65.0
X139.75Y-66.0
X139.75Y-67.0
X139.95Y-63.325
X139.95Y-103.325
X139.95Y-113.325
X139.95Y-128.325
X140.25Y-56.25
X141.0Y-51.0
X141.25Y-99.75
X141.5Y-57.5
X141.75Y-94.5
X142.25Y-93.75
X142.5Y-57.0
X142.5Y-58.47
X143.25Y-57.75
X144.0Y-58.47
X144.5Y-96.0
X144.95Y-63.325
X144.95Y-68.325
X144.95Y-83.325
X144.95Y-88.325
X144.95Y-98.325
X144.95Y-113.325
X144.95Y-118.325
X144.95Y-123.325
X144.95Y-128.325
X145.0Y-51.0
X145.0Y-61.0
X145.0Y-76.75
X145.0Y-77.75
X145.0Y-96.75
X146.25Y-105.25
X147.5Y-58.25
X148.0Y-81.081
X148.0Y-82.5
X148.0Y-83.5
X148.75Y-85.75
X149.5Y-108.5
X149.95Y-73.325
X149.95Y-98.325
X149.95Y-113.325
X149.95Y-118.325
X149.95Y-123.325
X149.95Y-128.325
X150.0Y-51.0
X150.0Y-65.25
X151.0Y-58.5
X151.75Y-57.75
X151.75Y-77.75
X152.0Y-61.5
X152.0Y-80.47
X152.25Y-74.5
X152.5Y-57.0
X152.5Y-58.5
X153.25Y-71.75
X153.25Y-74.5
X153.25Y-77.75
X153.5Y-78.75
X153.5Y-89.5
X153.5Y-90.5
X154.0Y-51.0
X154.0Y-62.5
X154.0Y-72.25
X154.129Y-63.391
X154.75Y-98.325
X154.95Y-103.325
X154.95Y-108.325
X154.95Y-113.325
X154.95Y-118.325
X154.95Y-128.325
X155.0Y-93.25
X155.3Y-75.75
X155.5Y-62.5
X155.75Y-83.25
X156.25Y-63.0
X156.25Y-79.75
X156.5Y-84.25
X156.75Y-75.75
X157.0Y-51.0
X157.0Y-62.5
X157.25Y-79.75
X157.25Y-85.0
X157.75Y-80.5
X158.0Y-64.5
X158.0Y-67.5
X158.25Y-79.75
X158.25Y-88.25
X158.5Y-55.5
X158.75Y-81.25
X159.0Y-88.75
X159.25Y-79.75
X159.5Y-57.0
X159.535Y-80.604
X159.75Y-91.0
X159.75Y-92.0
X159.95Y-123.325
X159.95Y-128.325
X160.0Y-51.0
X160.0Y-81.5
X160.0Y-100.0
X160.45Y-89.5
X160.5Y-58.25
X160.5Y-80.75
X160.5Y-97.75
X160.5Y-112.5
X161.0Y-81.5
X161.25Y-80.25
X161.5Y-55.5
X161.5Y-67.5
X162.0Y-71.5
X162.045Y-72.445
X162.23Y-105.25
X162.25Y-87.25
X162.25Y-88.5
X162.747Y-86.25
X162.75Y-111.75
X163.0Y-51.0
X163.0Y-56.5
X163.0Y-58.25
X163.647Y-86.223
X163.672Y-109.105
X163.75Y-72.25
X163.75Y-73.25
X163.75Y-100.25
X164.0Y-93.25
X164.0Y-105.25
X164.25Y-58.25
X164.555Y-100.652
X164.95Y-111.28
X164.95Y-113.325
X164.95Y-118.325
X164.95Y-128.325
X165.0Y-103.75
X165.13Y-80.462
X165.25Y-67.5
X165.25Y-72.25
X165.25Y-79.5
X165.5Y-61.75
X165.5Y-97.0
X165.75Y-55.0
X165.75Y-58.25
X165.785Y-97.854
X166.0Y-51.0
X166.0Y-103.75
X166.25Y-72.5
X167.5Y-56.5
X167.5Y-123.4
X167.5Y-128.3
X169.95Y-58.325
X169.95Y-63.325
X169.95Y-68.325
X169.95Y-73.325
X169.95Y-78.325
X169.95Y-83.325
X169.95Y-88.325
X169.95Y-93.325
X169.95Y-98.325
X169.95Y-103.325
X169.95Y-108.325
X169.95Y-113.325
X169.95Y-118.325
X169.95Y-120.825
X172.45Y-58.325
X172.45Y-60.825
X172.45Y-63.325
X172.45Y-65.825
X172.45Y-68.325
X172.45Y-70.825
X172.45Y-73.325
X172.45Y-75.825
X172.45Y-78.325
X172.45Y-80.825
X172.45Y-83.325
X172.45Y-85.825
X172.45Y-88.325
X172.45Y-90.825
X172.45Y-93.325
X172.45Y-95.825
X172.45Y-98.325
X172.45Y-100.825
X172.45Y-103.325
X172.45Y-105.825
X172.45Y-108.325
X172.45Y-110.825
X172.45Y-113.325
X172.45Y-115.825
X172.45Y-118.325
X172.45Y-120.825
T3
X136.0Y-117.0
X138.54Y-117.0
X159.0Y-117.0
X161.54Y-117.0
T4
X130.92Y-122.08
X141.08Y-122.08
X153.92Y-122.08
X164.08Y-122.08
T5
X124.0Y-54.0
X124.0Y-126.0
X171.0Y-54.0
X171.0Y-126.0
T6
X144.61Y-55.1
X150.39Y-55.1
T2
G00X143.18Y-51.75
M15
G01X143.18Y-51.15
M16
G05
G00X143.18Y-56.18
M15
G01X143.18Y-55.08
M16
G05
G00X151.82Y-51.75
M15
G01X151.82Y-51.15
M16
G05
G00X151.82Y-56.18
M15
G01X151.82Y-55.08
M16
G05
M30
