%TF.GenerationSoftware,KiCad,Pcbnew,7.0.10*%
%TF.CreationDate,2024-01-21T20:38:52+01:00*%
%TF.ProjectId,Nemesis-MixSigPCB,4e656d65-7369-4732-9d4d-697853696750,1*%
%TF.SameCoordinates,Original*%
%TF.FileFunction,Paste,Top*%
%TF.FilePolarity,Positive*%
%FSLAX46Y46*%
G04 Gerber Fmt 4.6, Leading zero omitted, Abs format (unit mm)*
G04 Created by KiCad (PCBNEW 7.0.10) date 2024-01-21 20:38:52*
%MOMM*%
%LPD*%
G01*
G04 APERTURE LIST*
G04 Aperture macros list*
%AMRoundRect*
0 Rectangle with rounded corners*
0 $1 Rounding radius*
0 $2 $3 $4 $5 $6 $7 $8 $9 X,Y pos of 4 corners*
0 Add a 4 corners polygon primitive as box body*
4,1,4,$2,$3,$4,$5,$6,$7,$8,$9,$2,$3,0*
0 Add four circle primitives for the rounded corners*
1,1,$1+$1,$2,$3*
1,1,$1+$1,$4,$5*
1,1,$1+$1,$6,$7*
1,1,$1+$1,$8,$9*
0 Add four rect primitives between the rounded corners*
20,1,$1+$1,$2,$3,$4,$5,0*
20,1,$1+$1,$4,$5,$6,$7,0*
20,1,$1+$1,$6,$7,$8,$9,0*
20,1,$1+$1,$8,$9,$2,$3,0*%
%AMFreePoly0*
4,1,9,3.862500,-0.866500,0.737500,-0.866500,0.737500,-0.450000,-0.737500,-0.450000,-0.737500,0.450000,0.737500,0.450000,0.737500,0.866500,3.862500,0.866500,3.862500,-0.866500,3.862500,-0.866500,$1*%
G04 Aperture macros list end*
%ADD10RoundRect,0.225000X0.225000X0.250000X-0.225000X0.250000X-0.225000X-0.250000X0.225000X-0.250000X0*%
%ADD11R,0.740000X2.400000*%
%ADD12RoundRect,0.218750X-0.218750X-0.256250X0.218750X-0.256250X0.218750X0.256250X-0.218750X0.256250X0*%
%ADD13RoundRect,0.112500X-0.187500X-0.112500X0.187500X-0.112500X0.187500X0.112500X-0.187500X0.112500X0*%
%ADD14RoundRect,0.135000X-0.135000X-0.185000X0.135000X-0.185000X0.135000X0.185000X-0.135000X0.185000X0*%
%ADD15RoundRect,0.135000X0.135000X0.185000X-0.135000X0.185000X-0.135000X-0.185000X0.135000X-0.185000X0*%
%ADD16RoundRect,0.140000X0.140000X0.170000X-0.140000X0.170000X-0.140000X-0.170000X0.140000X-0.170000X0*%
%ADD17RoundRect,0.150000X-0.150000X0.512500X-0.150000X-0.512500X0.150000X-0.512500X0.150000X0.512500X0*%
%ADD18R,3.500000X2.350000*%
%ADD19RoundRect,0.135000X-0.185000X0.135000X-0.185000X-0.135000X0.185000X-0.135000X0.185000X0.135000X0*%
%ADD20RoundRect,0.250000X0.475000X-0.250000X0.475000X0.250000X-0.475000X0.250000X-0.475000X-0.250000X0*%
%ADD21RoundRect,0.140000X-0.140000X-0.170000X0.140000X-0.170000X0.140000X0.170000X-0.140000X0.170000X0*%
%ADD22RoundRect,0.225000X-0.225000X-0.250000X0.225000X-0.250000X0.225000X0.250000X-0.225000X0.250000X0*%
%ADD23RoundRect,0.140000X0.170000X-0.140000X0.170000X0.140000X-0.170000X0.140000X-0.170000X-0.140000X0*%
%ADD24RoundRect,0.147500X0.147500X0.172500X-0.147500X0.172500X-0.147500X-0.172500X0.147500X-0.172500X0*%
%ADD25R,1.400000X1.200000*%
%ADD26RoundRect,0.135000X0.185000X-0.135000X0.185000X0.135000X-0.185000X0.135000X-0.185000X-0.135000X0*%
%ADD27RoundRect,0.112500X0.187500X0.112500X-0.187500X0.112500X-0.187500X-0.112500X0.187500X-0.112500X0*%
%ADD28RoundRect,0.150000X0.512500X0.150000X-0.512500X0.150000X-0.512500X-0.150000X0.512500X-0.150000X0*%
%ADD29R,0.600000X1.450000*%
%ADD30R,0.300000X1.450000*%
%ADD31RoundRect,0.250000X-0.250000X-0.475000X0.250000X-0.475000X0.250000X0.475000X-0.250000X0.475000X0*%
%ADD32RoundRect,0.150000X-0.587500X-0.150000X0.587500X-0.150000X0.587500X0.150000X-0.587500X0.150000X0*%
%ADD33RoundRect,0.140000X-0.170000X0.140000X-0.170000X-0.140000X0.170000X-0.140000X0.170000X0.140000X0*%
%ADD34R,0.900000X1.300000*%
%ADD35FreePoly0,90.000000*%
%ADD36RoundRect,0.150000X-0.512500X-0.150000X0.512500X-0.150000X0.512500X0.150000X-0.512500X0.150000X0*%
%ADD37RoundRect,0.075000X-0.662500X-0.075000X0.662500X-0.075000X0.662500X0.075000X-0.662500X0.075000X0*%
%ADD38RoundRect,0.075000X-0.075000X-0.662500X0.075000X-0.662500X0.075000X0.662500X-0.075000X0.662500X0*%
%ADD39R,1.000000X0.800000*%
%ADD40RoundRect,0.150000X0.150000X-0.512500X0.150000X0.512500X-0.150000X0.512500X-0.150000X-0.512500X0*%
%ADD41RoundRect,0.250000X0.450000X-0.262500X0.450000X0.262500X-0.450000X0.262500X-0.450000X-0.262500X0*%
%ADD42RoundRect,0.225000X0.250000X-0.225000X0.250000X0.225000X-0.250000X0.225000X-0.250000X-0.225000X0*%
%ADD43RoundRect,0.112500X0.112500X-0.187500X0.112500X0.187500X-0.112500X0.187500X-0.112500X-0.187500X0*%
%ADD44RoundRect,0.250000X0.250000X0.475000X-0.250000X0.475000X-0.250000X-0.475000X0.250000X-0.475000X0*%
%ADD45RoundRect,0.225000X-0.250000X0.225000X-0.250000X-0.225000X0.250000X-0.225000X0.250000X0.225000X0*%
%ADD46R,1.450000X0.300000*%
%ADD47RoundRect,0.250000X-0.475000X0.250000X-0.475000X-0.250000X0.475000X-0.250000X0.475000X0.250000X0*%
%ADD48R,0.700000X1.200000*%
G04 APERTURE END LIST*
D10*
%TO.C,C402*%
X161500000Y-99000000D03*
X159950000Y-99000000D03*
%TD*%
D11*
%TO.C,J201*%
X165540000Y-60050000D03*
X165540000Y-63950000D03*
X164270000Y-60050000D03*
X164270000Y-63950000D03*
X163000000Y-60050000D03*
X163000000Y-63950000D03*
X161730000Y-60050000D03*
X161730000Y-63950000D03*
X160460000Y-60050000D03*
X160460000Y-63950000D03*
%TD*%
D12*
%TO.C,D100*%
X164212500Y-53750000D03*
X165787500Y-53750000D03*
%TD*%
D13*
%TO.C,D400*%
X159450000Y-112500000D03*
X161550000Y-112500000D03*
%TD*%
D14*
%TO.C,R402*%
X160500000Y-103000000D03*
X161520000Y-103000000D03*
%TD*%
D15*
%TO.C,R105*%
X133010000Y-81500000D03*
X131990000Y-81500000D03*
%TD*%
%TO.C,R102*%
X130240000Y-62750000D03*
X129220000Y-62750000D03*
%TD*%
D16*
%TO.C,C314*%
X135480000Y-94750000D03*
X134520000Y-94750000D03*
%TD*%
D17*
%TO.C,U201*%
X148450000Y-59725000D03*
X147500000Y-59725000D03*
X146550000Y-59725000D03*
X146550000Y-62000000D03*
X147500000Y-62000000D03*
X148450000Y-62000000D03*
%TD*%
D18*
%TO.C,L101*%
X137000000Y-59975000D03*
X137000000Y-66025000D03*
%TD*%
D19*
%TO.C,R206*%
X141500000Y-54240000D03*
X141500000Y-55260000D03*
%TD*%
D10*
%TO.C,C312*%
X135775000Y-88750000D03*
X134225000Y-88750000D03*
%TD*%
D16*
%TO.C,C307*%
X135980000Y-99000000D03*
X135020000Y-99000000D03*
%TD*%
D20*
%TO.C,C105*%
X132000000Y-64950000D03*
X132000000Y-63050000D03*
%TD*%
D21*
%TO.C,C405*%
X160500000Y-109000000D03*
X161460000Y-109000000D03*
%TD*%
D22*
%TO.C,C309*%
X129225000Y-86000000D03*
X130775000Y-86000000D03*
%TD*%
D16*
%TO.C,C401*%
X161500000Y-97000000D03*
X160540000Y-97000000D03*
%TD*%
%TO.C,C313*%
X135480000Y-90250000D03*
X134520000Y-90250000D03*
%TD*%
D20*
%TO.C,C107*%
X129500000Y-79950000D03*
X129500000Y-78050000D03*
%TD*%
D16*
%TO.C,C202*%
X161340000Y-88500000D03*
X160380000Y-88500000D03*
%TD*%
D14*
%TO.C,R305*%
X134990000Y-103500000D03*
X136010000Y-103500000D03*
%TD*%
D23*
%TO.C,C302*%
X130000000Y-107480000D03*
X130000000Y-106520000D03*
%TD*%
D24*
%TO.C,L200*%
X150590000Y-85870000D03*
X149620000Y-85870000D03*
%TD*%
D25*
%TO.C,Y200*%
X148690000Y-77170000D03*
X146490000Y-77170000D03*
X146490000Y-78870000D03*
X148690000Y-78870000D03*
%TD*%
D26*
%TO.C,R301*%
X134500000Y-110510000D03*
X134500000Y-109490000D03*
%TD*%
D27*
%TO.C,D203*%
X162600000Y-67500000D03*
X160500000Y-67500000D03*
%TD*%
D14*
%TO.C,R302*%
X129990000Y-98500000D03*
X131010000Y-98500000D03*
%TD*%
D21*
%TO.C,C303*%
X135020000Y-106500000D03*
X135980000Y-106500000D03*
%TD*%
%TO.C,C212*%
X155020000Y-64000000D03*
X155980000Y-64000000D03*
%TD*%
D28*
%TO.C,U101*%
X132137500Y-61225000D03*
X132137500Y-60275000D03*
X132137500Y-59325000D03*
X129862500Y-59325000D03*
X129862500Y-61225000D03*
%TD*%
D15*
%TO.C,R404*%
X161500000Y-107500000D03*
X160480000Y-107500000D03*
%TD*%
D26*
%TO.C,R207*%
X157000000Y-58010000D03*
X157000000Y-56990000D03*
%TD*%
%TO.C,R208*%
X154000000Y-58010000D03*
X154000000Y-56990000D03*
%TD*%
D14*
%TO.C,R401*%
X163000000Y-104250000D03*
X164020000Y-104250000D03*
%TD*%
D29*
%TO.C,J200*%
X150750000Y-56545000D03*
X149950000Y-56545000D03*
D30*
X148750000Y-56545000D03*
X147750000Y-56545000D03*
X147250000Y-56545000D03*
X146250000Y-56545000D03*
D29*
X145050000Y-56545000D03*
X144250000Y-56545000D03*
X144250000Y-56545000D03*
X145050000Y-56545000D03*
D30*
X145750000Y-56545000D03*
X146750000Y-56545000D03*
X148250000Y-56545000D03*
X149250000Y-56545000D03*
D29*
X149950000Y-56545000D03*
X150750000Y-56545000D03*
%TD*%
D15*
%TO.C,R201*%
X147010000Y-81670000D03*
X145990000Y-81670000D03*
%TD*%
D26*
%TO.C,R210*%
X166000000Y-71520000D03*
X166000000Y-70500000D03*
%TD*%
D19*
%TO.C,R400*%
X164500000Y-95480000D03*
X164500000Y-96500000D03*
%TD*%
D15*
%TO.C,R309*%
X140010000Y-92500000D03*
X138990000Y-92500000D03*
%TD*%
D31*
%TO.C,C104*%
X130050000Y-57275000D03*
X131950000Y-57275000D03*
%TD*%
D32*
%TO.C,U302*%
X130125000Y-88050000D03*
X130125000Y-89950000D03*
X132000000Y-89000000D03*
%TD*%
D19*
%TO.C,R300*%
X136000000Y-109490000D03*
X136000000Y-110510000D03*
%TD*%
D10*
%TO.C,C310*%
X130775000Y-92000000D03*
X129225000Y-92000000D03*
%TD*%
D15*
%TO.C,R306*%
X136010000Y-100500000D03*
X134990000Y-100500000D03*
%TD*%
D33*
%TO.C,C211*%
X157500000Y-54520000D03*
X157500000Y-55480000D03*
%TD*%
D21*
%TO.C,C209*%
X145990000Y-80370000D03*
X146950000Y-80370000D03*
%TD*%
D34*
%TO.C,U100*%
X132000000Y-72450000D03*
D35*
X133500000Y-72362500D03*
D34*
X135000000Y-72450000D03*
%TD*%
D23*
%TO.C,C205*%
X152500000Y-83980000D03*
X152500000Y-83020000D03*
%TD*%
D26*
%TO.C,R209*%
X155500000Y-58010000D03*
X155500000Y-56990000D03*
%TD*%
D16*
%TO.C,C311*%
X130980000Y-93500000D03*
X130020000Y-93500000D03*
%TD*%
D30*
%TO.C,U400*%
X163000000Y-102500000D03*
X163500000Y-102500000D03*
X164000000Y-102500000D03*
X164500000Y-102500000D03*
X165000000Y-102500000D03*
X165000000Y-98100000D03*
X164500000Y-98100000D03*
X164000000Y-98100000D03*
X163500000Y-98100000D03*
X163000000Y-98100000D03*
%TD*%
D36*
%TO.C,U102*%
X131862500Y-78050000D03*
X131862500Y-79000000D03*
X131862500Y-79950000D03*
X134137500Y-79950000D03*
X134137500Y-78050000D03*
%TD*%
D16*
%TO.C,C406*%
X164480000Y-111750000D03*
X163520000Y-111750000D03*
%TD*%
D27*
%TO.C,D201*%
X166050000Y-56500000D03*
X163950000Y-56500000D03*
%TD*%
D21*
%TO.C,C404*%
X163000000Y-106250000D03*
X163960000Y-106250000D03*
%TD*%
D13*
%TO.C,D300*%
X135950000Y-112500000D03*
X138050000Y-112500000D03*
%TD*%
D26*
%TO.C,R103*%
X162500000Y-55520000D03*
X162500000Y-54500000D03*
%TD*%
D37*
%TO.C,U200*%
X154337500Y-79750000D03*
X154337500Y-80250000D03*
X154337500Y-80750000D03*
X154337500Y-81250000D03*
X154337500Y-81750000D03*
X154337500Y-82250000D03*
X154337500Y-82750000D03*
X154337500Y-83250000D03*
X154337500Y-83750000D03*
X154337500Y-84250000D03*
X154337500Y-84750000D03*
X154337500Y-85250000D03*
D38*
X155750000Y-86662500D03*
X156250000Y-86662500D03*
X156750000Y-86662500D03*
X157250000Y-86662500D03*
X157750000Y-86662500D03*
X158250000Y-86662500D03*
X158750000Y-86662500D03*
X159250000Y-86662500D03*
X159750000Y-86662500D03*
X160250000Y-86662500D03*
X160750000Y-86662500D03*
X161250000Y-86662500D03*
D37*
X162662500Y-85250000D03*
X162662500Y-84750000D03*
X162662500Y-84250000D03*
X162662500Y-83750000D03*
X162662500Y-83250000D03*
X162662500Y-82750000D03*
X162662500Y-82250000D03*
X162662500Y-81750000D03*
X162662500Y-81250000D03*
X162662500Y-80750000D03*
X162662500Y-80250000D03*
X162662500Y-79750000D03*
D38*
X161250000Y-78337500D03*
X160750000Y-78337500D03*
X160250000Y-78337500D03*
X159750000Y-78337500D03*
X159250000Y-78337500D03*
X158750000Y-78337500D03*
X158250000Y-78337500D03*
X157750000Y-78337500D03*
X157250000Y-78337500D03*
X156750000Y-78337500D03*
X156250000Y-78337500D03*
X155750000Y-78337500D03*
%TD*%
D17*
%TO.C,U401*%
X164950000Y-107862500D03*
X164000000Y-107862500D03*
X163050000Y-107862500D03*
X163050000Y-110137500D03*
X164950000Y-110137500D03*
%TD*%
D39*
%TO.C,D200*%
X154250000Y-53950000D03*
X155750000Y-53950000D03*
X155750000Y-55050000D03*
X154250000Y-55050000D03*
%TD*%
D40*
%TO.C,U301*%
X131550000Y-102637500D03*
X132500000Y-102637500D03*
X133450000Y-102637500D03*
X133450000Y-100362500D03*
X131550000Y-100362500D03*
%TD*%
D41*
%TO.C,R100*%
X129500000Y-70050000D03*
X129500000Y-68225000D03*
%TD*%
D15*
%TO.C,R303*%
X136010000Y-108000000D03*
X134990000Y-108000000D03*
%TD*%
D33*
%TO.C,C301*%
X131500000Y-109520000D03*
X131500000Y-110480000D03*
%TD*%
D27*
%TO.C,D204*%
X159000000Y-67500000D03*
X156900000Y-67500000D03*
%TD*%
D16*
%TO.C,C106*%
X130210000Y-65750000D03*
X129250000Y-65750000D03*
%TD*%
D26*
%TO.C,R211*%
X164500000Y-71520000D03*
X164500000Y-70500000D03*
%TD*%
D23*
%TO.C,C304*%
X130000000Y-103980000D03*
X130000000Y-103020000D03*
%TD*%
D10*
%TO.C,C315*%
X135775000Y-96250000D03*
X134225000Y-96250000D03*
%TD*%
D33*
%TO.C,C306*%
X130000000Y-100020000D03*
X130000000Y-100980000D03*
%TD*%
D42*
%TO.C,C207*%
X149250000Y-84420000D03*
X149250000Y-82870000D03*
%TD*%
D14*
%TO.C,R403*%
X160480000Y-106000000D03*
X161500000Y-106000000D03*
%TD*%
D15*
%TO.C,R304*%
X136010000Y-105000000D03*
X134990000Y-105000000D03*
%TD*%
D21*
%TO.C,C204*%
X155520000Y-76620000D03*
X156480000Y-76620000D03*
%TD*%
D14*
%TO.C,R308*%
X129990000Y-84500000D03*
X131010000Y-84500000D03*
%TD*%
%TO.C,R101*%
X129220000Y-64250000D03*
X130240000Y-64250000D03*
%TD*%
%TO.C,R405*%
X160480000Y-110500000D03*
X161500000Y-110500000D03*
%TD*%
D43*
%TO.C,D205*%
X158000000Y-65600000D03*
X158000000Y-63500000D03*
%TD*%
D13*
%TO.C,D202*%
X164000000Y-67500000D03*
X166100000Y-67500000D03*
%TD*%
D17*
%TO.C,U300*%
X133450000Y-105362500D03*
X132500000Y-105362500D03*
X131550000Y-105362500D03*
X131550000Y-107637500D03*
X133450000Y-107637500D03*
%TD*%
D42*
%TO.C,C206*%
X151000000Y-84420000D03*
X151000000Y-82870000D03*
%TD*%
D33*
%TO.C,C203*%
X164500000Y-79520000D03*
X164500000Y-80480000D03*
%TD*%
D44*
%TO.C,C103*%
X134450000Y-74500000D03*
X132550000Y-74500000D03*
%TD*%
D19*
%TO.C,R205*%
X140250000Y-54240000D03*
X140250000Y-55260000D03*
%TD*%
D33*
%TO.C,C300*%
X133000000Y-109520000D03*
X133000000Y-110480000D03*
%TD*%
D16*
%TO.C,C108*%
X130980000Y-75500000D03*
X130020000Y-75500000D03*
%TD*%
D14*
%TO.C,R203*%
X154990000Y-88500000D03*
X156010000Y-88500000D03*
%TD*%
D21*
%TO.C,C403*%
X160520000Y-104500000D03*
X161480000Y-104500000D03*
%TD*%
D45*
%TO.C,C308*%
X132500000Y-84500000D03*
X132500000Y-86050000D03*
%TD*%
D33*
%TO.C,C210*%
X145000000Y-59270000D03*
X145000000Y-60230000D03*
%TD*%
D14*
%TO.C,R104*%
X128990000Y-81500000D03*
X130010000Y-81500000D03*
%TD*%
D19*
%TO.C,R204*%
X166000000Y-79490000D03*
X166000000Y-80510000D03*
%TD*%
D45*
%TO.C,C100*%
X135000000Y-55000000D03*
X135000000Y-56550000D03*
%TD*%
D42*
%TO.C,C200*%
X151000000Y-80025000D03*
X151000000Y-78475000D03*
%TD*%
D15*
%TO.C,R307*%
X133510000Y-98500000D03*
X132490000Y-98500000D03*
%TD*%
D26*
%TO.C,R202*%
X164500000Y-86510000D03*
X164500000Y-85490000D03*
%TD*%
D24*
%TO.C,L100*%
X133485000Y-55000000D03*
X132515000Y-55000000D03*
%TD*%
D26*
%TO.C,R212*%
X163000000Y-71520000D03*
X163000000Y-70500000D03*
%TD*%
D46*
%TO.C,U303*%
X132800000Y-91500000D03*
X132800000Y-92000000D03*
X132800000Y-92500000D03*
X132800000Y-93000000D03*
X132800000Y-93500000D03*
X137200000Y-93500000D03*
X137200000Y-93000000D03*
X137200000Y-92500000D03*
X137200000Y-92000000D03*
X137200000Y-91500000D03*
%TD*%
D10*
%TO.C,C400*%
X161500000Y-101000000D03*
X159950000Y-101000000D03*
%TD*%
D26*
%TO.C,R200*%
X157750000Y-76510000D03*
X157750000Y-75490000D03*
%TD*%
D14*
%TO.C,R213*%
X154990000Y-65500000D03*
X156010000Y-65500000D03*
%TD*%
D16*
%TO.C,C208*%
X148990000Y-80370000D03*
X148030000Y-80370000D03*
%TD*%
%TO.C,C305*%
X135980000Y-102000000D03*
X135020000Y-102000000D03*
%TD*%
D47*
%TO.C,C102*%
X129500000Y-72050000D03*
X129500000Y-73950000D03*
%TD*%
D42*
%TO.C,C101*%
X131000000Y-55000000D03*
X131000000Y-53450000D03*
%TD*%
D48*
%TO.C,L201*%
X148050000Y-64037500D03*
X146950000Y-64037500D03*
X146950000Y-66687500D03*
X148050000Y-66687500D03*
%TD*%
D23*
%TO.C,C201*%
X152500000Y-79730000D03*
X152500000Y-78770000D03*
%TD*%
M02*
